<?xml version="1.0" encoding="utf-8"?>
<!-- Generator: Adobe Illustrator 27.0.0, SVG Export Plug-In . SVG Version: 6.00 Build 0)  -->
<svg version="1.1" id="Layer_1" xmlns="http://www.w3.org/2000/svg" xmlns:xlink="http://www.w3.org/1999/xlink" x="0px" y="0px"
	 viewBox="0 0 612 792" style="enable-background:new 0 0 612 792;" xml:space="preserve">
<style type="text/css">
	.st0{fill:#39312E;}
	.st1{fill:#F5F0E1;}
	.st2{fill:#F4EFE0;}
	.st3{fill:#DBD5C8;}
	.st4{fill:#D8D3C5;}
	.st5{fill:#F1ECDD;}
	.st6{fill:#EFEADB;}
	.st7{fill:#ECE6D8;}
	.st8{fill:#EDE8DA;}
	.st9{fill:#EEE9DA;}
	.st10{fill:#F0EBDD;}
	.st11{fill:#ECE7D9;}
	.st12{fill:#3A322F;}
	.st13{fill:#3B3330;}
	.st14{fill:#3C3431;}
	.st15{fill:#3C3430;}
	.st16{fill:#504944;}
	.st17{fill:#5E5651;}
	.st18{fill:#443C38;}
	.st19{fill:#B5AEA2;}
	.st20{fill:#3D3532;}
	.st21{fill:#453D39;}
	.st22{fill:#473F3B;}
	.st23{fill:#F3EEDF;}
	.st24{fill:#F2EDDE;}
	.st25{fill:#EDE7D9;}
	.st26{fill:#EFE9DB;}
	.st27{fill:#EEE8DA;}
	.st28{fill:#EDE8D9;}
	.st29{fill:#EBE6D8;}
	.st30{fill:#EBE5D7;}
	.st31{fill:#E9E4D5;}
	.st32{fill:#E3DECF;}
	.st33{fill:#D3CDC0;}
	.st34{fill:#CCC6B9;}
	.st35{fill:#DCD7C8;}
	.st36{fill:#D6D0C3;}
	.st37{fill:#C4BEB1;}
	.st38{fill:#DDD8CA;}
	.st39{fill:#D2CCBF;}
	.st40{fill:#C6C0B3;}
	.st41{fill:#D9D3C5;}
	.st42{fill:#D5CFC2;}
	.st43{fill:#D0C9BC;}
	.st44{fill:#CDC7BA;}
	.st45{fill:#DCD6C9;}
	.st46{fill:#D1CABE;}
	.st47{fill:#C7C1B4;}
	.st48{fill:#E0DACC;}
	.st49{fill:#C9C3B6;}
	.st50{fill:#CAC4B7;}
	.st51{fill:#C0BAAE;}
	.st52{fill:#C3BDB0;}
	.st53{fill:#DBD6C8;}
	.st54{fill:#C4BDB0;}
	.st55{fill:#BCB5A9;}
	.st56{fill:#C3BCB0;}
	.st57{fill:#D0CABD;}
	.st58{fill:#DBD5C7;}
	.st59{fill:#BBB4A8;}
	.st60{fill:#EAE4D6;}
	.st61{fill:#E5DFD0;}
	.st62{fill:#CFC9BC;}
	.st63{fill:#EBE6D7;}
	.st64{fill:#BDB6AA;}
	.st65{fill:#4A423E;}
	.st66{fill:#CBC5B8;}
	.st67{fill:#EEE8D9;}
	.st68{fill:#443D39;}
	.st69{fill:#C2A673;}
	.st70{fill:#CFBE9A;}
	.st71{fill:#B1D68E;}
	.st72{fill:#E1DBCD;}
	.st73{fill:#DFDACB;}
	.st74{fill:#49413D;}
	.st75{fill:#DED9CA;}
	.st76{fill:#D9D3C6;}
	.st77{fill:#DDD7C9;}
	.st78{fill:#D8D2C4;}
	.st79{fill:#E3DDCF;}
	.st80{fill:#DCD6C8;}
	.st81{fill:#E1DCCD;}
	.st82{fill:#DAD4C6;}
	.st83{fill:#D7D1C3;}
	.st84{fill:#D4CEC0;}
	.st85{fill:#DFD9CB;}
	.st86{fill:#CEC8BB;}
	.st87{fill:#D1CBBD;}
	.st88{fill:#E3DDCE;}
	.st89{fill:#CCC6B8;}
	.st90{fill:#BEB8AC;}
	.st91{fill:#B9B2A6;}
	.st92{fill:#514944;}
	.st93{fill:#B0AA9E;}
	.st94{fill:#CDC7B9;}
	.st95{fill:#C1BAAD;}
	.st96{fill:#CFC9BB;}
	.st97{fill:#CFC8BB;}
	.st98{fill:#E4DECF;}
	.st99{fill:#BEB7AB;}
	.st100{fill:#B7B0A4;}
	.st101{fill:#D4CEC1;}
	.st102{fill:#D3CDBF;}
	.st103{fill:#DAD3C5;}
	.st104{fill:#CCC5B9;}
	.st105{fill:#C1BAAE;}
	.st106{fill:#BAB4A7;}
	.st107{fill:#DED8CA;}
	.st108{fill:#B8B1A4;}
	.st109{fill:#ECE7D8;}
	.st110{fill:#BEB8AB;}
	.st111{fill:#5F5751;}
	.st112{fill:#625B54;}
	.st113{fill:#D3CCBE;}
	.st114{fill:#E6E1D2;}
	.st115{fill:#DCD5C7;}
	.st116{fill:#DED7C8;}
	.st117{fill:#7A7169;}
	.st118{fill:#665E58;}
	.st119{fill:#605852;}
	.st120{fill:#E9E3D4;}
	.st121{fill:#DCD5C8;}
	.st122{fill:#DCD6C7;}
	.st123{fill:#F0EEDB;}
	.st124{fill:#3F3733;}
	.st125{fill:#615852;}
	.st126{fill:#7C746C;}
	.st127{fill:#F0EADB;}
	.st128{fill:#F2ECDE;}
	.st129{fill:#A8A297;}
	.st130{fill:#D6D1C3;}
	.st131{fill:#D1CABA;}
	.st132{fill:#D2CBBD;}
	.st133{fill:#4A423D;}
	.st134{fill:#58504B;}
	.st135{fill:#4B433F;}
	.st136{fill:#4E4641;}
	.st137{fill:#716961;}
	.st138{fill:#504843;}
	.st139{fill:#E7E2D2;}
	.st140{fill:#D8D2C5;}
</style>
<g>
	<path class="st0" d="M515.9,391.34c0.1,121.3-98.64,220.8-221.43,219.93C172.27,610.41,75.96,510.46,76.16,390.98
		c0.21-121.69,99.98-220.81,222.15-219.6C417.33,172.56,515.93,269.61,515.9,391.34z"/>
	<path class="st1" d="M463.01,359.07c-9.26,0-18.52,0-27.77,0c-0.46,0-0.93,0-1.39,0c-3.56-0.04-3.05,0.35-3.94-2.94
		c-1.32-4.92-2.87-9.76-4.69-14.51c-16.15-42.07-52.13-73.83-95.82-84.65c-13.36-3.31-26.9-4.65-40.61-3.9
		c-50.45,2.75-92.24,31.64-114.34,72.12c-5.23,9.58-9.27,19.65-12.06,30.21c-0.24,0.89-0.48,1.79-0.73,2.68
		c-0.18,0.63-0.64,0.94-1.27,0.96c-0.69,0.03-1.39,0.04-2.08,0.04c-19.56,0-39.11,0-58.67,0c-2.87,0-3.25,0.28-2.7-2.92
		c5.17-30.39,16.58-58.22,34.57-83.21c28.8-40.02,67.17-66.32,114.85-78.92c9.84-2.6,19.88-4.27,30.04-5.2
		c7.27-0.66,14.54-1.17,21.83-1.01c49.94,1.04,93.91,17.77,131.44,50.78c28.47,25.04,48.2,55.89,59.47,92.13
		c2.48,7.96,4.32,16.07,5.85,24.26c0.15,0.8,0.23,1.6,0.32,2.41c0.16,1.4-0.02,1.67-1.4,1.68c-4.86,0.02-9.72,0.01-14.58,0.01
		C473.89,359.07,468.45,359.07,463.01,359.07z"/>
	<path class="st1" d="M93.75,424.1c0.7-0.58,1.54-0.39,2.33-0.39c20.94-0.01,41.89-0.01,62.83-0.01c0.58,0,1.16,0.02,1.73,0.07
		c0.5,0.04,0.86,0.29,0.99,0.8c0.3,1.12,0.58,2.24,0.89,3.35c12.92,46.97,49.73,84.15,97.5,97.14c15.8,4.3,31.93,5.66,48.16,4.15
		c35.98-3.36,66.26-18.53,90.63-45.23c14.92-16.35,25.1-35.38,30.92-56.75c1.11-4.09,0.42-3.52,4.51-3.52
		c20.25-0.02,40.5-0.02,60.75,0c1.13,0,2.31-0.28,3.38,0.35c-12.73,92.99-97.17,176.14-206.68,173.64
		c-54.67-1.25-101.46-21.63-140.38-59.88C117.56,504.6,98.34,460.9,93.75,424.1z"/>
	<path class="st1" d="M501.43,359.06c-0.23,0-0.46,0.01-0.69,0c-1.89-0.05-1.91-0.05-2.26-1.84c-0.63-3.18-1.18-6.37-1.85-9.54
		c-6.97-33.15-21.29-62.76-42.97-88.75c-26.27-31.5-59.06-53.32-98.28-65.4c-11.97-3.69-24.19-6.1-36.64-7.52
		c-10.96-1.24-21.95-1.64-32.93-1.03c-44.34,2.48-83.98,17.48-118.51,45.45c-32.16,26.05-54.45,58.96-66.98,98.44
		c-2.87,9.05-4.98,18.29-6.57,27.66c-0.08,0.46-0.1,0.92-0.19,1.38c-0.12,0.62-0.5,1.02-1.15,1.1c-0.34,0.04-0.69,0.04-1.04,0.05
		c-4.69,0.03-3.88,0.17-3.24-3.61c3.31-19.63,9.2-38.47,18.08-56.29c25.23-50.64,64.32-86.09,117.24-106.15
		c14.65-5.55,29.83-9.08,45.37-11.14c14.99-1.99,30.01-1.78,45.05-1.09c57.13,5.47,104.7,29.71,142.35,73.04
		c22.02,25.34,36.75,54.57,44.75,87.17c1.16,4.71,2.02,9.5,3,14.26c0.18,0.9,0.26,1.84,0.31,2.76c0.03,0.5-0.27,0.92-0.78,0.97
		c-0.69,0.07-1.39,0.02-2.08,0.02C501.43,359.02,501.43,359.04,501.43,359.06z"/>
	<path class="st2" d="M427.62,391.34C427.46,463.73,369,523.02,295.86,522.9c-74.12-0.12-131.59-60.77-131.37-131.93
		c0.22-72.61,59.8-131.69,132.42-131.24C367.55,260.17,427.4,317.6,427.62,391.34z"/>
	<path class="st3" d="M125.63,415.71c10.28,0,20.57,0,30.85,0c0.92,0,1.87-0.04,2.76,0.15c0.58,0.12,0.86,0.79,0.82,1.39
		c-0.04,0.49-0.46,0.78-0.96,0.81c-0.81,0.05-1.62,0.06-2.42,0.06c-20.57,0-41.14,0-61.71,0c-1.03,0-2.1,0.19-3.08-0.24
		c-0.4-0.18-0.8-0.48-0.74-1.05c0.06-0.54,0.45-0.89,0.86-0.95c1.03-0.13,2.07-0.16,3.11-0.16
		C105.29,415.71,115.46,415.71,125.63,415.71z"/>
	<path class="st4" d="M466.32,418.14c-10.17,0-20.33,0-30.5,0c-0.92,0-1.85-0.01-2.77-0.04c-0.65-0.03-1.08-0.34-1.04-1.06
		c0.03-0.66,0.41-1.05,1.02-1.22c0.22-0.06,0.46-0.08,0.68-0.09c0.58-0.02,1.15-0.02,1.73-0.02c20.56,0,41.12,0,61.69,0.01
		c1.03,0,2.1-0.19,3.07,0.28c0.27,0.13,0.53,0.45,0.61,0.74c0.14,0.49-0.13,0.88-0.58,1.11c-0.87,0.44-1.81,0.28-2.72,0.29
		c-5.66,0.02-11.32,0.01-16.98,0.01C475.79,418.14,471.05,418.14,466.32,418.14z"/>
	<path class="st5" d="M142.96,398.31c-0.11,0-0.23,0-0.34,0c-2.63,0.01-2.68,0.01-2.67-2.67c0.01-2.87-0.02-5.75,0.01-8.62
		c0.02-1.94,0.16-2.06,2.23-2.07c1.15-0.01,2.31-0.05,3.44,0.12c3.25,0.5,5.05,2.54,5.31,5.82c0.35,4.38-1.88,7.01-6.26,7.36
		c-0.57,0.05-1.15,0.01-1.72,0.01C142.96,398.28,142.96,398.3,142.96,398.31z"/>
	<path class="st6" d="M463.07,391.58c0.06,1.36-0.14,2.73-0.61,4.04c-0.7,1.97-2.21,3-4.22,2.95c-1.79-0.05-3.3-1.09-3.93-2.88
		c-0.95-2.7-0.94-5.46-0.01-8.15c0.57-1.65,1.79-2.62,3.63-2.72c1.93-0.1,3.41,0.6,4.24,2.35
		C462.83,388.53,463.13,390.01,463.07,391.58z"/>
	<path class="st7" d="M486.77,394.39c-0.15,0.35-0.21,0.84-0.43,0.92c-1.08,0.39-1.17,1.27-1.34,2.21
		c-0.11,0.65-0.75,0.78-1.36,0.79c-0.63,0-1.21-0.17-1.24-0.88c-0.07-1.48-0.83-2.01-2.23-1.88c-0.69,0.06-1.38,0.03-2.07,0
		c-1.53-0.07-2.05-0.94-1.21-2.28c1.6-2.53,3.33-4.98,5-7.47c0.43-0.64,1.04-0.84,1.78-0.84c0.86-0.01,1.34,0.32,1.37,1.17
		c0.06,1.73,0.07,3.46,0.05,5.19c-0.01,0.97,0.09,1.81,1.14,2.26C486.49,393.66,486.59,394.09,486.77,394.39z"/>
	<path class="st8" d="M120.58,384.82c1.23,0.03,2.26,0.1,3.2,0.63c0.46,0.27,0.6,0.64,0.46,1.15c-0.17,0.59-0.45,1.08-1.15,1.03
		c-0.91-0.06-1.74-0.63-2.7-0.44c-0.62,0.12-1.09,0.45-1.28,1.02c-0.21,0.62,0.12,1.14,0.63,1.46c1.17,0.73,2.45,1.3,3.54,2.13
		c1.74,1.34,1.97,3.62,0.58,5.18c-0.44,0.49-1.06,0.89-1.68,1.14c-1.79,0.74-3.61,0.55-5.39-0.1c-0.8-0.29-0.86-0.99-0.79-1.71
		c0.05-0.52,0.3-0.94,0.84-0.79c1.22,0.35,2.42,0.71,3.72,0.54c0.63-0.08,1.08-0.42,1.22-1.03c0.11-0.47-0.1-0.94-0.47-1.23
		c-0.54-0.42-1.15-0.76-1.74-1.11c-0.59-0.35-1.26-0.6-1.79-1.03c-1.25-1-1.92-2.27-1.51-3.94c0.41-1.65,1.53-2.51,3.13-2.81
		C119.84,384.83,120.31,384.84,120.58,384.82z"/>
	<path class="st9" d="M469.14,395.87c2.02,0.07,3.37,0.09,4.72,0.19c0.68,0.05,0.95,0.55,0.91,1.22c-0.03,0.53-0.32,0.92-0.81,0.93
		c-2.54,0.05-5.08,0.07-7.62,0.04c-0.85-0.01-1.3-1.06-0.79-1.81c0.38-0.57,0.87-1.07,1.34-1.57c1.11-1.18,2.25-2.32,3.36-3.51
		c0.63-0.68,1.16-1.43,1.24-2.42c0.07-0.94-0.78-1.93-1.68-1.75c-0.78,0.16-1.53,0.49-2.26,0.82c-0.87,0.39-1.28-0.16-1.64-0.76
		c-0.17-0.28-0.31-0.61,0.02-0.94c1.67-1.61,4.9-2.01,6.76-0.82c1.51,0.96,2.06,2.75,1.35,4.58c-0.38,0.98-1,1.82-1.75,2.56
		c-0.49,0.49-1,0.97-1.48,1.46C470.42,394.5,470.04,394.92,469.14,395.87z"/>
	<path class="st10" d="M105.41,391.54c0-1.73-0.01-3.47,0-5.2c0.01-0.77,0.29-1.36,1.18-1.36c1.85,0,3.7-0.01,5.54,0.05
		c0.7,0.02,0.92,0.56,0.9,1.21c-0.02,0.55-0.33,0.87-0.83,0.92c-1.03,0.09-2.08,0.07-3.11,0.18c-0.7,0.08-0.85,0.67-0.85,1.29
		c0,0.7-0.03,1.48,0.89,1.6c0.91,0.12,1.85,0.06,2.76,0.17c0.51,0.06,0.71,0.5,0.71,1c0,0.5-0.18,0.96-0.67,1.07
		c-0.56,0.12-1.15,0.12-1.73,0.09c-2.13-0.1-2,0.64-1.97,2.31c0.01,0.66,0.34,1.08,1.03,1.12c1.04,0.06,2.08,0.04,3.11,0.18
		c0.5,0.06,0.66,0.57,0.66,1.07c0,0.52-0.25,0.9-0.76,0.98c-0.57,0.09-1.15,0.12-1.72,0.11c-6.1-0.12-5.06,0.94-5.17-5.03
		c-0.01-0.58,0-1.16,0-1.74C105.4,391.54,105.4,391.54,105.41,391.54z"/>
	<path class="st6" d="M446.34,396.06c1.55,0,2.92-0.02,4.29,0.01c0.55,0.01,0.73,0.46,0.77,0.95c0.05,0.64-0.15,1.2-0.86,1.22
		c-2.42,0.05-4.83,0.06-7.25,0.03c-0.86-0.01-1.38-0.97-0.96-1.74c0.27-0.49,0.64-0.94,1.02-1.36c1.02-1.09,2.1-2.14,3.12-3.23
		c0.63-0.67,1.25-1.34,1.57-2.25c0.24-0.7,0.29-1.35-0.21-1.95c-0.5-0.6-1.17-0.73-1.87-0.49c-0.65,0.22-1.24,0.62-1.89,0.83
		c-0.66,0.22-1.05-0.26-1.38-0.75c-0.45-0.64-0.08-1.07,0.41-1.42c1.6-1.17,3.42-1.35,5.27-0.92c2.05,0.48,3.1,2.49,2.55,4.56
		c-0.34,1.28-1.11,2.26-2.01,3.17c-0.49,0.49-1,0.95-1.48,1.45C447.04,394.58,446.51,394.88,446.34,396.06z"/>
	<path class="st11" d="M136.78,385.67c0.06,0.89-0.09,1.44-0.76,1.59c-0.56,0.13-1.14,0.11-1.71,0.19c-0.66,0.08-1,0.48-1,1.15
		c-0.01,1.84-0.02,3.68-0.03,5.52c-0.01,1.03,0,2.07-0.05,3.1c-0.04,0.77-0.5,1.09-1.41,1.08c-0.94,0-1.35-0.29-1.36-1.12
		c-0.04-2.64-0.04-5.29-0.05-7.93c0-1.26-0.13-1.89-1.76-1.86c-1.47,0.03-1.86-0.53-1.75-1.48c0.14-1.21,1.12-0.94,1.87-0.95
		c2.3-0.03,4.6-0.01,6.9,0.02C136.28,384.97,136.82,385.14,136.78,385.67z"/>
	<path class="st12" d="M329.45,207.83c3.3,0.79,6.34,1.44,9.34,2.25c2.01,0.54,3.88,1.44,5.55,2.74c3.57,2.79,2.79,8.15-1.05,10.12
		c-1.03,0.53-2.12,0.87-3.23,1.01c-0.11,0.86,0.47,1.07,0.95,1.38c1.07,0.7,2.03,1.52,2.76,2.59c2.18,3.19,1.45,6.91-1.79,9.05
		c-1.08,0.71-2.27,1.14-3.54,1.31c-2.19,0.31-4.39,0.38-6.56-0.07c-2.6-0.53-5.17-1.21-7.74-1.87c-1.32-0.34-1.49-0.63-1.19-1.95
		c0.91-3.93,1.85-7.86,2.8-11.79c1.05-4.38,2.11-8.75,3.18-13.12C329.04,209.05,329.2,208.62,329.45,207.83z"/>
	<path class="st12" d="M278.38,235.44c-1.57,0.41-3.16,0.72-4.8,0.51c-5.31-0.69-8.97-3.49-10.75-8.57
		c-1.28-3.68-1.53-7.44-0.49-11.26c0.63-2.3,1.74-4.28,3.47-5.9c3.86-3.62,8.5-5.21,13.7-4.44c5.01,0.74,8.3,3.81,9.93,8.6
		c1.06,3.13,1.24,6.39,0.67,9.6c-0.74,4.19-2.91,7.5-6.84,9.45c-0.82,0.59-1.33,0.25-1.69-0.55c-0.12-0.87,0.35-1.55,0.79-2.23
		c3.13-4.85,3.26-9.98,1.43-15.29c-1.46-4.23-4.23-6.58-7.92-6.68c-3.29-0.09-5.86,1.97-7.59,6.08c-2.82,6.72,0.01,15.12,6.29,18.6
		C275.68,234.38,277.91,233.3,278.38,235.44z"/>
	<path class="st13" d="M383.47,241.15c-0.16,0.18-0.23,0.39-0.22,0.63c0.47,0.62,1.02,0.28,1.55,0.12
		c5.04-1.28,10.08-2.55,15.11-3.86c0.8-0.21,1.55-0.5,2.31,0.06c0.35,0.26,0.88,0.39,0.78,0.99c-0.07,0.43-0.46,0.44-0.78,0.51
		c-4.28,0.97-8.57,1.91-12.85,2.9c-1.32,0.3-3.03,0.16-3.76,1.33c-0.65,1.06,0.31,2.44,0.58,3.66c1.14,5.19,2.41,10.36,3.63,15.54
		c0.08,0.33,0.1,0.66,0.15,1.01c-1.51-0.22-3.76-1-4.33-1.55c-0.63-0.6-0.73-1.42-0.85-2.22c-0.47-3.09-0.96-6.17-1.4-9.26
		c-0.32-2.26-0.52-4.54-1.19-6.74c-0.02-0.06-0.27-0.12-0.32-0.08c-1.73,1.59-2.58,3.78-3.85,5.69c-1.09,1.63-2.08,3.32-3.06,4.9
		c-0.42,0-0.68,0.08-0.84-0.01c-3.89-2.27-3.37-1.68-1.35-4.99c3.87-6.32,7.79-12.6,11.7-18.89c0.43-0.69,0.87-1.36,1.34-2.02
		c0.12-0.17,0.38-0.3,0.59-0.33c0.56-0.08,2.98,1.41,3.12,1.97c0.08,0.3,0.02,0.71-0.14,0.98c-0.88,1.5-1.81,2.96-2.72,4.44
		c-0.9,1.48-1.8,2.97-2.69,4.45C383.74,240.59,383.57,240.85,383.47,241.15z"/>
	<path class="st13" d="M298.53,211.56c-0.43,6.46-0.86,12.93-1.3,19.39c-0.05,0.8-0.12,1.61-0.29,2.39
		c-0.05,0.22-0.53,0.47-0.8,0.46c-0.29-0.01-0.76-0.28-0.8-0.51c-0.13-0.67-0.15-1.37-0.11-2.05c0.25-4.27,0.54-8.55,0.81-12.82
		c0.25-3.81,0.46-7.62,0.76-11.43c0.15-1.93,1.25-2.6,3.01-1.89c0.4,0.16,0.76,0.52,1.02,0.87c0.7,0.92,1.34,1.89,2,2.84
		c3.63,5.23,7.25,10.46,10.88,15.69c0.33,0.48,0.66,0.96,1.03,1.4c0.12,0.15,0.4,0.27,0.58,0.23c0.17-0.03,0.39-0.26,0.42-0.43
		c0.09-0.57,0.11-1.15,0.15-1.73c0.29-4.97,0.57-9.94,0.88-14.9c0.05-0.8-0.09-1.66,0.41-2.35c0.16-0.22,0.56-0.32,0.87-0.37
		c0.41-0.06,0.68,0.29,0.71,0.6c0.07,0.68,0.06,1.38,0.01,2.07c-0.38,6.01-0.77,12.01-1.15,18.02c-0.16,2.54-0.29,5.08-0.43,7.63
		c-0.02,0.42-0.3,0.62-0.63,0.66c-0.18,0.03-0.46-0.12-0.58-0.28c-0.57-0.73-1.11-1.48-1.64-2.24c-4.52-6.44-9.03-12.89-13.55-19.33
		c-0.51-0.73-1.08-1.41-1.63-2.11C298.93,211.43,298.73,211.49,298.53,211.56z"/>
	<path class="st13" d="M226.38,245.6c0.1,2.19-0.74,4.04-2.23,5.62c-2.36,2.51-5.26,4.12-8.61,4.89c-2.52,0.58-4.8-0.1-6.83-1.65
		c-1.3-1-2.35-2.24-3.15-3.65c-2.94-5.24-5.84-10.49-8.74-15.75c-0.55-1.01-0.42-1.29,0.6-1.93c0.1-0.06,0.19-0.13,0.29-0.19
		c2.14-1.11,2.22-1.63,3.64,0.99c2.53,4.67,5.13,9.3,7.7,13.95c0.78,1.42,1.61,2.8,2.86,3.89c1.48,1.3,3.16,1.9,5.12,1.39
		c0.78-0.2,1.57-0.39,2.3-0.72c4.94-2.24,6.49-6.23,4.03-11.07c-2.35-4.63-4.98-9.12-7.48-13.67c-0.39-0.71-0.81-1.4-1.19-2.11
		c-0.64-1.23-0.59-1.68,0.14-2.02c0.98-0.45,1.19,0.39,1.52,0.92c0.6,0.98,1.12,2.02,1.68,3.03c2.17,3.94,4.37,7.88,6.51,11.84
		C225.6,241.29,226.55,243.28,226.38,245.6z"/>
	<path class="st13" d="M405.64,259.1c-1.7-0.81-1.73-0.84-2.61,0.18c-2.11,2.45-4.2,4.92-6.27,7.41c-0.62,0.74-0.56,1.15,0.23,1.71
		c2.07,1.47,4.17,2.91,6.25,4.36c1.13,0.79,2.27,1.57,3.22,2.24c0.31,0.81-0.15,1.09-0.45,1.35c-1.15,0.99-1.26,1-2.33,0.1
		c-3.62-3.06-7.23-6.12-10.83-9.21c-1.25-1.07-1.25-1.17-0.13-2.49c5.45-6.44,10.91-12.87,16.39-19.28
		c1.13-1.32,1.32-1.35,2.52-0.33c3.97,3.34,7.92,6.72,11.88,10.08c-0.32,0.46-0.47,0.78-0.71,1.01c-1.11,1.03-1.41,1.05-2.25,0.08
		c-1.22-1.39-2.4-2.81-3.58-4.24c-1.28-1.56-2.9-2.58-4.92-3.37c-2.05,2.41-4.07,4.77-6.09,7.14c-0.46,0.53-0.4,1.01,0.08,1.5
		c0.32,0.32,0.61,0.68,0.91,1.02C407.07,259.57,406.55,259.67,405.64,259.1z"/>
	<path class="st13" d="M233.28,245.25c-0.52-0.44-0.79-1.08,0.04-1.22c1.24-0.21,2.53-0.08,3.8-0.1c1.9-0.03,3.66-0.58,5.24-1.61
		c1.76-1.15,2.83-2.76,2.63-4.94c-0.2-2.13-1.32-3.66-3.29-4.54c-1.82-0.81-3.78-1.06-5.71-1.41c-1.25-0.23-2.51-0.4-3.75-0.7
		c-0.89-0.22-1.78-0.54-2.59-0.96c-3.88-1.99-5.76-6.98-1.58-11.34c0.63-0.65,1.44-1.18,2.25-1.61c2.6-1.38,5.44-1.9,8.34-2.09
		c1.04-0.07,1.78,1.1,1.48,2.19c-0.11,0.4-0.41,0.53-0.74,0.56c-0.69,0.05-1.39,0.06-2.08,0.05c-1.75-0.03-3.46,0.26-5.16,0.61
		c-3.22,0.68-4.23,3.71-2.1,6.25c0.85,1.01,1.98,1.59,3.18,2.04c2.07,0.78,4.25,1.07,6.42,1.44c1.72,0.29,3.38,0.74,4.98,1.44
		c4.73,2.05,6.27,8.21,1.94,12.37c-2.52,2.41-5.66,3.47-9.13,3.62C236.07,244.9,234.67,245.44,233.28,245.25z"/>
	<path class="st14" d="M362.42,224.33c1.48-1.94,3.39-3.45,5.16-5.09c0.33-0.3,0.98,0.01,1.01,0.47c0.04,0.58,0.07,1.15,0.08,1.73
		c0.16,9.03,0.33,18.06,0.47,27.08c0.01,0.79,0.23,1.62-0.32,2.48c-1.28,0.16-2.33-0.67-3.45-1.16c-0.57-0.25-0.72-0.85-0.72-1.47
		c0-1.74-0.08-3.48,0.01-5.21c0.08-1.46-0.37-2.34-1.83-2.88c-2.92-1.09-5.79-2.33-8.64-3.6c-1-0.45-1.7-0.41-2.46,0.39
		c-1.36,1.42-2.79,2.77-4.17,4.18c-0.56,0.56-1.16,0.69-1.89,0.41c-0.44-0.17-0.68-0.77-0.42-1.11c0.07-0.09,0.12-0.2,0.2-0.27
		c3.97-3.71,7.69-7.67,11.9-11.13c0.61-0.33,0.93,0.03,1.2,0.51c0.23,1.02-0.27,1.84-0.95,2.44c-2.31,2.04-0.97,2.93,1.06,3.71
		c0.85,0.33,1.7,0.69,2.53,1.07c1.82,0.82,2.67,0.2,2.45-1.71c-0.36-3.22,0.99-6.59-0.85-9.67
		C362.45,225.19,362.11,224.86,362.42,224.33z"/>
	<path class="st13" d="M192.96,239.5c-1.77,0.95-3.56,1.97-5.41,2.89c-1.59,0.79-2.89,1.89-3.98,3.27
		c-0.49,0.62-0.55,1.24-0.07,1.89c1.82,2.39,3.64,4.77,5.44,7.12c1.26-0.08,1.91-0.95,2.72-1.53c1.51-1.07,2.97-2.19,4.48-3.25
		c0.27-0.19,0.73-0.11,0.88,0.25c0.11,0.28,0.17,0.77,0.01,0.94c-0.46,0.51-1.03,0.91-1.58,1.34c-1.63,1.27-3.27,2.53-4.76,3.68
		c-0.11,1.2,0.63,1.69,1.09,2.3c2.07,2.78,4.2,5.52,6.28,8.29c0.72,0.95,0.68,1.26-0.27,1.99c-0.71,0.55-1.32,1.31-2.41,1.4
		c-0.28-0.31-0.62-0.62-0.89-0.98c-5.05-6.61-10.09-13.23-15.13-19.85c-0.28-0.37-0.58-0.73-0.82-1.12
		c-0.26-0.42-0.28-0.88,0.1-1.26c0.33-0.32,0.69-0.61,1.05-0.89c3.49-2.66,6.98-5.33,10.48-7.97c1.39-1.05,1.53-1.01,2.62,0.65
		C192.92,238.83,192.89,239.1,192.96,239.5z"/>
	<path class="st15" d="M259.69,237.02c0.14,1.1-0.26,1.47-0.85,1.67c-0.43,0.15-0.89,0.25-1.34,0.33c-1.07,0.19-1.5-0.05-1.78-1.09
		c-0.44-1.67-0.82-3.35-1.24-5.03c-1.61-6.47-3.23-12.95-4.85-19.42c-0.11-0.45-0.25-0.89-0.31-1.34c-0.07-0.5,0.11-0.89,0.63-1.06
		c0.55-0.17,1.09-0.38,1.65-0.5c1.08-0.24,1.5,0,1.77,1.04c0.85,3.34,1.68,6.7,2.51,10.04c1.17,4.69,2.34,9.37,3.51,14.06
		C259.54,236.28,259.65,236.85,259.69,237.02z"/>
	<path class="st16" d="M405.64,259.1c0.57-0.02,1.07-0.17,1.32-0.75c1.83,1.01,3.25,2.54,4.84,3.86c0.45,0.37,0.78,0.85,0.19,1.43
		c-0.6,0.59-1.06,0.18-1.48-0.18C408.88,262.03,407.05,260.8,405.64,259.1z"/>
	<path class="st17" d="M278.38,235.44c-0.55-0.71-1.34-0.57-2.08-0.59c-0.76-0.02-1.53,0.02-2.05-0.68c2.4-1.16,4.89-1.88,7.59-1.52
		c0.25,0.67,0.86,0.71,1.44,0.79C281.89,234.7,280.21,235.25,278.38,235.44z"/>
	<path class="st18" d="M358.39,230.19c-0.34-0.35-0.69-0.69-1.03-1.04c1.48-1.83,3.14-3.46,5.06-4.82c0.32,0.29,0.65,0.59,0.97,0.88
		C362.59,227.74,360.94,229.42,358.39,230.19z"/>
	<path class="st0" d="M233.28,245.25c1.41-1.02,2.8-1.06,4.18,0.06c-1.09,0.64-2.3,0.55-3.49,0.49
		C233.73,245.79,233.51,245.44,233.28,245.25z"/>
	<path class="st19" d="M384.8,241.9c-0.39,0.5-0.93,0.68-1.51,0.53c-0.42-0.11-0.49-0.4-0.04-0.64
		C383.76,241.82,384.28,241.86,384.8,241.9z"/>
	<path class="st19" d="M383.47,241.15c-0.05-0.41,0.16-0.63,0.52-0.76C384.03,240.78,383.86,241.04,383.47,241.15z"/>
	<path class="st0" d="M125.5,435.93c7.52,0,15.05,0,22.57,0c0.81,0,1.62,0.01,2.43,0.02c0.92,0,1.44,0.42,1.74,1.34
		c1.35,4.18,2.85,8.31,4.55,12.37c18.12,43.38,55.38,75.89,100.77,87.83c11.79,3.1,23.78,4.88,36.02,4.69
		c3.93-0.06,7.88,0.07,11.8-0.15c20.01-1.09,39.07-6.04,56.95-15.03c37.44-18.83,63.05-48.14,76.84-87.75
		c0.15-0.44,0.28-0.88,0.43-1.32c0.69-1.92,0.69-1.97,2.69-1.98c6.02-0.03,12.04-0.01,18.06-0.01c9.61,0,19.21,0,28.82,0
		c0.58,0,1.16-0.01,1.74,0c2.23,0.05,2.45,0.29,1.95,2.41c-2.77,11.73-6.47,23.16-11.25,34.23
		c-24.58,56.99-74.17,99.78-134.1,115.65c-11.65,3.08-23.5,5.04-35.53,6c-9.25,0.73-18.51,0.85-27.75,0.3
		c-25.8-1.52-50.44-7.76-73.85-18.75c-48.5-22.77-86.37-64.4-104.48-114.86c-2.54-7.08-4.65-14.29-6.43-21.6
		c-0.16-0.67-0.29-1.36-0.4-2.05c-0.14-0.91,0.15-1.27,1.09-1.31c0.92-0.04,1.85-0.02,2.78-0.02
		C110.45,435.93,117.98,435.93,125.5,435.93z"/>
	<path class="st0" d="M166.77,391.12c0.38-71.68,58.3-129.21,129.48-129.06c72.8,0.15,129.16,59.75,129.02,129.47
		c-0.14,71.08-58.29,129.15-129.43,129.08C226.38,520.54,166.97,464.22,166.77,391.12z"/>
	<path class="st20" d="M142.79,391.57c0-0.69,0.02-1.38,0-2.07c-0.08-2.18,0.4-2.6,2.71-2c1.37,0.36,2.18,1.29,2.36,2.66
		c0.12,0.9,0.12,1.84,0.03,2.74c-0.15,1.53-1.06,2.56-2.53,2.92c-2.16,0.54-2.61,0.14-2.56-1.84
		C142.81,393.18,142.79,392.37,142.79,391.57z"/>
	<path class="st21" d="M456.47,390.62c0.05-0.28,0.19-1.3,0.45-2.28c0.18-0.69,0.67-1.22,1.46-1.2c0.78,0.02,1.22,0.56,1.43,1.25
		c0.7,2.24,0.72,4.48-0.06,6.71c-0.25,0.73-0.81,1.09-1.58,1c-0.61-0.07-1.04-0.44-1.23-1.03
		C456.54,393.88,456.38,392.64,456.47,390.62z"/>
	<path class="st22" d="M479.55,393c0.57-1.38,1.27-2.59,2.41-3.53c0.68,0.6,0.41,1.19,0.4,1.7
		C482.32,393.47,482.28,393.48,479.55,393z"/>
	<path class="st23" d="M340.2,230.73c-0.12,2.11-0.82,3.88-2.69,4.96c-3.25,1.86-6.45,1.02-9.58-0.38c-0.56-0.25-0.5-0.95-0.35-1.55
		c0.78-3.24,1.54-6.49,2.31-9.73c0.16-0.67,0.6-1,1.25-0.83c2,0.5,4.07,0.84,5.78,2.13C338.74,226.7,339.97,228.42,340.2,230.73z"/>
	<path class="st23" d="M335.33,211.16c0.61,0.07,1.42,0.08,2.21,0.26c2.83,0.63,4.97,3.41,4.7,6.02c-0.33,3.13-2.99,5.48-6.17,5.34
		c-1.14-0.05-2.28-0.32-3.41-0.57c-2.5-0.57-2.18-0.96-1.69-2.8c0.59-2.23,1.14-4.47,1.58-6.73c0.24-1.19,0.72-1.52,1.89-1.52
		C334.66,211.16,334.9,211.16,335.33,211.16z"/>
	<path class="st1" d="M281.84,232.65c-2.36,1.34-4.93,1.66-7.59,1.52c-3.76-1.24-5.74-4.13-6.84-7.69
		c-1.21-3.93-1.53-7.92-0.11-11.89c0.59-1.65,1.48-3.12,2.73-4.36c3.37-3.39,8.71-3.34,11.97,0.18c0.77,0.83,1.45,1.82,1.92,2.85
		c2.08,4.56,2.61,9.27,1.13,14.15C284.43,229.45,283.32,231.15,281.84,232.65z"/>
	<path class="st24" d="M358.39,230.19c1.88-1.45,3.57-3.09,5-4.99c0.46-0.1,1.07-0.82,1.3,0.18c0.15,0.66,0.1,1.38,0.09,2.07
		c-0.02,3-0.04,6-0.11,9c-0.02,0.76,0.23,1.6-0.57,2.46c-3.23-1.2-6.45-2.62-9.86-4.14C355.79,233.08,357.09,231.64,358.39,230.19z"
		/>
	<path class="st9" d="M298.07,568.08c-1.46,0.66-2.98,0.23-4.44,0.34c-1.18,0.1-1.49,0.3-1.54,1.38c-0.08,1.85-0.12,3.7-0.13,5.55
		c0,0.87,0.41,1.26,1.31,1.18c1.61-0.13,3.22-0.35,4.83-0.48c0.68-0.05,1.37,0.02,2.05,0.1c0.12,0.01,0.27,0.32,0.29,0.51
		c0.02,0.21-0.04,0.51-0.19,0.63c-0.25,0.2-0.6,0.42-0.9,0.42c-3-0.03-6.01-0.09-9.01-0.17c-0.66-0.02-1.01-0.45-1.04-1.12
		c-0.01-0.35-0.04-0.69-0.03-1.04c0.04-4.86,0.08-9.72,0.15-14.58c0.02-1.49,0.21-1.71,1.52-1.71c2.89,0,5.78,0.07,8.67,0.13
		c0.49,0.01,0.91,0.24,0.81,0.83c-0.09,0.54-0.55,0.72-1.02,0.69c-0.81-0.06-1.61-0.18-2.41-0.31c-0.57-0.09-1.13-0.28-1.7-0.33
		c-2.47-0.22-3.09,0.35-3.15,2.79c0,0.12,0,0.23,0,0.35c0.05,4.53-0.56,4.15,3.99,4.22C296.78,567.49,297.52,567.29,298.07,568.08z"
		/>
	<path class="st6" d="M245.62,556.47c-0.02-1.42,0.56-2.71,0.93-4.03c0.26-0.95,1.6-1.17,2.18-0.36c0.47,0.64,0.82,1.38,1.13,2.12
		c1.49,3.5,2.96,7.02,4.44,10.53c0.27,0.64,0.46,1.34,0.88,1.86c0.35,0.43,0.82,0.09,1.1-0.33c0.64-0.07,1.06,0.04,0.68,0.81
		c-0.21,2.05-0.67,4.03-1.71,5.92c-1.04-1.04-1.32-2.32-1.82-3.47c-1.9-4.34-3.73-8.71-5.63-13.05c-0.38-0.87-0.88-0.34-1.31,0.04
		C246.18,556.74,245.89,556.73,245.62,556.47z"/>
	<path class="st25" d="M192.17,544.09c-1.88-0.49-3.22-1.72-4.33-3.23c-1.18-1.6-1.44-3.37-0.65-5.22c0.31-0.74,0.64-1.5,1.1-2.14
		c2.15-2.99,4.35-5.94,6.53-8.91c0.27-0.37,0.61-0.78,1.11-0.62c0.66,0.21,1.24,0.6,1.54,1.28c0.23,0.53-0.2,0.87-0.45,1.21
		c-1.89,2.61-3.82,5.19-5.72,7.79c-0.54,0.74-1.11,1.48-1.52,2.3c-1.03,2.03-0.73,3.77,0.92,5.3c0.67,0.62,1.5,1.06,2.25,1.58
		C193.04,544.08,192.89,544.43,192.17,544.09z"/>
	<path class="st26" d="M313.24,560.13c-0.2,1.98,0.75,3.33,2.4,4.22c1.11,0.6,2.27,1.13,3.43,1.64c1.06,0.47,2.1,0.94,3,1.7
		c2.36,2,2.48,5.15,0.25,7.26c-0.59,0.55-1.23,1.05-2.1,1.1c-0.78,0.26-0.96-0.1-0.82-0.79c0.44-0.52,1.02-0.98,1.3-1.57
		c0.75-1.6,0.36-3.27-1.07-4.26c-1.02-0.71-2.21-1.18-3.33-1.74c-1.02-0.51-2.1-0.91-3.07-1.5c-1.22-0.73-2.06-1.81-2.22-3.29
		c-0.15-1.44,0.13-2.73,1.38-3.65C313.11,559.1,313.42,559.38,313.24,560.13z"/>
	<path class="st6" d="M212.59,535.58c0.2-0.06,0.38-0.03,0.54,0.11c0.17,0.18,0.22,0.35,0.16,0.53c-0.06,0.17-0.12,0.26-0.18,0.26
		c-1.11-0.2-2.05,0.07-2.7,1.03c-0.61,0.9-0.86,1.91-0.44,2.94c0.51,1.27,1.1,2.51,1.7,3.74c0.59,1.23,1.34,2.38,1.64,3.76
		c0.67,3.11-0.9,5.49-4.04,5.9c-0.55,0.07-1.12-0.09-1.69-0.14c-0.41-0.43-0.42-0.86,0.01-1.29c1.25-0.41,2.34-1.04,2.74-2.39
		c0.39-1.28,0.1-2.51-0.53-3.66c-0.49-0.91-1.03-1.8-1.5-2.72c-0.42-0.82-0.83-1.64-1.14-2.51c-0.4-1.12-0.37-2.26,0.2-3.35
		c0.61-1.17,1.42-2.1,2.85-2.21C211.01,535.23,211.8,535.24,212.59,535.58z"/>
	<path class="st25" d="M234.67,546.84c6.18,1.05,9.04,5.75,6.92,11.51c-1.19,3.23-3,5.94-6.73,6.65c-0.68,0.23-1.37,0.21-2.07,0.12
		c-0.29-0.21-0.44-0.49-0.42-0.85c1.63-2.17,4.04-3.65,5.15-6.3c1.75-4.19,1.29-6.34-2.31-9.19c-0.37-0.29-0.68-0.61-0.84-1.05
		C234.33,547.39,234.43,547.09,234.67,546.84z"/>
	<path class="st27" d="M363.78,554.3c-0.54,0.31-1,0.77-0.75,1.38c0.83,2.01,1.71,4.01,2.67,5.96c0.33,0.67,1.01,0.26,1.55,0.15
		c0.3,0.29,0.32,0.61,0.06,0.94c-3.87,2.06-3.3,2.13-5.03-1.76c-1.83-4.12-3.64-8.24-5.48-12.35c-0.36-0.8-0.18-1.34,0.57-1.69
		c0.73-0.34,1.5-0.6,2.25-0.89c0.75-0.23,0.94,0.1,0.78,0.78c-0.37,0.42-0.9,0.85-0.65,1.45c0.73,1.76,1.52,3.5,2.36,5.21
		c0.08,0.17,0.62,0.13,0.95,0.18C363.79,553.31,363.89,553.7,363.78,554.3z"/>
	<path class="st9" d="M414.46,528.07c-1.36-1.67-3.2-1.6-5.06-1.32c-1.02,0.15-2.01,0.5-3.03,0.62c-1.02,0.12-2.07,0.19-3.08,0.07
		c-2.02-0.25-3.3-1.58-3.53-3.62c-0.07-0.66,0.12-1.35,0.2-2.03c1.34-0.43,0.77,1.09,1.41,1.38c0.97,1.14,2.21,1.66,3.69,1.51
		c1.26-0.13,2.53-0.26,3.77-0.51c1.26-0.25,2.51-0.42,3.79-0.32c3.06,0.26,4.95,2.87,4.24,5.86c-0.16,0.67-0.3,1.37-0.89,1.84
		C413.75,531.15,415.76,528.88,414.46,528.07z"/>
	<path class="st28" d="M330.51,557.21c0.29-0.74,0.59-1.48,0.88-2.23c0.26,0.11,0.51,0.13,0.62,0.26
		c3.72,5.01,7.43,10.03,11.13,15.06c0.55,0.75,0.28,1.23-0.64,1.43c-0.99,0.22-1.81,0.12-2.39-0.85c-0.42-0.69-1-1.29-1.38-2
		c-0.6-1.12-1.55-1.27-2.64-1.18c-0.22-0.23-0.37-0.5-0.45-0.82c-1.02-2.64-2.13-5.2-4.87-6.55c-0.3-0.16-0.49-0.4-0.57-0.73
		C330.25,558.8,329.94,557.94,330.51,557.21z"/>
	<path class="st28" d="M188.82,519c-0.67-0.14-1.37-0.43-1.91,0.24c-1.2,1.52-2.84,2.7-3.6,4.56c0.17,0.7-0.09,0.98-0.81,0.8
		c-1.38,0.71-2.12,2.07-3.15,3.13c-0.88,0.91-1.68,1.9-2.57,2.8c-0.67,0.67-1.22,0.18-1.77-0.29c-0.51-0.44-0.68-0.92-0.25-1.48
		c0.35-0.46,0.74-0.88,1.13-1.31c3.45-3.86,6.9-7.72,10.4-11.64c1.43,0.46,2.3,1.52,3.2,2.53
		C189.67,518.97,189.54,519.29,188.82,519z"/>
	<path class="st28" d="M383.28,555.1c-3.24,1.03-5.04,0.55-7.02-1.87c-0.15-0.18-0.3-0.35-0.42-0.55c-1.67-2.89-3.35-5.78-5.01-8.69
		c-0.45-0.78-0.81-1.61-1.22-2.42c0.36-0.3,0.59-0.57,0.89-0.73c1.13-0.61,1.47-0.57,2,0.31c0.89,1.48,1.72,3,2.58,4.5
		c0.91,1.6,1.83,3.2,2.74,4.81c0.81,1.43,1.82,2.67,3.37,3.35C381.66,554.61,383.45,553.29,383.28,555.1z"/>
	<path class="st28" d="M393.06,539.83c1.58,1.53,2.65,3.45,3.94,5.2c0.59,0.8,0.38,1.32-0.57,1.95c-0.55,0.37-1.06,0.43-1.49-0.15
		c-0.96-1.3-1.91-2.6-2.85-3.91c-2.42-3.36-4.84-6.72-7.17-9.95c0.21-1.26,1.41-1.39,1.83-2.2c0.28-0.18,0.47-0.48,0.8-0.61
		l-0.05,0.04c0.21-0.28,0.48-0.41,0.82-0.39c0.53,0.13,0.81,0.49,0.95,1c-0.16,2.66,1.81,4.36,2.92,6.45
		C392.81,538,392.35,539.11,393.06,539.83z"/>
	<path class="st29" d="M280.61,559.22c4.18,1.38,6.59,6.75,4.57,11.93c-1.14,2.92-3.39,4.6-6.55,4.96
		c-0.87,0.13-1.79,0.58-2.43-0.47c0.05-0.64,0.5-0.98,0.97-1.32c5.19-3.77,5.92-7.11,2.79-12.79c-0.28-0.51-0.51-1.02-0.48-1.62
		C279.65,559.36,279.92,558.94,280.61,559.22z"/>
	<path class="st28" d="M269.29,571.64c0.16-4.38,0.87-8.71,1.41-13.05c0.15-1.21,0.42-1.44,1.54-1.31c1.6,0.18,3.19,0.46,4.78,0.7
		c0.21,0.38,0.15,0.71-0.18,0.99c-2.22,1.04-2.78,2.9-3.15,5.21c-0.59,3.66,0.03,7.57-1.99,10.97
		C267.48,576.33,269.39,573.3,269.29,571.64z"/>
	<path class="st30" d="M225.01,542.77c-0.13,0.38-0.21,0.72-0.36,1.02c-2.33,4.63-4.66,9.26-7,13.88c-0.25,0.5-0.48,1.04-1.21,1.03
		c-1.03-0.02-1.73-0.95-1.29-1.83c2.42-4.84,4.85-9.67,7.31-14.5c0.47-0.92,1.11-1.01,1.96-0.36
		C224.66,542.2,224.81,542.51,225.01,542.77z"/>
	<path class="st28" d="M234.67,546.84c-0.01,0.25-0.02,0.5-0.03,0.75c-0.2,0.42-0.45,0.83-0.89,1c-6.13,2.25-7.58,7-6.87,12.89
		c0.03,0.22-0.05,0.45-0.11,0.67c-0.25,0.5-0.56,0.9-1.21,0.66c-2.51-2.21-3.14-4.96-2.27-8.11c0.21-0.77,0.47-1.54,0.81-2.27
		C226.23,547.75,229.43,546.07,234.67,546.84z"/>
	<path class="st31" d="M352.6,567.73c-4.29-4.67-8.59-9.34-12.77-13.89c0.17-1,0.86-0.94,1.31-1.19c0.55-0.3,1.11-0.26,1.59,0.19
		c0.17,0.16,0.33,0.32,0.48,0.5c2.98,3.53,5.95,7.06,8.93,10.6C353.73,565.02,355.04,566.15,352.6,567.73z"/>
	<path class="st31" d="M393.06,539.83c-0.84-0.44-1.01-1.33-1.43-2.06c0.88-1.17,2-1.99,3.43-2.37c0.75-0.09,1.06,0.58,1.57,0.92
		c3.13,0.77,6.26,1.53,9.38,2.32c0.87,0.22,0.92,0.83,0.27,1.53c-0.8,0.85-1.58,1.09-2.76,0.62c-2.35-0.93-4.78-1.66-7.18-2.47
		c-0.54-0.18-1.09-0.45-1.64-0.48c-0.41-0.02-0.87,0.22-1.24,0.45C392.82,538.64,393.01,539.27,393.06,539.83z"/>
	<path class="st32" d="M396.62,536.32c-0.46-0.21-0.92-0.43-1.37-0.64c-0.38-0.34-0.39-0.79-0.42-1.26
		c-0.23-3.84-0.82-4.29-4.69-3.57c-0.46,0.08-0.89,0.21-1.31-0.11c-0.2-0.2-0.4-0.41-0.59-0.61c-0.21-0.22-0.25-0.38-0.12-0.49
		c0.1-0.08,0.2-0.13,0.32-0.13c0.21,0.01,0.35-0.07,0.43-0.27c0.26-0.13,0.49-0.31,0.69-0.53l-0.01,0c0.27-0.28,0.54-0.54,0.95-0.6
		c1.21-0.26,2.32-0.89,3.62-0.86c3.05,0.09,4.88,2.77,3.96,5.69C397.71,534.15,396.45,534.92,396.62,536.32z"/>
	<path class="st33" d="M192.17,544.09c0.26-0.22,0.52-0.43,0.78-0.65c2.73,0.53,4.64-0.63,6.19-2.81c1.87-2.64,3.87-5.18,5.81-7.76
		c0.16-0.24,0.34-0.48,0.54-0.69l0,0.01c0.7-0.13,1.08,0.04,0.78,0.84c-0.3,0.42-0.59,0.85-0.89,1.27
		c-0.17,0.25-0.35,0.49-0.56,0.71c-1.68,2.72-3.63,5.25-5.66,7.71c-0.89,1.07-2.01,1.9-3.45,2.06
		C194.48,544.92,193.19,545.1,192.17,544.09z"/>
	<path class="st34" d="M386.73,551.61c1.24-2.07,0.97-4.08-0.15-6.1c-0.66-1.18-1.25-2.39-1.88-3.59c0.24-0.32,0.31-0.78,0.78-0.89
		c1.29,1.62,2.31,3.42,3.03,5.34c0.8,2.14,0.88,4.26-1.04,5.98c0,0-0.28-0.07-0.28-0.06c-0.17-0.09-0.31-0.23-0.41-0.39
		C386.78,551.9,386.73,551.61,386.73,551.61z"/>
	<path class="st35" d="M333.39,568.38c-0.56,0.46-1.25,0.63-1.94,0.66c-1.47,0.07-1.89,1.02-2.16,2.26c-0.23,1.08,0.18,2.36-0.9,3.2
		c-0.45-0.32-0.22-0.97-0.65-1.3c0.08-2.85,0.9-5.57,1.48-8.33c0.28-0.19,0.55-0.17,0.81,0.05c0.27,0.36,0.42,0.78,0.55,1.2
		c0.31,0.99,1.25,0.93,1.99,1.2C333.01,567.56,333.29,567.9,333.39,568.38z"/>
	<path class="st36" d="M313.24,560.13c-0.29-0.29-0.57-0.59-0.86-0.88c0.97-1.57,2.66-1.66,4.2-1.89c1.34-0.2,2.76-0.25,4.01,0.49
		c0.27,0.16,0.44,0.48,0.36,0.88c-0.08,0.4-0.35,0.66-0.65,0.63c-1.13-0.11-2.27-0.28-3.39-0.48
		C315.43,558.61,314.19,558.94,313.24,560.13z"/>
	<path class="st37" d="M269.29,571.64c0.04,0.76,0.09,1.52,0.13,2.28c0.03,0.58,0.2,1.09,0.84,1.23c0.61,0.13,1.02-0.22,1.33-0.72
		c1.71-0.3,3.38-0.38,4.78,0.92c0.59,0.76,1.52,0.46,2.27,0.76c-0.9,0.67-1.96,0.54-2.96,0.46c-1.92-0.15-3.84-0.41-5.75-0.64
		c-0.77-0.09-1.26-0.49-1.22-1.32C268.75,573.6,268.7,572.55,269.29,571.64z"/>
	<path class="st38" d="M367.31,562.72c-0.02-0.31-0.04-0.62-0.06-0.94c1.58-1.38,3.52-2.16,5.32-3.19c0.44-0.25,0.9-0.12,1.12,0.4
		c0.2,0.48,0.11,0.93-0.37,1.17C371.38,561.15,369.45,562.19,367.31,562.72z"/>
	<path class="st39" d="M214.67,536.29c1.55,0.55,2.66,1.66,3.63,2.92c0.34,0.44,0.02,0.9-0.31,1.17c-0.21,0.17-0.61,0.16-0.91,0.12
		c-0.19-0.03-0.35-0.27-0.5-0.43c-0.92-0.99-1.84-1.99-2.75-2.98C213.67,536.35,213.88,536,214.67,536.29z"/>
	<path class="st40" d="M352.6,567.73c1-1.43,1.03-1.71,0.29-2.78c-0.24-0.35-0.5-0.68-0.75-1.02c0.61-0.29,0.67-0.84,0.73-1.43
		c0.17-1.58-0.16-3.22,0.46-4.75c1.04,1.29-0.06,2.94,0.71,4.28c0.24,1.95,0.21,3.91-0.21,5.82
		C353.68,568.51,352.97,568.39,352.6,567.73z"/>
	<path class="st41" d="M256.98,563.49c0.4-2.62,1.18-5.15,2.04-7.65c1.39-0.02,0.92,0.82,0.72,1.54c-0.39,2.42-1.02,4.76-2,7.01
		C257.27,564.28,257.22,563.8,256.98,563.49z"/>
	<path class="st31" d="M354.04,562.03c-0.55-0.54-0.48-1.23-0.52-1.91c-0.05-0.79-0.13-1.58-0.2-2.37
		c-0.02-2.93-0.13-5.87,0.26-8.79c1.8,2.2,0.63,4.68,0.67,7.05C354.18,558.02,354.11,560.02,354.04,562.03z"/>
	<path class="st42" d="M188.82,519c0.23-0.22,0.45-0.44,0.68-0.66c1.77,1.08,3.18,2.58,4.65,4c0.37,0.36,0.33,0.82-0.03,1.2
		c-0.38,0.39-0.83,0.4-1.18,0.02C191.55,522.06,190.19,520.53,188.82,519z"/>
	<path class="st43" d="M319.39,575.26c0.27,0.26,0.55,0.53,0.82,0.79c-2.4,1.21-4.86,0.88-7.32,0.26c-0.15-0.04-0.32-0.37-0.31-0.55
		c0.01-0.16,0.23-0.42,0.39-0.45c0.33-0.06,0.71-0.06,1.02,0.05C315.81,576.03,317.6,575.75,319.39,575.26z"/>
	<path class="st44" d="M383.28,555.1c-0.38-0.92-1.63-0.47-2.07-1.3c2.16,0.07,3.91-0.87,5.52-2.19l0.24,0.24
		c0.09,0.09,0.18,0.19,0.27,0.28l0.23,0.22C386.41,553.78,385.06,554.77,383.28,555.1z"/>
	<path class="st45" d="M402.71,518.24c0.77-0.85,1.8-1.31,2.81-1.76c0.49-0.22,1.17,0.18,1.29,0.71c0.11,0.52-0.14,0.85-0.6,1.03
		c-0.83,0.32-1.67,0.63-2.5,0.94C402.88,519.38,402.61,519.01,402.71,518.24z"/>
	<path class="st46" d="M385.48,541.03c-0.26,0.3-0.52,0.59-0.78,0.89c-0.93-1.21-1.68-2.52-2.23-3.94c-0.34-0.85,0.1-1.01,0.82-0.92
		C384.18,538.3,384.97,539.58,385.48,541.03z"/>
	<path class="st47" d="M182.51,524.61c0.27-0.27,0.54-0.54,0.81-0.8c1.36,1.05,2.7,2.13,3.78,3.49c0.08,0.11,0.03,0.45-0.08,0.55
		c-0.15,0.13-0.51,0.24-0.61,0.16C185.09,526.89,183.8,525.74,182.51,524.61z"/>
	<path class="st48" d="M362.46,544.71c0.92-0.44,1.83-0.9,2.76-1.3c0.51-0.22,1.09-0.4,1.48,0.25c0.29,0.48-0.16,1.16-1.04,1.42
		c-0.76,0.22-1.54,0.33-2.32,0.49C362.56,545.79,362.33,545.43,362.46,544.71z"/>
	<path class="st49" d="M414.46,528.07c0.7,0.36,0.83,1,0.86,1.7c0.03,0.67-0.05,1.37,0.67,1.77c-0.5,1.34-1.54,2.15-2.75,2.78
		c-0.73,0.41-0.8-0.02-0.75-0.6C414.37,532.26,415.27,530.46,414.46,528.07z"/>
	<path class="st50" d="M402.71,518.24c0.33,0.3,0.66,0.61,0.99,0.91c-0.25,0.22-0.47,0.51-0.76,0.64c-1.5,0.68-1.82,1.88-1.56,3.36
		c-0.47-0.46-0.94-0.92-1.41-1.38C400.15,520.03,401.29,519.03,402.71,518.24z"/>
	<path class="st51" d="M363.78,554.3c-0.24-0.22-0.49-0.44-0.73-0.66c1.12-1.04,2.59-1.39,3.93-1.96c0.23-0.1,0.61,0.13,0.92,0.21
		c-0.11,0.29-0.15,0.74-0.36,0.85C366.34,553.37,365.15,554.06,363.78,554.3z"/>
	<path class="st40" d="M354.25,556.01c-0.05-1.6-0.1-3.2-0.15-4.79c-0.02-0.79,0.15-1.62-0.52-2.26c0.09-0.34,0.29-0.62,0.66-0.59
		c0.18,0.01,0.48,0.23,0.49,0.36C354.8,551.17,355.01,553.63,354.25,556.01z"/>
	<path class="st52" d="M204.14,552.27c-1.43-0.55-2.35-1.69-3.28-2.83c-0.24-0.29-0.21-0.65,0.01-0.93
		c0.26-0.34,0.63-0.21,0.86,0.01c1.04,1.03,2.05,2.09,3.07,3.13C204.66,551.96,204.45,552.16,204.14,552.27z"/>
	<path class="st53" d="M245.77,559.29c-0.09,1.55-0.46,3.03-1.24,4.39c-0.46-0.12-0.51-0.58-0.75-0.89c0.14-1.51,0.5-2.96,1.24-4.3
		C245.47,558.57,245.55,559,245.77,559.29z"/>
	<path class="st54" d="M412.5,533.73c0.25,0.2,0.5,0.4,0.75,0.6c-0.84,0.98-2.01,1.4-3.15,1.86c-0.3,0.12-0.71,0.07-0.88-0.28
		c-0.25-0.5-0.01-0.8,0.49-0.99C410.65,534.54,411.57,534.13,412.5,533.73z"/>
	<path class="st55" d="M232.63,564.29c0.04,0.17,0.05,0.35,0.04,0.52c-0.34,0.55-1.03,0.25-1.45,0.61c-1.32-0.08-2.59-0.3-3.65-1.17
		c0.16-0.57,0.53-0.93,1.09-1.1C230.09,563.16,231.57,563,232.63,564.29z"/>
	<path class="st56" d="M383.29,537.06c-0.27,0.31-0.54,0.61-0.82,0.92c-0.72-0.76-1.27-1.62-1.5-2.64
		c-0.04-0.17,0.14-0.46,0.31-0.57c0.14-0.1,0.47-0.11,0.61-0.01C382.66,535.33,383,536.18,383.29,537.06z"/>
	<path class="st57" d="M277.02,558.68c0-0.23,0-0.46-0.01-0.7c1.38-0.12,2.55,0.39,3.6,1.24c-0.27,0.26-0.54,0.53-0.81,0.79
		C278.52,560.3,277.37,560.32,277.02,558.68z"/>
	<path class="st58" d="M204.14,552.27c0.22-0.2,0.44-0.41,0.65-0.61c0.93,0.25,1.87,0.51,2.8,0.76c0,0.43,0,0.86-0.01,1.29
		C206.18,553.83,205.16,553.06,204.14,552.27z"/>
	<path class="st59" d="M362.46,544.71c0.29,0.28,0.59,0.57,0.88,0.85c-0.98,0.42-1.97,0.83-2.95,1.25
		c-0.26-0.26-0.52-0.52-0.78-0.78C360.39,545.21,361.37,544.85,362.46,544.71z"/>
	<path class="st60" d="M244.38,564.16c0.13,1.23-0.51,2.28-0.8,3.42c-1.33,0.01-0.83-0.83-0.7-1.5c0.08-0.7,0.03-1.44,0.62-1.98
		C243.83,563.75,244.12,563.78,244.38,564.16z"/>
	<path class="st37" d="M242.89,566.07c0.17,0.53,0.16,1.15,0.7,1.5c0.12,0.61-0.07,1.14-0.46,1.58c-0.12,0.14-0.39,0.26-0.56,0.22
		c-0.18-0.04-0.46-0.27-0.46-0.42C242.1,567.93,242.14,566.9,242.89,566.07z"/>
	<path class="st61" d="M333.39,568.38c-0.26-0.21-0.52-0.42-0.79-0.62c0.93-1.35,2.02-1.89,3.47-0.73c0.01,0.23,0.01,0.45,0.01,0.68
		C335.31,568.44,334.34,568.36,333.39,568.38z"/>
	<path class="st62" d="M228.4,563.56c-0.28,0.23-0.55,0.46-0.83,0.69c-0.86-0.22-1.59-0.61-2-1.44c0.3-0.31,0.59-0.62,0.89-0.93
		C227.58,561.89,228.22,562.46,228.4,563.56z"/>
	<path class="st63" d="M245.77,559.29c-0.25-0.27-0.5-0.53-0.74-0.8c0.02-0.73-0.01-1.47,0.59-2.02c0.29,0.01,0.58,0.03,0.86,0.04
		C246.59,557.53,246.23,558.42,245.77,559.29z"/>
	<path class="st50" d="M329.97,566.46c-0.05-0.53-0.11-1.05-0.16-1.58c-0.46-0.59-0.22-1.21-0.06-1.82
		c-0.18-0.58-0.06-1.13,0.15-1.67c0.75-0.11,1.01,0.41,1.26,0.97C331.35,563.9,331.86,565.53,329.97,566.46z"/>
	<path class="st30" d="M256.98,563.49c0.25,0.3,0.51,0.61,0.76,0.91c-0.11,0.94-0.08,1.92-0.79,2.68c-0.23-0.27-0.45-0.54-0.68-0.81
		C256.15,565.24,256.67,564.39,256.98,563.49z"/>
	<path class="st64" d="M231.22,565.42c0.36-0.51,0.9-0.56,1.45-0.61c0.73,0.06,1.45,0.12,2.18,0.19
		C233.72,565.81,232.47,565.6,231.22,565.42z"/>
	<path class="st50" d="M330.69,562.4c-0.27-0.34-0.53-0.67-0.8-1.01c-0.01-0.44-0.02-0.89-0.03-1.33c0.11-0.34,0.28-0.39,0.52-0.11
		c0.25,0,0.5,0,0.75,0.01C331.94,560.95,331.85,561.77,330.69,562.4z"/>
	<path class="st65" d="M330.37,559.96c-0.18-0.01-0.36,0.03-0.52,0.11c-0.01-1-0.35-2.08,0.66-2.86
		C330.46,558.12,330.42,559.04,330.37,559.96z"/>
	<path class="st66" d="M259.75,557.38c-0.11-0.58-0.11-1.2-0.72-1.54c0.08-0.48,0.25-0.89,0.85-0.75c0.35,0.08,0.58,0.36,0.46,0.74
		C260.17,556.35,259.95,556.86,259.75,557.38z"/>
	<path class="st66" d="M206.26,533.03c-0.26-0.28-0.52-0.56-0.78-0.84c0.17-0.52,0.64-0.79,1.02-0.51
		C207.12,532.14,206.75,532.64,206.26,533.03z"/>
	<path class="st44" d="M214.67,536.29c-0.28,0.26-0.57,0.53-0.85,0.79c-0.36-0.06-0.64-0.2-0.7-0.6c0-0.26,0.01-0.53,0.01-0.79
		C213.78,535.56,214.27,535.82,214.67,536.29z"/>
	<path class="st44" d="M212.59,535.58c-0.79,0-1.58,0-2.37,0.01C211.01,534.96,211.8,534.86,212.59,535.58z"/>
	<path class="st67" d="M327.76,573.19c0.54,0.27,0.61,0.78,0.65,1.3c-0.37,0.45-0.75,0.31-0.85-0.14
		C327.47,574.01,327.68,573.59,327.76,573.19z"/>
	<path class="st50" d="M329.74,563.06c0.02,0.61,0.04,1.21,0.06,1.82c-0.19-0.01-0.37-0.02-0.56-0.02
		C329.13,564.19,329.26,563.58,329.74,563.06z"/>
	<path class="st7" d="M244.38,564.16c-0.29-0.02-0.59-0.05-0.88-0.07c0.09-0.43,0.19-0.87,0.28-1.3c0.25,0.3,0.5,0.59,0.75,0.89
		C244.6,563.87,244.56,564.03,244.38,564.16z"/>
	<path class="st68" d="M388.43,529.52c-0.06,0.21-0.12,0.41-0.19,0.62c-0.25,0.02-0.49,0.05-0.74,0.07
		C387.66,529.78,387.97,529.55,388.43,529.52z"/>
	<path class="st68" d="M387.55,530.17c-0.12,0.39-0.39,0.59-0.8,0.61C387.02,530.57,387.29,530.37,387.55,530.17z"/>
	<path class="st68" d="M389.55,528.73c-0.11,0.34-0.31,0.55-0.69,0.53C389.09,529.08,389.32,528.9,389.55,528.73z"/>
	<path class="st68" d="M390.49,528.12c-0.19,0.39-0.52,0.57-0.95,0.6C389.75,528.34,390.06,528.14,390.49,528.12z"/>
	<path class="st66" d="M204.81,535.01c0.19-0.24,0.37-0.47,0.56-0.71C205.19,534.54,205,534.77,204.81,535.01z"/>
	<path class="st66" d="M205.49,532.18c-0.18,0.23-0.36,0.46-0.54,0.69C205.13,532.64,205.31,532.41,205.49,532.18z"/>
	<path class="st69" d="M300.75,461.43c-1.92,1.57-3.78,1.46-6.07,0.47c-5.75-2.48-11.32-5.22-16.49-8.77
		c-15.2-10.43-25.49-24.58-31.68-41.84c-2.35-6.55-4-13.29-4.72-20.19c-0.67-6.3-1-12.62-0.43-19.01
		c0.73-8.21,2.08-16.25,4.45-24.12c0.8-2.65,1.75-5.26,2.82-7.82c1.04-2.5,2.41-3.15,4.97-2.32c2.41,0.78,4.76,1.79,7.07,2.84
		c3.69,1.67,7.15,3.77,10.5,6.05c0.7,0.48,1.37,0.85,2.24,0.52c9.63,6.78,17.15,15.48,23.24,25.49c13.9,24.34,15.84,50.02,8.6,76.72
		C304.13,453.59,302.89,457.68,300.75,461.43z"/>
	<path class="st70" d="M300.75,461.43c-0.42-0.34-0.42-0.74-0.23-1.22c2.18-5.45,4.03-11.01,5.24-16.76
		c0.81-3.81,1.35-7.67,1.94-11.52c0.78-5.07,0.43-10.12,0.57-15.17c0.11-3.92-0.71-7.75-1.18-11.62c-0.7-5.76-2.31-11.24-4.23-16.67
		c-1.69-4.78-3.44-9.53-6.25-13.8c-0.44-0.66-0.82-1.4-0.84-2.25c1.31-5.45,4.94-9.58,8.32-13.72c3.62-4.44,7.69-8.56,12.41-11.92
		c1.08-0.77,2.05-1.94,3.65-1.54c5.48-3.31,11.28-5.81,17.54-7.22c1.35-0.3,2.71-0.57,4.08-0.78c1.62-0.24,2.96,0.46,3.71,1.93
		c0.36,0.72,0.6,1.5,0.85,2.27c2.75,8.49,4.51,17.18,5.15,26.1c0.25,3.46,0.53,6.91,0.43,10.38c-0.65,21.11-6.47,40.5-19.25,57.53
		c-7.82,10.41-17.5,18.68-29.05,24.74C302.69,460.68,301.7,461.03,300.75,461.43z"/>
	<path class="st71" d="M320.15,345.25c-5.9,3.55-10.59,8.51-15.12,13.54c-3.13,3.48-5.71,7.49-7.92,11.67
		c-0.37,0.7-0.6,1.51-1.33,1.98c-0.41-0.39-0.95-0.71-1.21-1.18c-1.86-3.46-4.27-6.49-6.83-9.45c-1.5-1.73-2.95-3.49-4.54-5.15
		c-2.55-2.66-5.36-5.01-8.31-7.19c-0.8-0.59-1.3-1.26-1.48-2.2c0.67-3.31,2.02-6.39,3.35-9.46c3.66-8.45,8.6-16.1,14.65-23.04
		c0.61-0.7,1.22-1.39,1.89-2.03c1.92-1.84,3.55-1.95,5.41-0.04c2.1,2.14,4.08,4.42,5.97,6.76c5.49,6.77,9.97,14.18,13.61,22.1
		C318.86,342.8,319.52,344.01,320.15,345.25z"/>
	<path class="st72" d="M270.19,484.9c2.15,0.33,4.3,0.94,6.42-0.17c0.12-0.06,0.47,0.1,0.58,0.25c0.22,0.31,0.11,0.68-0.2,0.86
		c-1.33,0.79-2.78,1.12-4.3,0.91c-1.04-0.14-1.82,0.18-2.43,0.96c-3.76,4.82-7.51,9.65-11.25,14.49c-0.27,0.36-0.52,0.77-0.29,1.29
		c1.19,0.59,2.46-0.11,3.7,0.15c0.21,0.16,0.28,0.33,0.22,0.51c-0.06,0.18-0.13,0.26-0.19,0.26c-0.25,0.43-0.65,0.62-1.12,0.69
		c-1.27,0.2-2.54,0.1-3.8-0.1c-1.49-0.24-2.95-0.56-4.45,0.03c-0.23,0.09-0.85-0.15-0.88-0.31c-0.08-0.47,0.2-0.89,0.7-1.03
		c0.78-0.21,1.56-0.52,2.35-0.54c1.06-0.03,1.68-0.57,2.27-1.34c3.73-4.87,7.49-9.72,11.22-14.58c0.64-0.83,0.62-0.85-0.7-1.69
		C268.33,483.94,269.36,484.75,270.19,484.9z"/>
	<path class="st73" d="M270.76,275.91c1.45-0.17,2.77,0.48,4.17,0.68c-0.42,2.13-2.7,0-3.4,1.49c-1.53,2.23-3.06,4.45-4.59,6.68
		c-0.77,1.11-1.61,2.18-1.84,3.58c-0.33,0.58-0.18,1.37-0.81,1.81c-0.42,0.39-0.58,0.94-0.85,1.42c-0.4,0.92-0.95,1.81-0.79,2.88
		c0.09,0.31,0.02,0.57-0.22,0.79c-0.42,0.5-0.92,0.63-1.51,0.3c-0.43-0.24-0.65-0.63-0.71-1.1c-0.14-1.06,0.06-2.05,0.61-2.97
		c0.7-1.18,1.34-2.41,2.13-3.53c1.25-1.77,1.42-3.57,0.47-5.49c-0.15-0.3-0.23-0.64-0.34-0.97c-0.33-0.64,0.04-0.86,0.58-0.99
		c1.02,0.1,1.13,1.34,2.06,1.67c1.7-1.53,2.61-3.62,3.86-5.46C269.9,276.32,270.35,276.15,270.76,275.91z"/>
	<path class="st18" d="M321.52,493.39c0.15,0.3,0.34,0.59,0.44,0.91c0.34,1.11,0.2,1.3-1.2,1.78c0,0-0.25-0.23-0.25-0.22
		c-0.4,0.14-0.39,0.6-0.68,0.84c-1.82,1.94-2.77,4.75-5.68,5.57c-0.95,0.07-2.03,0.91-2.75-0.41c-0.49-0.9-0.31-1.8,0.26-2.59
		c1.98-2.78,3.32-6.44,7.85-5.72C320.17,493.42,320.8,492.83,321.52,493.39z"/>
	<path class="st74" d="M313.15,282.08c1.15,0.68,0.19,1.37,0.01,2.05c-0.58,0.32-0.45,0.99-0.71,1.47c0.07,0.8,0.15,1.6-0.78,2
		c-0.17-0.17-0.3-0.36-0.38-0.56c-0.24-0.55-0.33,0-0.49,0.11c-1.29,1.87-2.44,3.87-4.76,4.66c-0.96,0.29-2.01,0.9-2.8-0.19
		c-0.68-0.94-0.37-2,0.17-2.9c1.27-2.14,2.43-4.4,4.9-5.48C310.06,283.47,311.73,283.29,313.15,282.08z"/>
	<path class="st75" d="M289.71,286.37c0.19-0.03,0.35-0.11,0.49-0.23c0.31-0.18,0.61-0.17,0.88,0.08c0.11,0.32,0.11,0.64,0.01,0.96
		c-0.33,0.82-1.17,1.35-1.45,2.5c1.52,0,2.23-1.34,3.41-1.56c0.54,0.03,0.87,0.34,1.08,0.81c0.22,1.29,0.67,1.5,1.75,0.59
		c1.39-1.16,2.14-3.03,4.05-3.59c0.55,0.07,0.89,0.38,1.06,0.9c0.01,2.18-1.62,3.57-2.55,5.31c-0.36,0.37-0.74,0.68-1.3,0.38
		c-0.65-0.38-1.24-0.32-1.88,0.11c-1.27,0.86-2.51,1-3.59-0.37c-0.33-0.41-0.75-0.34-1.2-0.11c-0.6,0.31-1.22,0.61-1.86,0.81
		c-0.7,0.22-1.33-0.04-1.84-0.57c-0.26-0.76-1.62-0.71-1.36-1.86c1.15-1.18,2.29-2.36,3.44-3.54
		C289.09,286.7,289.33,286.44,289.71,286.37z"/>
	<path class="st76" d="M280.47,502.31c-0.37,0.24-0.72,0.58-1.13,0.71c-0.66,0.21-1.39,0.29-1.93-0.3c-0.66-0.73-0.34-1.5,0.07-2.22
		c0.45-0.8,0.97-1.56,1.41-2.36c0.08-0.14-0.01-0.45-0.13-0.58c-0.13-0.14-0.4-0.23-0.6-0.21c-1.1,0.1-1.93,0.73-2.64,1.5
		c-0.69,0.76-1.36,1.57-1.88,2.46c-0.77,1.31-1.73,1.89-3.34,1.82c-2.41-0.12-2.7-0.5-1.57-2.88c0.63-0.05,1.03,0.11,0.73,0.86
		c0.1,0.44,0.18,0.99,0.82,0.7c1.19-0.53,2.06-1.47,2.93-2.39c0.32-0.33,0.56-0.73,0.84-1.1c1.9-2.51,1.9-2.51,4.81-2.34
		c1.55,0.09,2.24,1.27,1.48,2.67c-0.44,0.81-1.04,1.52-1.54,2.3c-0.17,0.27-0.32,0.7,0.03,0.86c0.26,0.13,0.66-0.03,1-0.06
		C280.14,501.82,280.36,502.01,280.47,502.31z"/>
	<path class="st18" d="M299.94,286.23c-0.79,0.96-1.6,1.92-2.38,2.89c-0.79,1-1.71,1.82-2.86,2.38c-0.42,0.2-0.85,0.34-1.29,0.07
		c-0.52-0.32-0.28-0.79-0.16-1.2c0.13-0.43,0.32-0.85,0.48-1.27c0.39-2.67,2.56-4.01,4.27-5.69c0.23-0.18,0.48-0.34,0.73-0.49
		c0.49-0.29,0.98-0.6,1.5-0.85c0.27-0.11,0.55-0.14,0.84-0.1c0.38,0.07,0.76,0.13,1.14,0.2c0.12,0.26,0.16,0.53,0.11,0.81
		c-0.15,0.67-0.28,1.35-0.44,2.03c-0.09,0.27-0.23,0.5-0.42,0.72C301.03,286.12,300.38,285.84,299.94,286.23z"/>
	<path class="st77" d="M320.02,493.83c-4.05,0.52-4.07,0.5-6.55,3.98c-0.66,0.93-1.21,1.94-1.74,2.95c-0.21,0.4-0.22,0.95,0.22,1.24
		c0.24,0.16,0.64,0.16,0.95,0.1c0.55-0.11,1.09-0.32,1.63-0.5c0.18,0.2,0.26,0.43,0.21,0.71c-0.23,0.34-0.63,0.44-0.92,0.7
		c-1.41,0.11-2.83,0.83-4.13-0.54c-0.7-0.74-1.37,0.48-2.13,0.43c-0.46-0.43-1.74-0.01-1.35-1.31c0.67,0.35,1.34,0.25,1.93-0.12
		c1.15-0.71,2.2-1.54,2.98-2.7c1.06-1.59,2.23-3.12,3.35-4.67c-0.48-1.4,1.13-0.88,1.44-1.56c0.2-0.24,0.4-0.48,0.6-0.72
		c0.82-0.15,1.18,0.15,0.98,1c0.51,0.55,1.19,0.33,1.81,0.39C320.01,492.86,320.11,493.23,320.02,493.83z"/>
	<path class="st78" d="M308.95,283.6c-2.71,1.55-4.12,4.17-5.53,6.78c-0.21,0.38-0.26,0.94,0.21,1.23c0.25,0.15,0.66,0.18,0.96,0.11
		c0.55-0.12,1.08-0.35,1.61-0.53c0.17,0.15,0.22,0.3,0.16,0.45c-0.06,0.14-0.12,0.22-0.17,0.22c-1.75,1.63-3.53,1.59-5.33,0.08
		c-0.31,0.13-0.63,0.14-0.95,0.03c-0.34-2.51,2.15-3.32,3.07-5.08c0.69-1.31,1.58-2.54,2.53-3.7c0.5-0.73,1.47-0.56,2.07-1.12
		c0.2-0.25,0.39-0.52,0.62-0.74c0.32-0.32,0.76-0.58,1.13-0.21c0.49,0.49,0.2,0.96-0.22,1.36
		C309.33,282.89,309.28,283.27,308.95,283.6z"/>
	<path class="st41" d="M269.47,501.1c-0.24-0.29-0.49-0.57-0.73-0.86c0.39-0.7,0.8-1.39,1.15-2.1c0.07-0.15-0.03-0.47-0.16-0.59
		c-0.14-0.14-0.42-0.21-0.62-0.18c-1.48,0.21-2.49,1.17-3.33,2.29c-1.16,1.55-2.23,3.17-3.34,4.76c-0.01-0.26-0.02-0.51-0.03-0.77
		c-0.26-0.83-0.15-1.58,0.38-2.28c0.76-1.01,1.49-2.05,2.24-3.07c1.83-2.5,1.83-2.5,4.8-2.32c1.55,0.09,2.26,1.29,1.48,2.66
		C270.82,499.52,270.1,500.28,269.47,501.1z"/>
	<path class="st77" d="M292.98,503.67c-0.56,0.12-1.15,0.25-1.67-0.08c-2.18-1.4-2.17-1.41-3.87-1.28c-0.27-0.62,0.33-1.02,0.4-1.56
		c0.13-0.42,0.4-0.71,0.83-0.83c0.29-0.02,0.52,0.09,0.71,0.31c0.16,0.37,0.46,0.48,0.8,0.31c0.84-0.42,1.5-1.02,2-1.83
		c0.42-0.68,0.92-1.31,1.41-1.94c0.29-0.37,0.71-0.59,1.19-0.54c0.32,0.03,0.35,1.02,0.03,1.56c-0.88,1.46-2.09,2.74-2.48,4.47
		C292.64,502.69,293.43,502.9,292.98,503.67z"/>
	<path class="st77" d="M283.98,292.5c-1,0.66-2.03,0.89-3-0.02c-0.55-0.52-1.11-0.65-1.78-0.34c-0.25-0.23-0.38-0.52-0.38-0.86
		c0.7-1.88,2.59-2.93,3.35-4.76c0.36-0.38,0.74-0.67,1.29-0.41c0.33,0.04,0.68,0.02,0.99,0.12c0.77,0.25,0.95,0.67,0.54,1.17
		c-0.57,0.69-1.18,1.34-1.75,2.02c-0.21,0.25-0.37,0.56-0.52,0.85c-0.35,0.69,0.09,1.13,1.2,1.22
		C284.25,291.82,284.27,292.15,283.98,292.5z"/>
	<path class="st79" d="M270.16,292.48c-0.79-1.34,0.26-2.24,0.78-3.27c0.32-0.91-0.33-1.16-0.96-1.43c-0.36-0.44-0.1-1.1-0.51-1.52
		c-0.09-0.33-0.26-0.66-0.26-0.99c0.02-1.15,0.51-1.85,1.18-1.73c0.82,0.14,1.02,0.77,1.1,1.51c0.05,0.44,0.09,1.04,0.37,1.26
		c1.75,1.34,1.28,2.68,0.18,4.12c-0.26,0.34-0.33,0.83-0.48,1.25C271.66,292.92,271.07,292.99,270.16,292.48z"/>
	<path class="st78" d="M329.88,500.3c1.54-0.67,2.21-2.17,3.17-3.39c0.42-0.53,0.8-1.11,1.63-0.82c0.37,0.36,1.07,0.54,0.68,1.3
		c-1.82,1.12-3.01,2.82-4.17,4.55c-0.72,1.07-0.76,1-2.44,0.48c-0.53-0.17-1.13-0.11-1.7-0.16c-0.27-1.01,0.56-1.23,1.16-1.62
		C328.73,500.39,329.38,500.73,329.88,500.3z"/>
	<path class="st80" d="M280.47,502.31c-0.21-0.19-0.43-0.37-0.64-0.56c0.8-0.94,2.07-1.51,2.51-2.73c0.65-1.77,2.13-2.2,3.69-2.6
		c0.24,0.19,0.4,0.43,0.48,0.73c-0.02,1.18,0.08,2.37-0.15,3.55c-0.16,0.27-0.4,0.44-0.71,0.49c-1.07-0.14-1.61,0.47-1.93,1.39
		c-0.28,0.41-0.59,0.74-1.14,0.44C281.96,502.57,281.51,501.56,280.47,502.31z"/>
	<path class="st38" d="M320.65,291.86c-0.6,0.01-1.2,0.02-1.8,0.03c-1.2-0.13-1.2-0.13-0.48-1.53c0.27-0.2,0.57-0.33,0.91-0.37
		c0.79-0.23,1.32,1.03,2.19,0.4c1.51-1.07,2.39-2.68,3.49-4.1c0.36-0.46,0.76-0.84,1.41-0.53c0.45,0.34,1.56-0.15,1.32,1.05
		c-1.7,0.74-2.94,1.98-3.99,3.48c-0.61,0.87-0.9,2.1-2.22,2.3C321.3,292.24,321,292.02,320.65,291.86z"/>
	<path class="st81" d="M306.21,501.59c0.45,0.44,0.9,0.87,1.35,1.31c-1.04,0.62-2.01,0.59-2.98-0.2c-0.31-0.26-0.77-0.33-1.17-0.49
		c-0.23-0.24-0.35-0.52-0.35-0.85c0.36-1.49,1.52-2.34,2.58-3.27c0.65-0.15,0.76-0.47,0.29-0.97c0.04-0.33,0.21-0.55,0.52-0.65
		c0.47-0.05,0.91,0.05,1.35,0.22c1,0.25,1.32,0.61,0.93,1.08C307.76,498.95,306.45,499.91,306.21,501.59z"/>
	<path class="st82" d="M314.53,502.22c0-0.21,0-0.41,0-0.62c1.42-1.3,2.81-2.61,3.92-4.2c0.45-0.64,0.91-1.34,1.87-1.26l-0.07,0
		c0.18,0.09,0.35,0.07,0.51-0.07c-0.52,1.84-2.16,2.99-2.86,4.72c-0.27,0.91,0.08,1.19,0.95,0.95c0.19-0.05,0.38-0.08,0.58-0.08
		c0,0,0.31,0.09,0.31,0.09c0,0,0.23,0.23,0.23,0.23c0,0,0.09,0.31,0.09,0.31c-1.18,1.17-2.56,1.12-4,0.67
		C315.58,502.65,315.29,501.96,314.53,502.22z"/>
	<path class="st83" d="M319.43,501.67c0.97-1.07,2.11-1.99,2.74-3.37c0.51-1.14,1.51-1.61,2.75-1.56c0.54-0.39,0.78-0.04,0.98,0.4
		c-0.07,1.16-0.05,2.32,0.02,3.48c-0.09,0.3-0.28,0.51-0.57,0.63c-0.73,0.2-1.43-0.45-2.16-0.02c-0.56,0.42-0.69,1.52-1.75,1.13
		c-0.46-0.02-0.91-0.04-1.37-0.07l-0.2-0.18c-0.09-0.08-0.17-0.17-0.26-0.25L319.43,501.67z"/>
	<path class="st84" d="M298.62,283.52c-1.7,1.8-3.48,3.52-4.88,5.58c-0.21-0.25-0.41-0.51-0.62-0.76c-0.61-0.67-1.46-0.99-2.21-1.46
		c0-0.23,0-0.46,0-0.68c-0.16-0.18-0.19-0.32-0.1-0.42c0.08-0.09,0.16-0.13,0.25-0.13c0.41-0.08,0.82-0.15,1.22-0.23
		c0.25-0.12,0.5-0.12,0.75,0.01c0.79,0.22,1.48,0.24,2.06-0.53c0.59-0.78,0.99-1.74,1.92-2.23c0.13,0,0.26,0.01,0.38,0.01
		c0.39,0.08,0.73,0.25,1.03,0.51C298.5,283.3,298.56,283.41,298.62,283.52z"/>
	<path class="st80" d="M306.19,291.85c0.02-0.22,0.02-0.44,0.01-0.66c1.98-1.29,3.04-3.48,4.87-4.91c0.28,0.14,0.47,0.36,0.6,0.64
		c0.01,0.23,0,0.45-0.02,0.68c-1.09,0.84-1.78,2.02-2.37,3.2c-0.52,1.05,0.47,0.94,1.08,1.04c0.24,0.15,0.33,0.3,0.25,0.46
		c-0.08,0.16-0.16,0.23-0.24,0.23c-0.8,0.83-1.67,0.69-2.39-0.02C307.45,291.98,306.91,291.77,306.19,291.85z"/>
	<path class="st85" d="M310.38,292.54c0-0.23-0.01-0.46-0.01-0.69c1.96-1.29,3.07-3.4,4.77-4.94c0.72-0.47,1.31-0.26,1.83,0.34
		c0.51,0.92,0.72,1.9,0.58,2.95c-0.15,0.28-0.38,0.48-0.69,0.57c-0.66,0.1-1.37-0.32-1.99,0.18c-0.51,0.38-0.81,1.21-1.69,0.86
		c-0.48-0.38-0.87-0.04-1.24,0.18C311.46,292.27,311.01,292.64,310.38,292.54z"/>
	<path class="st86" d="M335.36,497.39c-0.23-0.43-0.45-0.86-0.68-1.3c0.47,0.01,0.94,0.02,1.4,0.03c0.46,0.37,0.91,0.37,1.36-0.01
		c1.3,0.88,1.57,1.25,1.16,1.98c-0.55,0.99-1.24,1.89-1.88,2.84c-0.8,1.04,1.39,1.05,0.71,2.05c-0.22,0.06-0.44,0.18-0.66,0.16
		c-1.42-0.09-1.92-0.7-1.64-1.86c0.25-1.04,0.95-1.79,1.49-2.65c0.59-0.93,0.43-1.12-0.94-1.24
		C335.58,497.38,335.47,497.39,335.36,497.39z"/>
	<path class="st57" d="M279.12,291.17c0.03,0.32,0.05,0.65,0.08,0.97c-1.21,1.17-2.46,1.38-3.7,0.07c-0.35-0.37-0.77-0.35-1.2-0.38
		c-0.74,0.38-0.8-0.03-0.71-0.61c0.66-0.51,1.31-1.02,1.97-1.53c0.29-0.21,0.6-0.4,0.73-0.77l-0.04,0.02
		c0.28-0.19,0.57-0.22,0.87-0.06c0.31,0.4,0.38,0.84,0.23,1.32c-0.16,0.27-0.4,0.42-0.72,0.39c0.29,0.1,0.58,0.08,0.87-0.04
		C278.14,290.5,278.73,290.57,279.12,291.17z"/>
	<path class="st39" d="M263.13,275.24c2.17-0.24,4.35-0.46,6.43,0.48c-0.32,0.67-0.9,1.03-1.55,1.29c-1.25,0.44-2.56,0.32-3.84,0.41
		c-0.28,0.06-0.56,0.11-0.84,0.18c-0.12,0.06-0.26,0.11-0.38,0.18c-0.6,0.25-0.94,1.13-1.8,0.78c-0.15-0.13-0.2-0.3-0.16-0.49
		c-0.34-0.59-0.29-1.19-0.03-1.79c0.06-0.35,0.27-0.51,0.62-0.53C262.07,275.49,262.66,275.56,263.13,275.24z"/>
	<path class="st41" d="M271.53,278.08c0.28-0.77,0.92-0.87,1.61-0.87c0.67,0,1.34,0,1.79-0.62c1.32-0.06,2.65-0.11,3.97-0.17
		c0.37-0.04,0.62-0.3,0.91-0.49c0.11-0.17,0.27-0.24,0.47-0.22c0.34-0.14,0.68-0.12,1.01,0.05l-0.01-0.02
		c0.12,0.28,0.11,0.55-0.05,0.81l0.01-0.01c-0.24,0.19-0.48,0.38-0.73,0.57c-0.16,0.15-0.36,0.21-0.58,0.16
		c-0.66,0.49-1.54,0.06-2.2,0.55c-1.31,0.31-2.64,0.21-3.95,0.03C273,277.74,272.25,277.72,271.53,278.08z"/>
	<path class="st87" d="M270.19,484.9c-0.74,0.13-1.6-0.12-2.15,0.65c-1.4,0.06-2.75,0.24-3.89,1.19c-0.24,0.2-0.74,0.13-0.84-0.25
		c-0.07-0.27,0.03-0.69,0.21-0.91c0.79-0.91,1.81-1.41,3.03-1.45C267.82,484.1,269.09,484.11,270.19,484.9z"/>
	<path class="st88" d="M303.37,501.43c0.02,0.26,0.04,0.52,0.05,0.78c-2.22,1.43-2.43,1.43-4.31,0.1c-0.16-1.02-0.6-2.08,0.34-2.97
		c0.31-0.12,0.64-0.16,0.97-0.11C301.41,499.96,302.32,500.78,303.37,501.43z"/>
	<path class="st89" d="M316.72,287.8c-0.31-0.68-0.93-0.81-1.57-0.9c1.03-0.45,2.04-0.98,3.1-1.32c0.92-0.29,1.84-0.05,2.47,0.74
		c0.67,0.84,1.08,1.76,0.23,2.76c-0.25,0.23-0.53,0.29-0.85,0.18C319.31,288,318.16,287.56,316.72,287.8z"/>
	<path class="st37" d="M325.62,497.29c-0.24-0.18-0.47-0.37-0.71-0.55c0.45-0.61,1.1-0.81,1.8-0.84c1.8-0.09,2.82,0.86,2.8,2.66
		c-0.01,0.56-0.21,1.12-0.33,1.69c-0.24,0.22-0.52,0.34-0.85,0.34c-0.33-0.03-0.6-0.17-0.8-0.44
		C327.59,498.72,326.66,497.97,325.62,497.29z"/>
	<path class="st90" d="M330.55,291.84c-0.54,0.68-1.31,0.95-2.11,1.09c-1.01,0.18-1.85-0.59-1.74-1.61c0.08-0.69,0.25-1.37,0.9-1.79
		c0.47,0.12,0.75,0.42,0.83,0.89c0.14,1.14,0.14,1.14,1.33,0.63c0,0,0.29,0.06,0.29,0.06c0.18,0.1,0.32,0.24,0.42,0.42
		C330.5,291.54,330.55,291.84,330.55,291.84z"/>
	<path class="st47" d="M262.43,295.24c-0.02-0.3-0.03-0.61-0.05-0.91c-0.64-1.01,0.43-1.66,0.54-2.51c0.66-0.52,0.47-1.37,0.82-2.02
		c0.45-0.49,0.91-0.97,1.36-1.46C264.77,290.85,264.54,293.41,262.43,295.24z"/>
	<path class="st91" d="M321.43,502.36c1.02-0.36,0.53-1.66,1.34-2.15c0.84,0.48,1.12,1.65,2.22,1.82c0.38,0.25,0.66,0.57,0.73,1.03
		C323.47,504.28,322.93,504.19,321.43,502.36z"/>
	<path class="st92" d="M299.96,499.54c-0.87,0.74-0.75,1.79-0.85,2.77c-0.81-0.45-0.34-1.63-1.18-2.06
		c-0.21-0.12-0.32-0.28-0.31-0.47c0.01-0.2,0.03-0.3,0.09-0.3c0.57-0.74,1.3-1.35,1.74-2.2c0.26-0.39,0.54-0.76,1.08-0.73
		c0.29,0.31,0.57,0.62,0.86,0.93C301.78,498.79,300.61,498.99,299.96,499.54z"/>
	<path class="st19" d="M307.59,282.06c-0.5,0.52-1,1.04-1.5,1.56c-0.81,0.39-1.64,0.65-2.54,0.36c-0.69-0.23-1.28-0.59-1.62-1.27
		c0.12-0.17,0.22-0.34,0.29-0.53C304.01,282.14,305.8,282.1,307.59,282.06z"/>
	<path class="st59" d="M337.44,502.98c-0.24-0.23-0.47-0.49-0.73-0.7c-0.58-0.47-0.6-0.91,0.02-1.35c0.2,0.72,0.63,0.8,1.21,0.42
		c0.55-0.36,1.08-0.74,1.62-1.11c0,0,0.25,0.07,0.25,0.07c0.15,0.09,0.28,0.22,0.37,0.36c0,0,0.05,0.26,0.05,0.26
		C339.59,502.01,338.66,502.69,337.44,502.98z"/>
	<path class="st93" d="M292.98,503.67c-0.21-0.47-0.42-0.94-0.63-1.41c1.49,0.43,2.28-0.97,3.48-1.32c0,0,0.28,0.1,0.28,0.1
		c0.05,0.19,0.14,0.37,0.26,0.53C295.5,502.7,294.46,503.53,292.98,503.67z"/>
	<path class="st85" d="M325.71,503.06c-0.24-0.18-0.47-0.37-0.71-0.55c-0.1-0.57,0.1-1.05,0.49-1.46l0.2-0.19
		c0.58-0.68,1.34-0.68,2.14-0.6c0.22,0.01,0.43,0.01,0.65-0.02c0.21,0.14,0.28,0.28,0.2,0.42c-0.07,0.13-0.15,0.2-0.22,0.2
		c-0.47,0.46-0.94,0.93-1.41,1.39C326.6,502.52,326.16,502.79,325.71,503.06z"/>
	<path class="st94" d="M308.95,283.6c0.05-0.38,0.11-0.75,0.16-1.13c0.84,0.35,1.65,0.28,2.49-0.07c0.48-0.2,1.03-0.23,1.54-0.33
		c-0.02,0.48-0.19,0.98-0.63,1.13C311.37,283.58,310.22,284.22,308.95,283.6z"/>
	<path class="st59" d="M261.16,278.56c0.4-0.46,0.8-0.92,1.2-1.37c1.03,0.96,2.02,1.94,1.29,3.55c-0.19,0.25-0.38,0.49-0.57,0.74
		C262.17,280.68,261.6,279.66,261.16,278.56z"/>
	<path class="st95" d="M273.6,291.22c0.24,0.2,0.47,0.41,0.71,0.61c-0.53,0.76-1.36,1.08-2.19,1.28c-0.73,0.18-1.53,0.26-1.95-0.64
		c0.62-0.01,1.17-0.13,1.41-0.8C272.31,291.83,272.94,291.45,273.6,291.22z"/>
	<path class="st50" d="M277.36,289.13c-0.37-0.06-0.74-0.12-1.11-0.18c0.67-1.2,1.6-2.08,2.91-2.54c0.5,0.13,0.86,0.38,0.82,0.97
		C279.45,288.47,278.59,289.07,277.36,289.13z"/>
	<path class="st62" d="M269.47,286.25c0.54,0.35,0.6,0.9,0.64,1.47c0.23,0.15,0.3,0.29,0.21,0.42c-0.09,0.12-0.17,0.18-0.26,0.18
		c-0.5,0.45-0.99,0.93-1.52,1.34c-0.13,0.1-0.44,0.09-0.62,0.01c-0.26-0.11-0.27-0.32-0.15-0.55
		C268.29,288.13,269.43,287.52,269.47,286.25z"/>
	<path class="st96" d="M313.18,291.79c0.4-0.47,0.81-0.93,1.21-1.4c0.94,0.47,1.56,1.34,2.37,1.97c0.15,0.3,0.11,0.56-0.14,0.79
		C315.13,293.58,313.8,293.57,313.18,291.79z"/>
	<path class="st80" d="M307.81,496.68c-0.58,0.05-1.17,0.09-1.75,0.14c-0.91,0.81-1.91,1.31-3.17,0.88
		c-0.2-0.16-0.29-0.33-0.25-0.53c0.04-0.2,0.08-0.3,0.14-0.3l-0.08-0.18c0.31-0.15,0.54-0.44,0.9-0.51
		C305.05,495.91,306.51,495.67,307.81,496.68z"/>
	<path class="st97" d="M316.62,293.16c-0.01-0.24-0.01-0.49-0.02-0.73c-0.24-0.71-0.66-1.44,0.18-2.05c0.22-0.03,0.43-0.03,0.65,0
		c0.49-0.34,0.92-0.31,1.29,0.19c-0.22,0.47-0.77,0.97,0.13,1.33C318.26,292.59,317.55,293.06,316.62,293.16z"/>
	<path class="st98" d="M287.97,500.85c0.31,0.19,0.59,0.37,0.19,0.75c-0.25,0.23-0.48,0.47-0.71,0.71
		c-0.35,0.45-0.78,0.76-1.38,0.78c-0.25-0.23-0.42-0.51-0.51-0.84c-0.04-0.53,0.1-0.99,0.52-1.33l-0.04,0.03
		C286.67,500.4,287.3,500.32,287.97,500.85z"/>
	<path class="st99" d="M283.46,286.11c-0.32,0.32-0.63,0.63-0.95,0.95c-0.57,0.45-1.19,0.5-1.85,0.24
		c-0.41-0.29-0.72-0.67-0.94-1.11C280.94,285.18,282.2,285.19,283.46,286.11z"/>
	<path class="st100" d="M329.78,291.06c0.69-0.59,1.37-1.19,2.08-1.75c0.11-0.08,0.46-0.02,0.55,0.09c0.12,0.14,0.2,0.47,0.12,0.61
		c-0.48,0.79-1.11,1.44-1.98,1.82l-0.27-0.22c-0.1-0.1-0.2-0.2-0.3-0.3L329.78,291.06z"/>
	<path class="st90" d="M283.98,292.5c-0.02-0.33-0.03-0.67-0.05-1c0.38-0.51,0.91-0.78,1.5-0.97c0.42,0.65,1.44,0.84,1.36,1.86
		C285.81,291.35,284.91,292.37,283.98,292.5z"/>
	<path class="st101" d="M328.45,290.43c-0.28-0.3-0.56-0.6-0.83-0.89c0.46-0.7,0.92-1.41,1.38-2.11c0.3,0.08,0.55,0.24,0.73,0.5
		c0.04,0.15,0.08,0.29,0.12,0.44C329.6,289.2,329.01,289.8,328.45,290.43z"/>
	<path class="st102" d="M300.52,496.56c-0.25,0.27-0.49,0.54-0.74,0.81c-0.74,0.11-0.87-0.27-0.71-0.88
		c0.02-0.22,0.02-0.44,0.06-0.65c0.1-0.54,0.23-1.21,0.91-1.12c1.02,0.13,0.51,0.96,0.52,1.53
		C300.57,496.35,300.53,496.46,300.52,496.56z"/>
	<path class="st54" d="M286.04,497.41c0-0.33-0.01-0.66-0.01-0.99c1.23-0.74,2.4-0.96,3.4,0.39c-0.12,0.27-0.27,0.53-0.44,0.77
		c-0.14,0.06-0.27,0.11-0.41,0.18C287.72,497.77,286.82,498.05,286.04,497.41z"/>
	<path class="st103" d="M315.91,492.54c-0.48,0.52-0.96,1.04-1.44,1.56c-0.78-0.69-1.76-0.54-2.68-0.65
		c-0.17-0.17-0.24-0.34-0.19-0.52c0.05-0.18,0.1-0.27,0.16-0.27C313.15,492.62,314.53,492.58,315.91,492.54z"/>
	<path class="st104" d="M302.78,496.87c0.01,0.32,0.02,0.64,0.03,0.96c-0.12,1.09-0.71,1.69-1.82,1.76
		c-0.34-0.02-0.69-0.04-1.03-0.06c0.47-0.68,0.95-1.37,1.42-2.05c0,0,0.01,0.03,0.01,0.03c0.2-0.32,0.46-0.55,0.84-0.62
		C302.41,496.84,302.6,496.83,302.78,496.87z"/>
	<path class="st105" d="M299.65,291.7c0.4,0.08,0.81,0.15,1.21,0.23c-0.46,0.71-1.25,0.88-1.97,1.11c-0.65,0.21-1.31,0.17-1.74-0.53
		c0.29-0.3,0.57-0.6,0.86-0.9C298.58,291.38,299.14,291.17,299.65,291.7z"/>
	<path class="st106" d="M299.07,496.49c0.24,0.29,0.48,0.59,0.71,0.88c-0.36,0.9-0.84,1.7-1.72,2.2c-0.29,0.26-0.57,0.25-0.85-0.01
		C297.83,498.54,298.45,497.51,299.07,496.49z"/>
	<path class="st107" d="M289.39,500.23c-0.26-0.02-0.51-0.04-0.77-0.07c-0.59-0.95-0.6-1.85,0.19-2.7l0.28-0.06
		c0.19-0.2,0.37-0.2,0.54,0.02C290.62,498.45,289.94,499.34,289.39,500.23z"/>
	<path class="st94" d="M286.08,502.37c0,0.24-0.01,0.48-0.01,0.72c-1.18,0.99-2.34,1.1-3.48-0.07c0.23-0.22,0.45-0.45,0.68-0.67
		C284.21,501.85,285.15,501.82,286.08,502.37z"/>
	<path class="st101" d="M327.7,286.81c-0.44-0.35-0.88-0.7-1.32-1.05c0.56-0.06,1.12-0.14,1.68-0.17c0.68-0.04,1.36-0.06,1.78,0.65
		c-0.02,0.12-0.04,0.23-0.06,0.35c-0.17,0.32-0.39,0.59-0.79,0.61C328.55,287.06,328.13,286.93,327.7,286.81z"/>
	<path class="st108" d="M301.07,281.98c-0.17,0.02-0.34,0.05-0.52,0.08c-0.09-0.08-0.18-0.16-0.27-0.23
		c-0.15-0.19-0.29-0.39-0.42-0.59c-0.15-0.19-0.29-0.4-0.43-0.6c-0.13-0.21-0.22-0.45-0.26-0.69c0.48-0.59,1.12-0.8,1.77-0.42
		c0.52,0.31,0.57,0.92,0.45,1.49C301.31,281.34,301.18,281.66,301.07,281.98z"/>
	<path class="st49" d="M299.16,279.94c0.26,0.23,0.52,0.45,0.77,0.68c-0.18,1.04-0.85,1.58-1.83,1.82
		c-0.31-0.01-0.59-0.12-0.81-0.35C297.65,281.14,298.24,280.4,299.16,279.94z"/>
	<path class="st62" d="M311.76,492.66c0.01,0.27,0.02,0.53,0.03,0.8c-0.54,0.48-1.18,0.71-1.9,0.62c-0.18-0.02-0.35-0.24-0.5-0.4
		c-0.03-0.03,0.08-0.22,0.16-0.29C310.18,492.81,310.9,492.52,311.76,492.66z"/>
	<path class="st18" d="M314.53,502.22c0.65-0.06,1.46-0.42,1.53,0.74c-0.74,0.02-1.49,0.03-2.23,0.05
		C314.06,502.75,314.3,502.48,314.53,502.22z"/>
	<path class="st97" d="M321.47,290.38c-0.73,1.23-1.45,0.17-2.17-0.01c-0.1-0.54,0.18-0.82,0.65-0.98c0.31-0.01,0.57,0.09,0.79,0.32
		C320.83,290.1,321.07,290.33,321.47,290.38z"/>
	<path class="st109" d="M268.02,276.46c0.36-0.58,1-0.55,1.54-0.74c0.4,0.06,0.8,0.13,1.2,0.19c-0.3,0.24-0.59,0.48-0.89,0.73
		C269.21,277.11,268.58,277.08,268.02,276.46z"/>
	<path class="st110" d="M320.02,493.83c-0.24-0.2-0.48-0.41-0.72-0.61c0.38-0.23,0.74-0.54,1.16-0.67c0.68-0.21,1.09,0.08,1.06,0.85
		C321.02,493.54,320.52,493.68,320.02,493.83z"/>
	<path class="st101" d="M329.83,286.23c0.92,0.71,0.65,1.42,0.01,2.13l-0.14-0.19c-0.29-0.59-0.29-1.17,0-1.76L329.83,286.23z"/>
	<path class="st111" d="M318.85,501.75c-0.4,0.53-0.92,0.77-1.36,0.17c-0.27-0.37-0.04-0.86,0.41-1.12
		C318.22,501.12,318.53,501.43,318.85,501.75z"/>
	<path class="st112" d="M270.07,288.31c0-0.2,0.02-0.4,0.04-0.6c1.57,0.22,1.6,0.27,0.83,1.49
		C270.64,288.91,270.36,288.61,270.07,288.31z"/>
	<path class="st113" d="M339.56,500.25c0.16-0.15,0.29-0.34,0.48-0.45c0.18-0.1,0.45-0.21,0.59-0.14c0.4,0.2,0.25,0.55,0.07,0.83
		c-0.11,0.18-0.31,0.3-0.47,0.45l-0.15-0.3l-0.23-0.24L339.56,500.25z"/>
	<path class="st38" d="M329.7,286.41c0,0.59,0,1.17,0,1.76c-0.24-0.25-0.47-0.5-0.71-0.75c0,0-0.01-0.24-0.01-0.24
		C329.22,286.93,329.46,286.67,329.7,286.41z"/>
	<path class="st64" d="M317.49,492.82c-0.21-0.45-0.5-0.82-0.98-1c0.31-0.53,0.76-0.83,1.25-0.34
		C318.23,491.96,317.95,492.45,317.49,492.82z"/>
	<path class="st47" d="M277.73,277.82c0.59-0.74,1.4-0.62,2.2-0.55C279.27,277.76,278.55,277.97,277.73,277.82z"/>
	<path class="st114" d="M312.45,285.6c-0.31-1.23-0.31-1.23,0.71-1.47C313.34,284.82,313.02,285.27,312.45,285.6z"/>
	<path class="st115" d="M279.71,286.18c0.25,0.2,0.51,0.4,0.76,0.61c-0.13,0.31-0.34,0.35-0.61,0.18c-0.23-0.18-0.46-0.37-0.69-0.55
		C279.31,286.24,279.49,286.16,279.71,286.18z"/>
	<path class="st66" d="M263.13,275.24c-0.4,0.52-0.95,0.57-1.54,0.51C262,275.3,262.52,275.13,263.13,275.24z"/>
	<path class="st66" d="M260.97,276.28c0.01,0.6,0.02,1.19,0.03,1.79C260.49,277.48,260.33,276.89,260.97,276.28z"/>
	<path class="st78" d="M337.44,496.12c-0.45,0.67-0.9,0.66-1.36,0.01C336.54,496.12,336.99,496.12,337.44,496.12z"/>
	<path class="st58" d="M297.22,499.56c0.28,0,0.56,0.01,0.85,0.01c-0.05,0.23-0.09,0.46-0.14,0.68l-0.26,0.07l-0.27-0.02
		c-0.26,0.16-0.51,0.14-0.75-0.04C296.84,500.04,297.03,499.8,297.22,499.56z"/>
	<path class="st116" d="M296.65,500.27c0.25,0.01,0.5,0.03,0.74,0.04c-0.08,0.38-0.29,0.63-0.69,0.7c-0.15-0.02-0.3-0.04-0.46-0.06
		l-0.21-0.08c0,0-0.22,0.06-0.22,0.06C296.1,500.72,296.38,500.49,296.65,500.27z"/>
	<path class="st117" d="M328.46,500.86c0-0.2,0-0.41,0.02-0.61c0.24,0,0.47-0.01,0.71-0.01c0.23-0.03,0.46-0.01,0.69,0.06
		C329.58,500.95,329.04,500.95,328.46,500.86z"/>
	<path class="st116" d="M296.25,500.95c0.15,0.01,0.3,0.03,0.46,0.06c-0.01,0.25-0.13,0.43-0.34,0.56c-0.1-0.14-0.21-0.27-0.29-0.42
		C296.07,501.12,296.19,501.02,296.25,500.95z"/>
	<path class="st118" d="M289.71,286.37c-0.15,0.39-0.45,0.57-0.85,0.61C289.02,286.6,289.28,286.37,289.71,286.37z"/>
	<path class="st119" d="M302.23,496.9c-0.16,0.37-0.46,0.56-0.84,0.62C301.54,497.13,301.81,496.91,302.23,496.9z"/>
	<path class="st120" d="M289.65,497.42c-0.18-0.01-0.36-0.01-0.54-0.02c-0.11-0.32,0.09-0.47,0.33-0.6
		C289.65,496.96,289.72,497.17,289.65,497.42z"/>
	<path class="st97" d="M320.65,291.86c0.42,0.08,0.68,0.34,0.83,0.73C320.96,292.62,320.8,292.25,320.65,291.86z"/>
	<path class="st121" d="M297.3,282.1c0.2,0.01,0.4,0.01,0.61-0.01c0.08,0.62-0.03,1.01-0.77,0.67c0,0-0.11-0.08-0.11-0.08
		C297.01,282.43,297.1,282.24,297.3,282.1z"/>
	<path class="st119" d="M303.59,496.18c-0.18,0.37-0.49,0.52-0.9,0.51C302.89,496.34,303.18,496.15,303.59,496.18z"/>
	<path class="st118" d="M293.04,285.43c-0.25,0-0.5,0-0.75-0.01C292.54,285.1,292.79,285.1,293.04,285.43z"/>
	<path class="st47" d="M280.51,277.11c0.24-0.19,0.49-0.38,0.73-0.57C281.15,276.93,280.92,277.14,280.51,277.11z"/>
	<path class="st47" d="M279.81,275.93c-0.2,0.35-0.51,0.51-0.91,0.49C279.2,276.26,279.5,276.1,279.81,275.93z"/>
	<path class="st50" d="M276.29,288.93c-0.1,0.39-0.34,0.65-0.73,0.77C275.8,289.44,276.05,289.18,276.29,288.93z"/>
	<path class="st47" d="M281.23,276.55c0.02-0.27,0.03-0.54,0.05-0.81C281.87,276.05,281.75,276.31,281.23,276.55z"/>
	<path class="st47" d="M281.29,275.76c-0.34-0.02-0.67-0.03-1.01-0.05C280.64,275.28,280.98,275.04,281.29,275.76z"/>
	<path class="st118" d="M291.06,285.65c-0.05,0.18-0.09,0.37-0.15,0.55c-0.24-0.02-0.47-0.04-0.71-0.06
		C290.39,285.79,290.66,285.61,291.06,285.65z"/>
	<path class="st122" d="M320.74,289.71c-0.27-0.01-0.54-0.02-0.8-0.04c-0.09-0.27-0.01-0.48,0.21-0.64
		c0.27,0.01,0.54,0.03,0.81,0.04C320.99,289.33,320.92,289.54,320.74,289.71z"/>
	<path class="st12" d="M228.4,563.56c-0.65-0.56-1.3-1.12-1.94-1.68c-1.46-3.38-0.61-6.54,1.03-9.55c1.26-2.31,3.12-3.94,5.84-4.36
		c0.45-0.07,0.87-0.26,1.31-0.39c0.2,0.12,0.39,0.25,0.59,0.35c3.85,1.97,4.87,4.19,3.77,8.39c-0.94,3.59-2.69,6.55-6.37,7.96
		C231.2,564.18,229.74,564.22,228.4,563.56z"/>
	<path class="st65" d="M330.69,562.4c0.47-0.75,0.58-1.57,0.44-2.44c0.13-0.32,0.51-0.71,0.69-0.53c1.97,2.01,3.49,4.34,4.78,6.83
		c0.07,0.13-0.34,0.51-0.52,0.77c-1.24-0.15-2.32,0.48-3.47,0.73c-0.33,0.02-0.66,0-0.98,0.05c-1.5,0.23-1.5,0.23-1.65-1.34
		C330.68,565.19,330.59,563.78,330.69,562.4z"/>
	<path class="st68" d="M388.83,530.75c0.38-0.25,0.77-0.48,1.15-0.74c1.52-1.04,3.04-0.94,4.47,0.13c1.44,1.08,1.89,2.55,1.34,4.28
		c-0.14,0.43-0.36,0.84-0.55,1.26c-0.6,0.48-1.22,0.95-1.81,1.45c-0.53,0.45-1.1,0.74-1.81,0.63c-0.97-1.42-1.87-2.91-2.95-4.25
		C387.82,532.45,388.12,531.63,388.83,530.75z"/>
	<path class="st12" d="M277.02,558.68c0.93,0.45,1.85,0.89,2.78,1.34c1.61,1.68,2.9,3.5,3.03,5.94c0.23,4.7-1.66,8.62-6.46,9.39
		c-1.59-0.34-3.33,0.13-4.78-0.92c0.46-4.08,0.92-8.15,1.39-12.23c0.08-0.68,0.2-1.35,0.31-2.03c0.13-0.77,0.58-1.22,1.35-1.3
		C275.43,558.79,276.23,558.74,277.02,558.68z"/>
	<path class="st28" d="M387.24,552.13c-0.19,0.01-0.29-0.08-0.27-0.28c0,0,0.22,0.06,0.22,0.06L387.24,552.13z"/>
	<path class="st123" d="M315.2,431.98c-0.07-0.96,0.3-1.75,0.92-2.5c1.39-1.68,2.76-3.39,4.06-5.15c3.95-5.31,6.91-11.16,9.3-17.31
		c0.21-0.54,0.33-1.11,0.59-1.62c0.8-1.54,2.53-2.19,4.12-1.58c1.5,0.57,2.38,2.29,1.99,3.92c-0.62,2.59-1.73,5.01-2.79,7.43
		c-2.71,6.16-6.43,11.69-10.71,16.87c-0.59,0.71-1.07,1.51-1.7,2.17c-1.32,1.4-2.77,1.56-4.36,0.7
		C315.4,434.25,315.14,433.22,315.2,431.98z"/>
	<path class="st124" d="M268.02,276.46c0.62,0.06,1.24,0.12,1.86,0.17c0.18,0.56,0.19,1.06-0.2,1.59c-1.34,1.82-2.65,3.66-4.02,5.57
		c-1.32-0.69-1.17-2.21-2.01-3.06c-0.31-1.23-1.57-2.11-1.29-3.55c0,0,0.06-0.11,0.06-0.11c0.33-0.11,0.58-0.39,0.91-0.5
		C264.89,276.54,266.45,276.5,268.02,276.46z"/>
	<path class="st125" d="M263.23,291.91c-0.28,0.81-0.56,1.61-0.84,2.42c-0.75-0.13-0.79-0.68-0.61-1.23
		c0.27-0.83,0.62-1.64,1.31-2.24C263.44,291.17,263.49,291.51,263.23,291.91z"/>
	<path class="st126" d="M263.23,291.91c-0.05-0.35-0.1-0.69-0.15-1.04c0.01-0.48,0.13-0.9,0.66-1.07
		C263.87,290.57,263.94,291.33,263.23,291.91z"/>
	<path class="st127" d="M320.25,496.15c0,0,0.08,0,0.08,0c0.52-0.28,0.09-0.84,0.36-1.19c0.06-0.07,0.16-0.14,0.25-0.16
		c0.1-0.03,0.21-0.01,0.32-0.01c-0.03,0.19,0.01,0.46-0.11,0.57C320.86,495.62,320.24,495.52,320.25,496.15z"/>
	<path class="st128" d="M311.68,286.92c-0.2-0.21-0.4-0.43-0.6-0.64c0.18-0.3,0.43-0.39,0.67-0.12
		C311.96,286.4,311.95,286.69,311.68,286.92z"/>
	<path class="st18" d="M299.65,291.7c-0.55-0.03-1.09-0.06-1.64-0.09c0.46-1.8,1.9-3,2.78-4.55c0.2-0.51,0.01-1.16,0.57-1.54
		l-0.05,0.06c1.05-0.43-0.23-2.93,2.03-2.29c0.91,0.1,1.83,0.21,2.74,0.31C304.21,286.53,302.38,289.47,299.65,291.7z"/>
	<path class="st118" d="M290.92,286.88c0.22-0.05,0.43-0.09,0.65-0.15c1.65-0.4,1.8-0.25,1.56,1.61c-1.08,1.2-2.14,2.43-3.77,2.88
		c-0.29,0.08-0.7,0.01-0.96-0.14c-0.47-0.28-0.41-0.81-0.27-1.24C288.61,288.45,289.89,287.78,290.92,286.88z"/>
	<path class="st129" d="M301.36,285.53c-0.07,0.56,0.1,1.2-0.57,1.54c-0.15-0.42-0.42-0.72-0.86-0.84
		C300.21,285.59,300.78,285.54,301.36,285.53z"/>
	<path class="st130" d="M303.34,283.3c-0.47,0.23-1.14,0.2-1.01,1.08c0.09,0.67-0.45,0.99-1.02,1.21c-0.06-0.54-0.13-1.09-0.17-1.63
		c-0.04-0.59,0.14-1.07,0.77-1.26C302.43,282.82,302.99,282.83,303.34,283.3z"/>
	<path class="st131" d="M300.56,282.06c-0.29,0.56-0.68,1-1.3,1.2c-0.23-0.21-0.33-0.46-0.31-0.77c0.11-0.28,0.3-0.5,0.56-0.65
		c0.3-0.06,0.58,0.01,0.82,0.2L300.56,282.06z"/>
	<path class="st132" d="M299.29,282.97c0,0-0.04,0.29-0.04,0.29c-0.21,0.09-0.42,0.18-0.64,0.27c0,0-0.04-0.02-0.04-0.02
		c-0.08-0.31-0.16-0.63,0.22-0.79C298.94,282.65,299.13,282.79,299.29,282.97z"/>
	<path class="st133" d="M288.82,497.46c0.22,0.92-0.01,1.81-0.19,2.7c-0.22,0.23-0.44,0.46-0.65,0.68c-0.64,0.03-1.28,0.07-1.92,0.1
		c-0.06-0.32-0.02-0.7-0.18-0.96c-0.58-0.92-0.36-1.75,0.17-2.57C286.98,496.87,287.91,496.77,288.82,497.46z"/>
	<path class="st65" d="M279.86,286.96c0.22,0.01,0.43-0.05,0.61-0.18c0.68,0.09,1.36,0.18,2.04,0.27c-0.25,2.09-2.04,2.92-3.39,4.11
		c-0.7,0.04-1.4,0.28-2.08-0.06c-0.14-0.13-0.2-0.27-0.2-0.43c0-0.17,0.02-0.25,0.05-0.25c0.16-0.43,0.31-0.87,0.47-1.3
		C278.19,288.41,279.03,287.69,279.86,286.96z"/>
	<path class="st134" d="M286.08,502.37c-0.94,0.24-1.88,0.73-2.81-0.02c0.01-0.65-0.03-1.3,0.06-1.94c0.09-0.65,0.69-0.92,1.18-0.53
		c0.5,0.4,0.84,1.02,1.58,1.04C286.09,501.4,286.08,501.88,286.08,502.37z"/>
	<path class="st135" d="M320.15,289.03c-0.13,0.19-0.2,0.41-0.21,0.64c-0.21,0.23-0.42,0.46-0.63,0.69
		c-0.21,0.02-0.4,0.09-0.58,0.19c-0.43-0.06-0.86-0.12-1.29-0.19c-0.32-0.84-0.9-1.6-0.71-2.58c0.09-0.07,0.18-0.13,0.26-0.2
		c0.64-0.62,1.27-1.3,2.3-0.87C320.35,287.18,320.08,288.18,320.15,289.03z"/>
	<path class="st119" d="M300.99,499.6c0.61-0.59,1.21-1.18,1.82-1.77c1.03-0.53,2.02-1.17,3.26-1.02c0.1,0.22,0.2,0.44,0.3,0.66
		c0.1,0.22,0.09,0.44-0.01,0.66c-0.69,1.37-2.01,2.18-2.99,3.29c-0.21,0.05-0.42,0.12-0.63,0.15
		C300.69,501.87,300.56,501.73,300.99,499.6z"/>
	<path class="st80" d="M306.35,498.14c-0.04-0.22-0.03-0.44,0.01-0.66c0.07,0.16,0.16,0.31,0.2,0.47
		C306.57,497.99,306.42,498.07,306.35,498.14z"/>
	<path class="st60" d="M319.61,501.86l0.21,0.05c0,0,0.05,0.21,0.05,0.2C319.69,502.12,319.6,502.03,319.61,501.86z"/>
	<path class="st136" d="M327.83,500.26c-0.58,0.66-1.36,0.62-2.14,0.6c-0.59-1.18-1.23-2.35-0.08-3.57c0.22-0.08,0.43-0.2,0.66-0.22
		c1.61-0.17,2.2,0.38,1.98,1.88C328.2,499.4,327.98,499.83,327.83,500.26z"/>
	<path class="st135" d="M325.5,501.05c0.03,0.55,0.14,1.13-0.49,1.46c-2.17,0.13-2.17,0.13-2.24-2.3c0.26-0.47,0.65-0.66,1.1-0.32
		C324.4,500.3,324.72,500.98,325.5,501.05z"/>
	<path class="st137" d="M299.29,282.97c-0.45-0.1-0.66,0.1-0.71,0.53c-0.57-0.07-1.06-0.31-1.45-0.75c0.51,0.07,0.67-0.26,0.77-0.67
		c0.68-0.49,1.35-0.97,2.03-1.46c0.24,0.24,0.47,0.48,0.71,0.72c-0.21,0.23-0.38,0.48-0.53,0.76
		C299.61,282.17,299.34,282.46,299.29,282.97z"/>
	<path class="st138" d="M316.78,290.37c0.6,0.74,0.65,1.44-0.18,2.05c-1.9-0.14-1.9-0.14-2.21-2.03c0.77-1.32,0.77-1.31,1.82-0.4
		C316.38,290.15,316.59,290.25,316.78,290.37z"/>
	<path class="st50" d="M276.89,290.43c0.07,0.22,0.12,0.45,0.15,0.68c-0.12-0.15-0.25-0.28-0.34-0.44
		C276.68,290.63,276.82,290.51,276.89,290.43z"/>
	<path class="st66" d="M263.33,276.58c-0.3,0.17-0.61,0.33-0.91,0.5C262.72,276.91,263.02,276.75,263.33,276.58z"/>
	<path class="st120" d="M329.98,291.32l0.25,0.05c0,0,0.05,0.24,0.05,0.24C330.09,291.61,329.99,291.51,329.98,291.32z"/>
	<path class="st139" d="M339.85,500.4c0.12,0.04,0.2,0.12,0.23,0.24c0,0-0.24-0.01-0.24-0.01L339.85,500.4z"/>
	<path class="st140" d="M300.12,282.1c-0.09-0.44,0.09-0.69,0.53-0.76c-0.11,0.23-0.21,0.45-0.32,0.68
		C300.33,282.03,300.12,282.1,300.12,282.1z"/>
</g>
</svg>
