<?xml version="1.0" encoding="UTF-8"?>
<svg id="Layer_1" data-name="Layer 1" xmlns="http://www.w3.org/2000/svg" viewBox="0 0 15.56 15.5">
  <defs>
    <style>
      .cls-1 {
        fill: #c3bdb0;
      }

      .cls-2 {
        fill: #dbd5c8;
      }

      .cls-3 {
        fill: #cfc9bc;
      }

      .cls-4 {
        fill: #d6d0c3;
      }

      .cls-5 {
        fill: #bab4a7;
      }

      .cls-6 {
        fill: #443d39;
      }

      .cls-7 {
        fill: #d3ccbe;
      }

      .cls-8 {
        fill: #c7c1b4;
      }

      .cls-9 {
        fill: #504843;
      }

      .cls-10 {
        fill: #dfdacb;
      }

      .cls-11 {
        fill: #eee8d9;
      }

      .cls-12 {
        fill: #dbd5c7;
      }

      .cls-13 {
        fill: #605852;
      }

      .cls-14 {
        fill: #d8d2c4;
      }

      .cls-15 {
        fill: #ddd8ca;
      }

      .cls-16 {
        fill: #d4cec1;
      }

      .cls-17 {
        fill: #d8d3c5;
      }

      .cls-18 {
        fill: #ebe6d7;
      }

      .cls-19 {
        fill: #f3eedf;
      }

      .cls-20 {
        fill: #ede7d9;
      }

      .cls-21 {
        fill: #a8a297;
      }

      .cls-22 {
        fill: #e3decf;
      }

      .cls-23 {
        fill: #f2ecde;
      }

      .cls-24 {
        fill: #514944;
      }

      .cls-25 {
        fill: #e5dfd0;
      }

      .cls-26 {
        fill: #f0eadb;
      }

      .cls-27 {
        fill: #ede8d9;
      }

      .cls-28 {
        fill: #c6c0b3;
      }

      .cls-29 {
        fill: #d0cabd;
      }

      .cls-30 {
        fill: #716961;
      }

      .cls-31 {
        fill: #d1cabe;
      }

      .cls-32 {
        fill: #dcd5c8;
      }

      .cls-33 {
        fill: #453d39;
      }

      .cls-34 {
        fill: #b1d68e;
      }

      .cls-35 {
        fill: #ccc6b8;
      }

      .cls-36 {
        fill: #e3ddce;
      }

      .cls-37 {
        fill: #cfc8bb;
      }

      .cls-38 {
        fill: #f0ebdd;
      }

      .cls-39 {
        fill: #beb7ab;
      }

      .cls-40 {
        fill: #d1cbbd;
      }

      .cls-41 {
        fill: #665e58;
      }

      .cls-42 {
        fill: #eee8da;
      }

      .cls-43 {
        fill: #d3cdc0;
      }

      .cls-44 {
        fill: #c9c3b6;
      }

      .cls-45 {
        fill: #49413d;
      }

      .cls-46 {
        fill: #443c38;
      }

      .cls-47 {
        fill: #cfc9bb;
      }

      .cls-48 {
        fill: #f4efe0;
      }

      .cls-49 {
        fill: #cec8bb;
      }

      .cls-50 {
        fill: #dcd7c8;
      }

      .cls-51 {
        fill: #e3ddcf;
      }

      .cls-52 {
        fill: #ece7d9;
      }

      .cls-53 {
        fill: #cac4b7;
      }

      .cls-54 {
        fill: #b8b1a4;
      }

      .cls-55 {
        fill: #d9d3c6;
      }

      .cls-56 {
        fill: #3c3430;
      }

      .cls-57 {
        fill: #dad3c5;
      }

      .cls-58 {
        fill: #ebe6d8;
      }

      .cls-59 {
        fill: #d4cec0;
      }

      .cls-60 {
        fill: #bdb6aa;
      }

      .cls-61 {
        fill: #e7e2d2;
      }

      .cls-62 {
        fill: #d8d2c5;
      }

      .cls-63 {
        fill: #dbd6c8;
      }

      .cls-64 {
        fill: #4e4641;
      }

      .cls-65 {
        fill: #c4bdb0;
      }

      .cls-66 {
        fill: #3c3431;
      }

      .cls-67 {
        fill: #3a322f;
      }

      .cls-68 {
        fill: #dcd6c9;
      }

      .cls-69 {
        fill: #cdc7ba;
      }

      .cls-70 {
        fill: #39312e;
      }

      .cls-71 {
        fill: #bcb5a9;
      }

      .cls-72 {
        fill: #b7b0a4;
      }

      .cls-73 {
        fill: #ded8ca;
      }

      .cls-74 {
        fill: #b5aea2;
      }

      .cls-75 {
        fill: #ece6d8;
      }

      .cls-76 {
        fill: #5f5751;
      }

      .cls-77 {
        fill: #dcd5c7;
      }

      .cls-78 {
        fill: #ded9ca;
      }

      .cls-79 {
        fill: #c3bcb0;
      }

      .cls-80 {
        fill: #e9e3d4;
      }

      .cls-81 {
        fill: #d9d3c5;
      }

      .cls-82 {
        fill: #625b54;
      }

      .cls-83 {
        fill: #c1baad;
      }

      .cls-84 {
        fill: #7a7169;
      }

      .cls-85 {
        fill: #c1baae;
      }

      .cls-86 {
        fill: #ddd7c9;
      }

      .cls-87 {
        fill: #ccc5b9;
      }

      .cls-88 {
        fill: #d3cdbf;
      }

      .cls-89 {
        fill: #e0dacc;
      }

      .cls-90 {
        fill: #7c746c;
      }

      .cls-91 {
        fill: #d7d1c3;
      }

      .cls-92 {
        fill: #b0aa9e;
      }

      .cls-93 {
        fill: #c2a673;
      }

      .cls-94 {
        fill: #f5f0e1;
      }

      .cls-95 {
        fill: #4a423e;
      }

      .cls-96 {
        fill: #f2edde;
      }

      .cls-97 {
        fill: #3b3330;
      }

      .cls-98 {
        fill: #504944;
      }

      .cls-99 {
        fill: #e4decf;
      }

      .cls-100 {
        fill: #e1dbcd;
      }

      .cls-101 {
        fill: #beb8ac;
      }

      .cls-102 {
        fill: #efeadb;
      }

      .cls-103 {
        fill: #d5cfc2;
      }

      .cls-104 {
        fill: #d2ccbf;
      }

      .cls-105 {
        fill: #3d3532;
      }

      .cls-106 {
        fill: #c4beb1;
      }

      .cls-107 {
        fill: #4b433f;
      }

      .cls-108 {
        fill: #e1dccd;
      }

      .cls-109 {
        fill: #d6d1c3;
      }

      .cls-110 {
        fill: #5e5651;
      }

      .cls-111 {
        fill: #cfbe9a;
      }

      .cls-112 {
        fill: #ece7d8;
      }

      .cls-113 {
        fill: #f0eedb;
      }

      .cls-114 {
        fill: #4a423d;
      }

      .cls-115 {
        fill: #ebe5d7;
      }

      .cls-116 {
        fill: #eee9da;
      }

      .cls-117 {
        fill: #d1caba;
      }

      .cls-118 {
        fill: #ccc6b9;
      }

      .cls-119 {
        fill: #473f3b;
      }

      .cls-120 {
        fill: #ded7c8;
      }

      .cls-121 {
        fill: #dcd6c8;
      }

      .cls-122 {
        fill: #c0baae;
      }

      .cls-123 {
        fill: #3f3733;
      }

      .cls-124 {
        fill: #b9b2a6;
      }

      .cls-125 {
        fill: #d0c9bc;
      }

      .cls-126 {
        fill: #e6e1d2;
      }

      .cls-127 {
        fill: #dcd6c7;
      }

      .cls-128 {
        fill: #cdc7b9;
      }

      .cls-129 {
        fill: #e9e4d5;
      }

      .cls-130 {
        fill: #efe9db;
      }

      .cls-131 {
        fill: #ede8da;
      }

      .cls-132 {
        fill: #cbc5b8;
      }

      .cls-133 {
        fill: #bbb4a8;
      }

      .cls-134 {
        fill: #f1ecdd;
      }

      .cls-135 {
        fill: #58504b;
      }

      .cls-136 {
        fill: #dfd9cb;
      }

      .cls-137 {
        fill: #615852;
      }

      .cls-138 {
        fill: #beb8ab;
      }

      .cls-139 {
        fill: #eae4d6;
      }

      .cls-140 {
        fill: #dad4c6;
      }

      .cls-141 {
        fill: #d2cbbd;
      }
    </style>
  </defs>
  <path class="cls-70" d="M15.56,7.75c0,4.27-3.49,7.78-7.84,7.75C3.4,15.47,0,11.95,0,7.74,0,3.45,3.54-.04,7.86,0c4.21,.04,7.7,3.46,7.7,7.75Z"/>
  <path class="cls-94" d="M13.69,6.61h-1.03c-.13,0-.11,.01-.14-.1-.05-.17-.1-.34-.17-.51-.57-1.48-1.84-2.6-3.39-2.98-.47-.12-.95-.16-1.44-.14-1.79,.1-3.26,1.11-4.05,2.54-.19,.34-.33,.69-.43,1.06,0,.03-.02,.06-.03,.09,0,.02-.02,.03-.04,.03-.02,0-.05,0-.07,0H.83c-.1,0-.12,0-.1-.1,.18-1.07,.59-2.05,1.22-2.93C2.98,2.17,4.34,1.24,6.02,.8c.35-.09,.7-.15,1.06-.18,.26-.02,.51-.04,.77-.04,1.77,.04,3.32,.63,4.65,1.79,1.01,.88,1.71,1.97,2.1,3.25,.09,.28,.15,.57,.21,.85,0,.03,0,.06,.01,.08,0,.05,0,.06-.05,.06-.17,0-.34,0-.52,0-.19,0-.38,0-.58,0Z"/>
  <path class="cls-94" d="M.62,8.9s.05-.01,.08-.01c.74,0,1.48,0,2.22,0,.02,0,.04,0,.06,0,.02,0,.03,.01,.04,.03,.01,.04,.02,.08,.03,.12,.46,1.65,1.76,2.96,3.45,3.42,.56,.15,1.13,.2,1.7,.15,1.27-.12,2.34-.65,3.21-1.59,.53-.58,.89-1.25,1.09-2,.04-.14,.01-.12,.16-.12,.72,0,1.43,0,2.15,0,.04,0,.08,0,.12,.01-.45,3.28-3.44,6.21-7.31,6.12-1.93-.04-3.59-.76-4.97-2.11-1.19-1.17-1.87-2.71-2.04-4.01Z"/>
  <path class="cls-94" d="M15.05,6.61s-.02,0-.02,0c-.07,0-.07,0-.08-.06-.02-.11-.04-.22-.07-.34-.25-1.17-.75-2.21-1.52-3.13-.93-1.11-2.09-1.88-3.48-2.3-.42-.13-.86-.21-1.3-.26-.39-.04-.78-.06-1.17-.04-1.57,.09-2.97,.62-4.19,1.6-1.14,.92-1.93,2.08-2.37,3.47-.1,.32-.18,.64-.23,.97,0,.02,0,.03,0,.05,0,.02-.02,.04-.04,.04-.01,0-.02,0-.04,0-.17,0-.14,0-.11-.13,.12-.69,.33-1.36,.64-1.98C1.96,2.72,3.34,1.47,5.21,.76c.52-.2,1.06-.32,1.61-.39,.53-.07,1.06-.06,1.59-.04,2.02,.19,3.7,1.05,5.04,2.57,.78,.89,1.3,1.92,1.58,3.07,.04,.17,.07,.33,.11,.5,0,.03,0,.06,.01,.1,0,.02,0,.03-.03,.03-.02,0-.05,0-.07,0,0,0,0,0,0,0Z"/>
  <path class="cls-48" d="M12.44,7.75c0,2.55-2.07,4.64-4.66,4.63-2.62,0-4.66-2.14-4.65-4.65,0-2.56,2.12-4.64,4.69-4.62,2.5,.02,4.62,2.04,4.63,4.64Z"/>
  <path class="cls-2" d="M1.75,8.61h1.09s.07,0,.1,0c.02,0,.03,.03,.03,.05,0,.02-.02,.03-.03,.03-.03,0-.06,0-.09,0H.67s-.07,0-.11,0c-.01,0-.03-.02-.03-.04,0-.02,.02-.03,.03-.03,.04,0,.07,0,.11,0,.36,0,.72,0,1.08,0Z"/>
  <path class="cls-17" d="M13.81,8.69h-1.08s-.07,0-.1,0c-.02,0-.04-.01-.04-.04,0-.02,.01-.04,.04-.04,0,0,.02,0,.02,0,.02,0,.04,0,.06,0,.73,0,1.46,0,2.18,0,.04,0,.07,0,.11,0,0,0,.02,.02,.02,.03,0,.02,0,.03-.02,.04-.03,.02-.06,0-.1,.01-.2,0-.4,0-.6,0-.17,0-.34,0-.5,0Z"/>
  <path class="cls-134" d="M2.36,7.99h-.01c-.09,0-.09,0-.09-.09,0-.1,0-.2,0-.3,0-.07,0-.07,.08-.07,.04,0,.08,0,.12,0,.12,.02,.18,.09,.19,.21,.01,.15-.07,.25-.22,.26-.02,0-.04,0-.06,0h0Z"/>
  <path class="cls-102" d="M13.69,7.76s0,.1-.02,.14c-.02,.07-.08,.11-.15,.1-.06,0-.12-.04-.14-.1-.03-.1-.03-.19,0-.29,.02-.06,.06-.09,.13-.1,.07,0,.12,.02,.15,.08,.02,.05,.03,.1,.03,.16Z"/>
  <path class="cls-75" d="M14.53,7.86s0,.03-.02,.03c-.04,.01-.04,.04-.05,.08,0,.02-.03,.03-.05,.03-.02,0-.04,0-.04-.03,0-.05-.03-.07-.08-.07-.02,0-.05,0-.07,0-.05,0-.07-.03-.04-.08,.06-.09,.12-.18,.18-.26,.02-.02,.04-.03,.06-.03,.03,0,.05,.01,.05,.04,0,.06,0,.12,0,.18,0,.03,0,.06,.04,.08,0,0,.01,.02,.02,.03Z"/>
  <path class="cls-131" d="M1.57,7.52s.08,0,.11,.02c.02,0,.02,.02,.02,.04,0,.02-.02,.04-.04,.04-.03,0-.06-.02-.1-.02-.02,0-.04,.02-.05,.04,0,.02,0,.04,.02,.05,.04,.03,.09,.05,.13,.08,.06,.05,.07,.13,.02,.18-.02,.02-.04,.03-.06,.04-.06,.03-.13,.02-.19,0-.03-.01-.03-.03-.03-.06,0-.02,.01-.03,.03-.03,.04,.01,.09,.03,.13,.02,.02,0,.04-.01,.04-.04,0-.02,0-.03-.02-.04-.02-.01-.04-.03-.06-.04-.02-.01-.04-.02-.06-.04-.04-.04-.07-.08-.05-.14,.01-.06,.05-.09,.11-.1,.02,0,.03,0,.04,0Z"/>
  <path class="cls-116" d="M13.91,7.91c.07,0,.12,0,.17,0,.02,0,.03,.02,.03,.04,0,.02-.01,.03-.03,.03-.09,0-.18,0-.27,0-.03,0-.05-.04-.03-.06,.01-.02,.03-.04,.05-.06,.04-.04,.08-.08,.12-.12,.02-.02,.04-.05,.04-.09,0-.03-.03-.07-.06-.06-.03,0-.05,.02-.08,.03-.03,.01-.05,0-.06-.03,0,0-.01-.02,0-.03,.06-.06,.17-.07,.24-.03,.05,.03,.07,.1,.05,.16-.01,.03-.04,.06-.06,.09-.02,.02-.04,.03-.05,.05-.01,.01-.03,.03-.06,.06Z"/>
  <path class="cls-38" d="M1.04,7.76c0-.06,0-.12,0-.18,0-.03,.01-.05,.04-.05,.07,0,.13,0,.2,0,.02,0,.03,.02,.03,.04,0,.02-.01,.03-.03,.03-.04,0-.07,0-.11,0-.02,0-.03,.02-.03,.05,0,.02,0,.05,.03,.06,.03,0,.07,0,.1,0,.02,0,.03,.02,.03,.04s0,.03-.02,.04c-.02,0-.04,0-.06,0-.08,0-.07,.02-.07,.08,0,.02,.01,.04,.04,.04,.04,0,.07,0,.11,0,.02,0,.02,.02,.02,.04s0,.03-.03,.03c-.02,0-.04,0-.06,0-.22,0-.18,.03-.18-.18,0-.02,0-.04,0-.06t0,0Z"/>
  <path class="cls-102" d="M13.1,7.92c.05,0,.1,0,.15,0,.02,0,.03,.02,.03,.03,0,.02,0,.04-.03,.04-.09,0-.17,0-.26,0-.03,0-.05-.03-.03-.06,0-.02,.02-.03,.04-.05,.04-.04,.07-.08,.11-.11,.02-.02,.04-.05,.06-.08,0-.02,.01-.05,0-.07s-.04-.03-.07-.02c-.02,0-.04,.02-.07,.03-.02,0-.04,0-.05-.03-.02-.02,0-.04,.01-.05,.06-.04,.12-.05,.19-.03,.07,.02,.11,.09,.09,.16-.01,.05-.04,.08-.07,.11-.02,.02-.04,.03-.05,.05-.01,.01-.03,.03-.04,.07Z"/>
  <path class="cls-52" d="M2.15,7.55s0,.05-.03,.06c-.02,0-.04,0-.06,0-.02,0-.04,.02-.04,.04,0,.06,0,.13,0,.19,0,.04,0,.07,0,.11,0,.03-.02,.04-.05,.04-.03,0-.05-.01-.05-.04,0-.09,0-.19,0-.28,0-.04,0-.07-.06-.07-.05,0-.07-.02-.06-.05,0-.04,.04-.03,.07-.03,.08,0,.16,0,.24,0,.02,0,.04,0,.04,.02Z"/>
  <path class="cls-67" d="M8.96,1.28c.12,.03,.22,.05,.33,.08,.07,.02,.14,.05,.2,.1,.13,.1,.1,.29-.04,.36-.04,.02-.08,.03-.11,.04,0,.03,.02,.04,.03,.05,.04,.02,.07,.05,.1,.09,.08,.11,.05,.24-.06,.32-.04,.03-.08,.04-.13,.05-.08,.01-.16,.01-.23,0-.09-.02-.18-.04-.27-.07-.05-.01-.05-.02-.04-.07,.03-.14,.07-.28,.1-.42,.04-.15,.07-.31,.11-.46,0-.02,0-.03,.02-.06Z"/>
  <path class="cls-67" d="M7.16,2.26c-.06,.01-.11,.03-.17,.02-.19-.02-.32-.12-.38-.3-.05-.13-.05-.26-.02-.4,.02-.08,.06-.15,.12-.21,.14-.13,.3-.18,.48-.16,.18,.03,.29,.13,.35,.3,.04,.11,.04,.23,.02,.34-.03,.15-.1,.26-.24,.33-.03,.02-.05,0-.06-.02,0-.03,.01-.05,.03-.08,.11-.17,.12-.35,.05-.54-.05-.15-.15-.23-.28-.24-.12,0-.21,.07-.27,.21-.1,.24,0,.53,.22,.66,.04,.04,.12,0,.13,.07Z"/>
  <path class="cls-97" d="M10.87,2.46s0,.01,0,.02c.02,.02,.04,0,.05,0,.18-.05,.36-.09,.53-.14,.03,0,.05-.02,.08,0,.01,0,.03,.01,.03,.03,0,.02-.02,.02-.03,.02-.15,.03-.3,.07-.45,.1-.05,.01-.11,0-.13,.05-.02,.04,.01,.09,.02,.13,.04,.18,.09,.36,.13,.55,0,.01,0,.02,0,.04-.05,0-.13-.04-.15-.05-.02-.02-.03-.05-.03-.08-.02-.11-.03-.22-.05-.33-.01-.08-.02-.16-.04-.24,0,0,0,0-.01,0-.06,.06-.09,.13-.14,.2-.04,.06-.07,.12-.11,.17-.01,0-.02,0-.03,0-.14-.08-.12-.06-.05-.18,.14-.22,.28-.44,.41-.67,.02-.02,.03-.05,.05-.07,0,0,.01-.01,.02-.01,.02,0,.11,.05,.11,.07,0,.01,0,.03,0,.03-.03,.05-.06,.1-.1,.16-.03,.05-.06,.1-.1,.16,0,0-.01,.02-.02,.03Z"/>
  <path class="cls-97" d="M7.87,1.42c-.02,.23-.03,.46-.05,.68,0,.03,0,.06-.01,.08,0,0-.02,.02-.03,.02-.01,0-.03,0-.03-.02,0-.02,0-.05,0-.07,0-.15,.02-.3,.03-.45,0-.13,.02-.27,.03-.4,0-.07,.04-.09,.11-.07,.01,0,.03,.02,.04,.03,.02,.03,.05,.07,.07,.1,.13,.18,.26,.37,.38,.55,.01,.02,.02,.03,.04,.05,0,0,.01,0,.02,0,0,0,.01,0,.01-.02,0-.02,0-.04,0-.06,.01-.18,.02-.35,.03-.52,0-.03,0-.06,.01-.08,0,0,.02-.01,.03-.01,.01,0,.02,.01,.03,.02,0,.02,0,.05,0,.07-.01,.21-.03,.42-.04,.63,0,.09-.01,.18-.02,.27,0,.01-.01,.02-.02,.02,0,0-.02,0-.02,0-.02-.03-.04-.05-.06-.08-.16-.23-.32-.45-.48-.68-.02-.03-.04-.05-.06-.07,0,0-.02,0-.02,0Z"/>
  <path class="cls-97" d="M5.32,2.62c0,.08-.03,.14-.08,.2-.08,.09-.19,.15-.3,.17-.09,.02-.17,0-.24-.06-.05-.04-.08-.08-.11-.13-.1-.18-.21-.37-.31-.55-.02-.04-.01-.05,.02-.07,0,0,0,0,.01,0,.08-.04,.08-.06,.13,.03,.09,.16,.18,.33,.27,.49,.03,.05,.06,.1,.1,.14,.05,.05,.11,.07,.18,.05,.03,0,.06-.01,.08-.03,.17-.08,.23-.22,.14-.39-.08-.16-.18-.32-.26-.48-.01-.03-.03-.05-.04-.07-.02-.04-.02-.06,0-.07,.03-.02,.04,.01,.05,.03,.02,.03,.04,.07,.06,.11,.08,.14,.15,.28,.23,.42,.04,.07,.07,.14,.07,.22Z"/>
  <path class="cls-97" d="M11.66,3.09c-.06-.03-.06-.03-.09,0-.07,.09-.15,.17-.22,.26-.02,.03-.02,.04,0,.06,.07,.05,.15,.1,.22,.15,.04,.03,.08,.06,.11,.08,.01,.03,0,.04-.02,.05-.04,.03-.04,.04-.08,0-.13-.11-.26-.22-.38-.32-.04-.04-.04-.04,0-.09,.19-.23,.39-.45,.58-.68,.04-.05,.05-.05,.09-.01,.14,.12,.28,.24,.42,.36-.01,.02-.02,.03-.03,.04-.04,.04-.05,.04-.08,0-.04-.05-.08-.1-.13-.15-.05-.05-.1-.09-.17-.12-.07,.08-.14,.17-.22,.25-.02,.02-.01,.04,0,.05,.01,.01,.02,.02,.03,.04,0,.04-.01,.05-.05,.03Z"/>
  <path class="cls-97" d="M5.56,2.6s-.03-.04,0-.04c.04,0,.09,0,.13,0,.07,0,.13-.02,.19-.06,.06-.04,.1-.1,.09-.17,0-.08-.05-.13-.12-.16-.06-.03-.13-.04-.2-.05-.04,0-.09-.01-.13-.02-.03,0-.06-.02-.09-.03-.14-.07-.2-.25-.06-.4,.02-.02,.05-.04,.08-.06,.09-.05,.19-.07,.3-.07,.04,0,.06,.04,.05,.08,0,.01-.01,.02-.03,.02-.02,0-.05,0-.07,0-.06,0-.12,0-.18,.02-.11,.02-.15,.13-.07,.22,.03,.04,.07,.06,.11,.07,.07,.03,.15,.04,.23,.05,.06,.01,.12,.03,.18,.05,.17,.07,.22,.29,.07,.44-.09,.08-.2,.12-.32,.13-.05-.01-.1,0-.15,0Z"/>
  <path class="cls-66" d="M10.13,1.87c.05-.07,.12-.12,.18-.18,.01-.01,.03,0,.04,.02,0,.02,0,.04,0,.06,0,.32,.01,.64,.02,.95,0,.03,0,.06-.01,.09-.05,0-.08-.02-.12-.04-.02,0-.03-.03-.03-.05,0-.06,0-.12,0-.18,0-.05-.01-.08-.06-.1-.1-.04-.2-.08-.31-.13-.04-.02-.06-.01-.09,.01-.05,.05-.1,.1-.15,.15-.02,.02-.04,.02-.07,.01-.02,0-.02-.03-.01-.04,0,0,0,0,0,0,.14-.13,.27-.27,.42-.39,.02-.01,.03,0,.04,.02,0,.04,0,.06-.03,.09-.08,.07-.03,.1,.04,.13,.03,.01,.06,.02,.09,.04,.06,.03,.09,0,.09-.06-.01-.11,.04-.23-.03-.34-.01-.01-.02-.02-.01-.04Z"/>
  <path class="cls-97" d="M4.13,2.4c-.06,.03-.13,.07-.19,.1-.06,.03-.1,.07-.14,.12-.02,.02-.02,.04,0,.07,.06,.08,.13,.17,.19,.25,.04,0,.07-.03,.1-.05,.05-.04,.11-.08,.16-.11,0,0,.03,0,.03,0,0,0,0,.03,0,.03-.02,.02-.04,.03-.06,.05-.06,.04-.12,.09-.17,.13,0,.04,.02,.06,.04,.08,.07,.1,.15,.19,.22,.29,.03,.03,.02,.04,0,.07-.03,.02-.05,.05-.09,.05,0-.01-.02-.02-.03-.03-.18-.23-.36-.47-.54-.7,0-.01-.02-.03-.03-.04,0-.01,0-.03,0-.04,.01-.01,.02-.02,.04-.03,.12-.09,.25-.19,.37-.28,.05-.04,.05-.04,.09,.02,0,0,0,.02,0,.03Z"/>
  <path class="cls-56" d="M6.49,2.31s0,.05-.03,.06c-.02,0-.03,0-.05,.01-.04,0-.05,0-.06-.04-.02-.06-.03-.12-.04-.18-.06-.23-.11-.46-.17-.68,0-.02,0-.03-.01-.05,0-.02,0-.03,.02-.04,.02,0,.04-.01,.06-.02,.04,0,.05,0,.06,.04,.03,.12,.06,.24,.09,.35,.04,.17,.08,.33,.12,.5,0,.02,0,.04,.01,.05Z"/>
  <path class="cls-98" d="M11.66,3.09s.04,0,.05-.03c.06,.04,.12,.09,.17,.14,.02,.01,.03,.03,0,.05-.02,.02-.04,0-.05,0-.06-.05-.12-.09-.17-.15Z"/>
  <path class="cls-110" d="M7.16,2.26s-.05-.02-.07-.02c-.03,0-.05,0-.07-.02,.08-.04,.17-.07,.27-.05,0,.02,.03,.03,.05,.03-.05,.04-.11,.06-.17,.07Z"/>
  <path class="cls-46" d="M9.99,2.07s-.02-.02-.04-.04c.05-.06,.11-.12,.18-.17,.01,.01,.02,.02,.03,.03-.03,.09-.09,.15-.18,.18Z"/>
  <path class="cls-70" d="M5.56,2.6s.1-.04,.15,0c-.04,.02-.08,.02-.12,.02,0,0-.02-.01-.02-.02Z"/>
  <path class="cls-74" d="M10.92,2.48s-.03,.02-.05,.02c-.01,0-.02-.01,0-.02,.02,0,.04,0,.05,0Z"/>
  <path class="cls-74" d="M10.87,2.46s0-.02,.02-.03c0,.01,0,.02-.02,.03Z"/>
  <path class="cls-70" d="M1.75,9.32h.8s.06,0,.09,0c.03,0,.05,.01,.06,.05,.05,.15,.1,.29,.16,.44,.64,1.53,1.96,2.67,3.57,3.09,.42,.11,.84,.17,1.27,.17,.14,0,.28,0,.42,0,.71-.04,1.38-.21,2.02-.53,1.32-.66,2.23-1.7,2.72-3.09,0-.02,0-.03,.02-.05,.02-.07,.02-.07,.1-.07,.21,0,.43,0,.64,0h1.02s.04,0,.06,0c.08,0,.09,.01,.07,.08-.1,.41-.23,.82-.4,1.21-.87,2.01-2.62,3.52-4.75,4.07-.41,.11-.83,.18-1.26,.21-.33,.03-.65,.03-.98,.01-.91-.05-1.78-.27-2.61-.66-1.72-.8-3.06-2.27-3.7-4.05-.09-.25-.16-.5-.23-.76,0-.02-.01-.05-.01-.07,0-.03,0-.04,.04-.05,.03,0,.07,0,.1,0,.27,0,.53,0,.8,0Z"/>
  <path class="cls-70" d="M3.21,7.74c.01-2.53,2.06-4.55,4.58-4.55,2.58,0,4.57,2.1,4.57,4.56,0,2.5-2.06,4.55-4.58,4.55-2.46,0-4.56-1.99-4.57-4.56Z"/>
  <path class="cls-105" d="M2.36,7.76s0-.05,0-.07c0-.08,.01-.09,.1-.07,.05,.01,.08,.05,.08,.09,0,.03,0,.06,0,.1,0,.05-.04,.09-.09,.1-.08,.02-.09,0-.09-.06,0-.03,0-.06,0-.08Z"/>
  <path class="cls-33" d="M13.46,7.72s0-.05,.02-.08c0-.02,.02-.04,.05-.04,.03,0,.04,.02,.05,.04,.02,.08,.03,.16,0,.24,0,.03-.03,.04-.06,.04-.02,0-.04-.02-.04-.04-.01-.04-.02-.09-.02-.16Z"/>
  <path class="cls-119" d="M14.27,7.81s.04-.09,.09-.12c.02,.02,.01,.04,.01,.06,0,.08,0,.08-.1,.06Z"/>
  <path class="cls-19" d="M9.34,2.09c0,.07-.03,.14-.1,.17-.12,.07-.23,.04-.34-.01-.02,0-.02-.03-.01-.05,.03-.11,.05-.23,.08-.34,0-.02,.02-.04,.04-.03,.07,.02,.14,.03,.2,.08,.06,.05,.11,.11,.12,.19Z"/>
  <path class="cls-19" d="M9.17,1.4s.05,0,.08,0c.1,.02,.18,.12,.17,.21-.01,.11-.11,.19-.22,.19-.04,0-.08-.01-.12-.02-.09-.02-.08-.03-.06-.1,.02-.08,.04-.16,.06-.24,0-.04,.03-.05,.07-.05,0,0,.02,0,.03,0Z"/>
  <path class="cls-94" d="M7.28,2.16c-.08,.05-.17,.06-.27,.05-.13-.04-.2-.15-.24-.27-.04-.14-.05-.28,0-.42,.02-.06,.05-.11,.1-.15,.12-.12,.31-.12,.42,0,.03,.03,.05,.06,.07,.1,.07,.16,.09,.33,.04,.5-.02,.07-.06,.13-.11,.18Z"/>
  <path class="cls-96" d="M9.99,2.07c.07-.05,.13-.11,.18-.18,.02,0,.04-.03,.05,0,0,.02,0,.05,0,.07,0,.11,0,.21,0,.32,0,.03,0,.06-.02,.09-.11-.04-.23-.09-.35-.15,.05-.06,.1-.11,.15-.16Z"/>
  <path class="cls-116" d="M7.85,13.98c-.05,.02-.11,0-.16,.01-.04,0-.05,.01-.05,.05,0,.07,0,.13,0,.2,0,.03,.01,.04,.05,.04,.06,0,.11-.01,.17-.02,.02,0,.05,0,.07,0,0,0,0,.01,.01,.02,0,0,0,.02,0,.02,0,0-.02,.01-.03,.01-.11,0-.21,0-.32,0-.02,0-.04-.02-.04-.04,0-.01,0-.02,0-.04,0-.17,0-.34,0-.51,0-.05,0-.06,.05-.06,.1,0,.2,0,.31,0,.02,0,.03,0,.03,.03,0,.02-.02,.03-.04,.02-.03,0-.06,0-.09-.01-.02,0-.04,0-.06-.01-.09,0-.11,.01-.11,.1h0c0,.17-.02,.16,.14,.16,.02,0,.05,0,.07,.02Z"/>
  <path class="cls-102" d="M6,13.57c0-.05,.02-.1,.03-.14,0-.03,.06-.04,.08-.01,.02,.02,.03,.05,.04,.07,.05,.12,.1,.25,.16,.37,0,.02,.02,.05,.03,.07,.01,.02,.03,0,.04-.01,.02,0,.04,0,.02,.03,0,.07-.02,.14-.06,.21-.04-.04-.05-.08-.06-.12-.07-.15-.13-.31-.2-.46-.01-.03-.03-.01-.05,0-.01,0-.02,0-.03,0Z"/>
  <path class="cls-20" d="M4.11,13.13c-.07-.02-.11-.06-.15-.11-.04-.06-.05-.12-.02-.18,.01-.03,.02-.05,.04-.08,.08-.11,.15-.21,.23-.31,0-.01,.02-.03,.04-.02,.02,0,.04,.02,.05,.05,0,.02,0,.03-.02,.04-.07,.09-.14,.18-.2,.27-.02,.03-.04,.05-.05,.08-.04,.07-.03,.13,.03,.19,.02,.02,.05,.04,.08,.06,0,.02,0,.04-.03,.02Z"/>
  <path class="cls-130" d="M8.39,13.7c0,.07,.03,.12,.08,.15,.04,.02,.08,.04,.12,.06,.04,.02,.07,.03,.11,.06,.08,.07,.09,.18,0,.26-.02,.02-.04,.04-.07,.04-.03,0-.03,0-.03-.03,.02-.02,.04-.03,.05-.06,.03-.06,.01-.12-.04-.15-.04-.03-.08-.04-.12-.06-.04-.02-.07-.03-.11-.05-.04-.03-.07-.06-.08-.12,0-.05,0-.1,.05-.13,.03,0,.04,0,.03,.03Z"/>
  <path class="cls-102" d="M4.83,12.83s.01,0,.02,0c0,0,0,.01,0,.02,0,0,0,0,0,0-.04,0-.07,0-.1,.04-.02,.03-.03,.07-.02,.1,.02,.04,.04,.09,.06,.13,.02,.04,.05,.08,.06,.13,.02,.11-.03,.19-.14,.21-.02,0-.04,0-.06,0-.01-.02-.01-.03,0-.05,.04-.01,.08-.04,.1-.08,.01-.05,0-.09-.02-.13-.02-.03-.04-.06-.05-.1-.01-.03-.03-.06-.04-.09-.01-.04-.01-.08,0-.12,.02-.04,.05-.07,.1-.08,.03-.01,.06-.01,.08,0Z"/>
  <path class="cls-20" d="M5.61,13.23c.22,.04,.32,.2,.24,.41-.04,.11-.11,.21-.24,.23-.02,0-.05,0-.07,0-.01,0-.02-.02-.01-.03,.06-.08,.14-.13,.18-.22,.06-.15,.05-.22-.08-.32-.01-.01-.02-.02-.03-.04,0-.01,0-.02,.01-.03Z"/>
  <path class="cls-42" d="M10.18,13.49s-.04,.03-.03,.05c.03,.07,.06,.14,.09,.21,.01,.02,.04,0,.05,0,.01,.01,.01,.02,0,.03-.14,.07-.12,.08-.18-.06-.06-.15-.13-.29-.19-.44-.01-.03,0-.05,.02-.06,.03-.01,.05-.02,.08-.03,.03,0,.03,0,.03,.03-.01,.01-.03,.03-.02,.05,.03,.06,.05,.12,.08,.18,0,0,.02,0,.03,0,.03-.01,.03,0,.03,.02Z"/>
  <path class="cls-116" d="M11.97,12.57c-.05-.06-.11-.06-.18-.05-.04,0-.07,.02-.11,.02s-.07,0-.11,0c-.07,0-.12-.06-.12-.13,0-.02,0-.05,0-.07,.05-.02,.03,.04,.05,.05,.03,.04,.08,.06,.13,.05,.04,0,.09,0,.13-.02,.04,0,.09-.01,.13-.01,.11,0,.18,.1,.15,.21,0,.02-.01,.05-.03,.06-.08-.01,0-.09-.05-.12Z"/>
  <path class="cls-27" d="M9,13.59s.02-.05,.03-.08c0,0,.02,0,.02,0,.13,.18,.26,.35,.39,.53,.02,.03,0,.04-.02,.05-.04,0-.06,0-.08-.03-.01-.02-.04-.05-.05-.07-.02-.04-.05-.04-.09-.04,0,0-.01-.02-.02-.03-.04-.09-.08-.18-.17-.23-.01,0-.02-.01-.02-.03,0-.03,0-.06,.01-.08Z"/>
  <path class="cls-27" d="M3.99,12.25s-.05-.02-.07,0c-.04,.05-.1,.1-.13,.16,0,.02,0,.03-.03,.03-.05,.03-.08,.07-.11,.11-.03,.03-.06,.07-.09,.1-.02,.02-.04,0-.06-.01-.02-.02-.02-.03,0-.05,.01-.02,.03-.03,.04-.05,.12-.14,.24-.27,.37-.41,.05,.02,.08,.05,.11,.09,0,.02,0,.03-.02,.02Z"/>
  <path class="cls-27" d="M10.87,13.52c-.11,.04-.18,.02-.25-.07,0,0-.01-.01-.01-.02-.06-.1-.12-.2-.18-.31-.02-.03-.03-.06-.04-.09,.01-.01,.02-.02,.03-.03,.04-.02,.05-.02,.07,.01,.03,.05,.06,.11,.09,.16,.03,.06,.06,.11,.1,.17,.03,.05,.06,.09,.12,.12,.02,.03,.08-.02,.07,.05Z"/>
  <path class="cls-27" d="M11.21,12.98c.06,.05,.09,.12,.14,.18,.02,.03,.01,.05-.02,.07-.02,.01-.04,.02-.05,0-.03-.05-.07-.09-.1-.14-.09-.12-.17-.24-.25-.35,0-.04,.05-.05,.06-.08,0,0,.02-.02,.03-.02h0s.02-.01,.03-.01c.02,0,.03,.02,.03,.04,0,.09,.06,.15,.1,.23,.02,.03,0,.07,.03,.09Z"/>
  <path class="cls-58" d="M7.23,13.66c.15,.05,.23,.24,.16,.42-.04,.1-.12,.16-.23,.17-.03,0-.06,.02-.09-.02,0-.02,.02-.03,.03-.05,.18-.13,.21-.25,.1-.45,0-.02-.02-.04-.02-.06,0-.02,.02-.03,.04-.02Z"/>
  <path class="cls-27" d="M6.83,14.1c0-.15,.03-.31,.05-.46,0-.04,.01-.05,.05-.05,.06,0,.11,.02,.17,.02,0,.01,0,.03,0,.03-.08,.04-.1,.1-.11,.18-.02,.13,0,.27-.07,.39-.15,.04-.08-.07-.09-.12Z"/>
  <path class="cls-115" d="M5.27,13.08s0,.03-.01,.04c-.08,.16-.16,.33-.25,.49,0,.02-.02,.04-.04,.04-.04,0-.06-.03-.05-.06,.09-.17,.17-.34,.26-.51,.02-.03,.04-.04,.07-.01,0,0,.01,.02,.02,.03Z"/>
  <path class="cls-27" d="M5.61,13.23s0,.02,0,.03c0,.01-.02,.03-.03,.04-.22,.08-.27,.25-.24,.45,0,0,0,.02,0,.02,0,.02-.02,.03-.04,.02-.09-.08-.11-.17-.08-.29,0-.03,.02-.05,.03-.08,.08-.16,.19-.22,.37-.2Z"/>
  <path class="cls-129" d="M9.78,13.96c-.15-.16-.3-.33-.45-.49,0-.04,.03-.03,.05-.04,.02-.01,.04,0,.06,0,0,0,.01,.01,.02,.02,.11,.12,.21,.25,.32,.37,.06,.04,.1,.08,.02,.13Z"/>
  <path class="cls-129" d="M11.21,12.98s-.04-.05-.05-.07c.03-.04,.07-.07,.12-.08,.03,0,.04,.02,.06,.03,.11,.03,.22,.05,.33,.08,.03,0,.03,.03,0,.05-.03,.03-.06,.04-.1,.02-.08-.03-.17-.06-.25-.09-.02,0-.04-.02-.06-.02-.01,0-.03,0-.04,.02-.02,.01-.02,.03-.01,.05Z"/>
  <path class="cls-22" d="M11.34,12.86s-.03-.02-.05-.02c-.01-.01-.01-.03-.01-.04,0-.14-.03-.15-.17-.13-.02,0-.03,0-.05,0,0,0-.01-.01-.02-.02,0,0,0-.01,0-.02,0,0,0,0,.01,0,0,0,.01,0,.02,0,0,0,.02-.01,.02-.02h0s.02-.02,.03-.02c.04,0,.08-.03,.13-.03,.11,0,.17,.1,.14,.2-.01,.04-.06,.07-.05,.12Z"/>
  <path class="cls-43" d="M4.11,13.13s.02-.02,.03-.02c.1,.02,.16-.02,.22-.1,.07-.09,.14-.18,.21-.27,0,0,.01-.02,.02-.02h0s.04,0,.03,.03c-.01,.01-.02,.03-.03,.04,0,0-.01,.02-.02,.03-.06,.1-.13,.18-.2,.27-.03,.04-.07,.07-.12,.07-.04,0-.09,.01-.13-.02Z"/>
  <path class="cls-118" d="M10.99,13.4c.04-.07,.03-.14,0-.21-.02-.04-.04-.08-.07-.13,0-.01,.01-.03,.03-.03,.05,.06,.08,.12,.11,.19,.03,.08,.03,.15-.04,.21,0,0,0,0,0,0,0,0-.01,0-.01-.01,0,0,0-.01,0-.01Z"/>
  <path class="cls-50" d="M9.1,13.99s-.04,.02-.07,.02c-.05,0-.07,.04-.08,.08,0,.04,0,.08-.03,.11-.02-.01,0-.03-.02-.05,0-.1,.03-.2,.05-.29,0,0,.02,0,.03,0,0,.01,.01,.03,.02,.04,.01,.03,.04,.03,.07,.04,.02,0,.03,.02,.03,.04Z"/>
  <path class="cls-4" d="M8.39,13.7s-.02-.02-.03-.03c.03-.06,.09-.06,.15-.07,.05,0,.1,0,.14,.02,0,0,.02,.02,.01,.03,0,.01-.01,.02-.02,.02-.04,0-.08,0-.12-.02-.05,0-.1,0-.13,.04Z"/>
  <path class="cls-106" d="M6.83,14.1s0,.05,0,.08c0,.02,0,.04,.03,.04,.02,0,.04,0,.05-.03,.06-.01,.12-.01,.17,.03,.02,.03,.05,.02,.08,.03-.03,.02-.07,.02-.1,.02-.07,0-.14-.01-.2-.02-.03,0-.04-.02-.04-.05,0-.04,0-.07,.02-.1Z"/>
  <path class="cls-15" d="M10.3,13.79s0-.02,0-.03c.06-.05,.12-.08,.19-.11,.02,0,.03,0,.04,.01,0,.02,0,.03-.01,.04-.07,.03-.14,.07-.21,.09Z"/>
  <path class="cls-104" d="M4.9,12.86c.05,.02,.09,.06,.13,.1,.01,.02,0,.03-.01,.04,0,0-.02,0-.03,0,0,0-.01,0-.02-.02-.03-.03-.07-.07-.1-.1,0-.03,0-.04,.03-.03Z"/>
  <path class="cls-28" d="M9.78,13.96c.04-.05,.04-.06,.01-.1,0-.01-.02-.02-.03-.04,.02-.01,.02-.03,.03-.05,0-.06,0-.11,.02-.17,.04,.05,0,.1,.03,.15,0,.07,0,.14,0,.21,0,.02-.03,.02-.04,0Z"/>
  <path class="cls-81" d="M6.4,13.81c.01-.09,.04-.18,.07-.27,.05,0,.03,.03,.03,.05-.01,.09-.04,.17-.07,.25-.02,0-.02-.02-.03-.03Z"/>
  <path class="cls-129" d="M9.83,13.76s-.02-.04-.02-.07c0-.03,0-.06,0-.08,0-.1,0-.21,0-.31,.06,.08,.02,.16,.02,.25,0,.07,0,.14,0,.21Z"/>
  <path class="cls-103" d="M3.99,12.25s.02-.02,.02-.02c.06,.04,.11,.09,.16,.14,.01,.01,.01,.03,0,.04-.01,.01-.03,.01-.04,0-.05-.05-.1-.11-.15-.16Z"/>
  <path class="cls-125" d="M8.61,14.23s.02,.02,.03,.03c-.08,.04-.17,.03-.26,0,0,0-.01-.01-.01-.02,0,0,0-.01,.01-.02,.01,0,.03,0,.04,0,.06,.02,.13,.01,.19,0Z"/>
  <path class="cls-69" d="M10.87,13.52s-.06-.02-.07-.05c.08,0,.14-.03,.2-.08h0s0,.02,0,.02h0c-.04,.06-.09,.09-.15,.1Z"/>
  <path class="cls-68" d="M11.56,12.22s.06-.05,.1-.06c.02,0,.04,0,.05,.03,0,.02,0,.03-.02,.04-.03,.01-.06,.02-.09,.03-.03,0-.04,0-.04-.03Z"/>
  <path class="cls-31" d="M10.95,13.02s-.02,.02-.03,.03c-.03-.04-.06-.09-.08-.14-.01-.03,0-.04,.03-.03,.03,.04,.06,.09,.08,.14Z"/>
  <path class="cls-8" d="M3.76,12.44s.02-.02,.03-.03c.05,.04,.1,.08,.13,.12,0,0,0,.02,0,.02,0,0-.02,0-.02,0-.05-.04-.09-.08-.14-.12Z"/>
  <path class="cls-89" d="M10.13,13.15s.06-.03,.1-.05c.02,0,.04-.01,.05,0,.01,.02,0,.04-.04,.05-.03,0-.05,.01-.08,.02-.03,0-.04,0-.03-.03Z"/>
  <path class="cls-44" d="M11.97,12.57s.03,.04,.03,.06c0,.02,0,.05,.02,.06-.02,.05-.05,.08-.1,.1-.03,.01-.03,0-.03-.02,.07-.05,.1-.11,.07-.2Z"/>
  <path class="cls-53" d="M11.56,12.22s.02,.02,.04,.03c0,0-.02,.02-.03,.02-.05,.02-.06,.07-.06,.12-.02-.02-.03-.03-.05-.05,0-.06,.05-.1,.1-.12Z"/>
  <path class="cls-122" d="M10.18,13.49s-.02-.02-.03-.02c.04-.04,.09-.05,.14-.07,0,0,.02,0,.03,0,0,.01,0,.03-.01,.03-.04,.02-.08,.05-.13,.05Z"/>
  <path class="cls-28" d="M9.84,13.55c0-.06,0-.11,0-.17,0-.03,0-.06-.02-.08,0-.01,.01-.02,.02-.02,0,0,.02,0,.02,.01,0,.09,0,.17-.02,.26Z"/>
  <path class="cls-1" d="M4.53,13.42c-.05-.02-.08-.06-.12-.1,0-.01,0-.02,0-.03,0-.01,.02,0,.03,0,.04,.04,.07,.07,.11,.11,0,.01-.01,.02-.02,.02Z"/>
  <path class="cls-63" d="M6,13.67c0,.05-.02,.11-.04,.15-.02,0-.02-.02-.03-.03,0-.05,.02-.1,.04-.15,.02,0,.02,.02,.03,.03Z"/>
  <path class="cls-65" d="M11.9,12.77s.02,.01,.03,.02c-.03,.03-.07,.05-.11,.07-.01,0-.03,0-.03,0,0-.02,0-.03,.02-.03,.03-.01,.07-.03,.1-.04Z"/>
  <path class="cls-71" d="M5.54,13.84s0,.01,0,.02c-.01,.02-.04,0-.05,.02-.05,0-.09-.01-.13-.04,0-.02,.02-.03,.04-.04,.05,0,.1,0,.14,.04Z"/>
  <path class="cls-79" d="M10.87,12.88s-.02,.02-.03,.03c-.03-.03-.04-.06-.05-.09,0,0,0-.02,.01-.02,0,0,.02,0,.02,0,.03,.02,.04,.05,.05,.08Z"/>
  <path class="cls-29" d="M7.11,13.64s0-.02,0-.02c.05,0,.09,.01,.13,.04,0,0-.02,.02-.03,.03-.05,.01-.09,.01-.1-.05Z"/>
  <path class="cls-12" d="M4.53,13.42s.02-.01,.02-.02c.03,0,.07,.02,.1,.03,0,.02,0,.03,0,.05-.05,0-.09-.02-.12-.05Z"/>
  <path class="cls-133" d="M10.13,13.15s.02,.02,.03,.03c-.03,.01-.07,.03-.1,.04,0,0-.02-.02-.03-.03,.03-.03,.06-.04,.1-.05Z"/>
  <path class="cls-139" d="M5.95,13.84s-.02,.08-.03,.12c-.05,0-.03-.03-.02-.05,0-.02,0-.05,.02-.07,.01-.01,.02-.01,.03,0Z"/>
  <path class="cls-106" d="M5.9,13.9s0,.04,.02,.05c0,.02,0,.04-.02,.06,0,0-.01,0-.02,0,0,0-.02,0-.02-.01,0-.04,0-.07,.03-.1Z"/>
  <path class="cls-25" d="M9.1,13.99s-.02-.01-.03-.02c.03-.05,.07-.07,.12-.03,0,0,0,.02,0,.02-.03,.03-.06,.02-.1,.02Z"/>
  <path class="cls-3" d="M5.39,13.82s-.02,.02-.03,.02c-.03,0-.06-.02-.07-.05,.01-.01,.02-.02,.03-.03,.04,0,.06,.02,.07,.06Z"/>
  <path class="cls-18" d="M6,13.67s-.02-.02-.03-.03c0-.03,0-.05,.02-.07,.01,0,.02,0,.03,0,0,.04,0,.07-.03,.1Z"/>
  <path class="cls-53" d="M8.98,13.92s0-.04,0-.06c-.02-.02,0-.04,0-.06,0-.02,0-.04,0-.06,.03,0,.04,.01,.04,.03,0,.05,.02,.11-.04,.14Z"/>
  <path class="cls-115" d="M6.4,13.81s.02,.02,.03,.03c0,.03,0,.07-.03,.09,0,0-.02-.02-.02-.03,0-.04,.01-.07,.03-.1Z"/>
  <path class="cls-60" d="M5.49,13.88s.03-.02,.05-.02c.03,0,.05,0,.08,0-.04,.03-.08,.02-.13,.01Z"/>
  <path class="cls-53" d="M9.01,13.78s-.02-.02-.03-.04c0-.02,0-.03,0-.05,0-.01,0-.01,.02,0,0,0,.02,0,.03,0,.03,.03,.03,.06-.02,.09Z"/>
  <path class="cls-95" d="M9,13.69s-.01,0-.02,0c0-.04-.01-.07,.02-.1,0,.03,0,.06,0,.1Z"/>
  <path class="cls-132" d="M6.5,13.6s0-.04-.03-.05c0-.02,0-.03,.03-.03,.01,0,.02,.01,.02,.03,0,.02-.01,.04-.02,.05Z"/>
  <path class="cls-132" d="M4.6,12.74s-.02-.02-.03-.03c0-.02,.02-.03,.04-.02,.02,.02,0,.03,0,.05Z"/>
  <path class="cls-69" d="M4.9,12.86s-.02,.02-.03,.03c-.01,0-.02,0-.02-.02,0,0,0-.02,0-.03,.02,0,.04,0,.05,.02Z"/>
  <path class="cls-69" d="M4.83,12.83s-.06,0-.08,0c.03-.02,.06-.03,.08,0Z"/>
  <path class="cls-11" d="M8.9,14.16s.02,.03,.02,.05c-.01,.02-.03,.01-.03,0,0-.01,0-.03,0-.04Z"/>
  <path class="cls-53" d="M8.97,13.8s0,.04,0,.06c0,0-.01,0-.02,0,0-.02,0-.05,.02-.06Z"/>
  <path class="cls-75" d="M5.95,13.84s-.02,0-.03,0c0-.02,0-.03,0-.05,0,.01,.02,.02,.03,.03,0,0,0,.01,0,.02Z"/>
  <path class="cls-6" d="M11.05,12.62s0,.01,0,.02c0,0-.02,0-.03,0,0-.02,.02-.02,.03-.02Z"/>
  <path class="cls-6" d="M11.02,12.64s-.01,.02-.03,.02c0,0,.02-.01,.03-.02Z"/>
  <path class="cls-6" d="M11.09,12.59s-.01,.02-.02,.02c0,0,.02-.01,.02-.02Z"/>
  <path class="cls-6" d="M11.12,12.57s-.02,.02-.03,.02c0-.01,.02-.02,.03-.02Z"/>
  <path class="cls-132" d="M4.55,12.81s.01-.02,.02-.03c0,0-.01,.02-.02,.03Z"/>
  <path class="cls-132" d="M4.58,12.71s-.01,.02-.02,.02c0,0,.01-.02,.02-.02Z"/>
  <path class="cls-93" d="M7.95,10.22c-.07,.06-.13,.05-.21,.02-.2-.09-.4-.18-.58-.31-.54-.37-.9-.87-1.12-1.47-.08-.23-.14-.47-.17-.71-.02-.22-.04-.44-.02-.67,.03-.29,.07-.57,.16-.85,.03-.09,.06-.19,.1-.28,.04-.09,.09-.11,.18-.08,.09,.03,.17,.06,.25,.1,.13,.06,.25,.13,.37,.21,.02,.02,.05,.03,.08,.02,.34,.24,.61,.55,.82,.9,.49,.86,.56,1.76,.3,2.7-.04,.15-.08,.29-.16,.42Z"/>
  <path class="cls-111" d="M7.95,10.22s-.01-.03,0-.04c.08-.19,.14-.39,.19-.59,.03-.13,.05-.27,.07-.41,.03-.18,.02-.36,.02-.53,0-.14-.03-.27-.04-.41-.02-.2-.08-.4-.15-.59-.06-.17-.12-.34-.22-.49-.02-.02-.03-.05-.03-.08,.05-.19,.17-.34,.29-.48,.13-.16,.27-.3,.44-.42,.04-.03,.07-.07,.13-.05,.19-.12,.4-.2,.62-.25,.05-.01,.1-.02,.14-.03,.06,0,.1,.02,.13,.07,.01,.03,.02,.05,.03,.08,.1,.3,.16,.61,.18,.92,0,.12,.02,.24,.02,.37-.02,.74-.23,1.43-.68,2.03-.28,.37-.62,.66-1.03,.87-.03,.02-.07,.03-.1,.04Z"/>
  <path class="cls-34" d="M8.63,6.13c-.21,.13-.37,.3-.54,.48-.11,.12-.2,.26-.28,.41-.01,.02-.02,.05-.05,.07-.01-.01-.03-.03-.04-.04-.07-.12-.15-.23-.24-.33-.05-.06-.1-.12-.16-.18-.09-.09-.19-.18-.29-.25-.03-.02-.05-.04-.05-.08,.02-.12,.07-.23,.12-.33,.13-.3,.3-.57,.52-.81,.02-.02,.04-.05,.07-.07,.07-.06,.13-.07,.19,0,.07,.08,.14,.16,.21,.24,.19,.24,.35,.5,.48,.78,.02,.04,.04,.09,.07,.13Z"/>
  <path class="cls-100" d="M6.87,11.05c.08,.01,.15,.03,.23,0,0,0,.02,0,.02,0,0,.01,0,.02,0,.03-.05,.03-.1,.04-.15,.03-.04,0-.06,0-.09,.03-.13,.17-.27,.34-.4,.51,0,.01-.02,.03-.01,.05,.04,.02,.09,0,.13,0,0,0,0,.01,0,.02,0,0,0,0,0,0,0,.02-.02,.02-.04,.02-.04,0-.09,0-.13,0-.05,0-.1-.02-.16,0,0,0-.03,0-.03-.01,0-.02,0-.03,.02-.04,.03,0,.06-.02,.08-.02,.04,0,.06-.02,.08-.05,.13-.17,.27-.34,.4-.51,.02-.03,.02-.03-.02-.06,.01-.06,.05-.03,.08-.02Z"/>
  <path class="cls-10" d="M6.89,3.68c.05,0,.1,.02,.15,.02-.01,.08-.1,0-.12,.05-.05,.08-.11,.16-.16,.24-.03,.04-.06,.08-.07,.13-.01,.02,0,.05-.03,.06-.01,.01-.02,.03-.03,.05-.01,.03-.03,.06-.03,.1,0,.01,0,.02,0,.03-.01,.02-.03,.02-.05,.01-.02,0-.02-.02-.03-.04,0-.04,0-.07,.02-.1,.02-.04,.05-.08,.08-.12,.04-.06,.05-.13,.02-.19,0-.01,0-.02-.01-.03-.01-.02,0-.03,.02-.03,.04,0,.04,.05,.07,.06,.06-.05,.09-.13,.14-.19,.01-.01,.03-.02,.04-.03Z"/>
  <path class="cls-46" d="M8.68,11.34s.01,.02,.02,.03c.01,.04,0,.05-.04,.06,0,0,0,0,0,0-.01,0-.01,.02-.02,.03-.06,.07-.1,.17-.2,.2-.03,0-.07,.03-.1-.01-.02-.03-.01-.06,0-.09,.07-.1,.12-.23,.28-.2,.02,0,.05-.03,.07,0Z"/>
  <path class="cls-45" d="M8.39,3.9s0,.05,0,.07c-.02,.01-.02,.03-.03,.05,0,.03,0,.06-.03,.07,0,0-.01-.01-.01-.02,0-.02-.01,0-.02,0-.05,.07-.09,.14-.17,.16-.03,.01-.07,.03-.1,0-.02-.03-.01-.07,0-.1,.04-.08,.09-.16,.17-.19,.06,0,.12,0,.17-.04Z"/>
  <path class="cls-78" d="M7.56,4.05s.01,0,.02,0c.01,0,.02,0,.03,0,0,.01,0,.02,0,.03-.01,.03-.04,.05-.05,.09,.05,0,.08-.05,.12-.05,.02,0,.03,.01,.04,.03,0,.05,.02,.05,.06,.02,.05-.04,.08-.11,.14-.13,.02,0,.03,.01,.04,.03,0,.08-.06,.13-.09,.19-.01,.01-.03,.02-.05,.01-.02-.01-.04-.01-.07,0-.04,.03-.09,.04-.13-.01-.01-.01-.03-.01-.04,0-.02,.01-.04,.02-.07,.03-.02,0-.05,0-.07-.02,0-.03-.06-.03-.05-.07,.04-.04,.08-.08,.12-.12,0-.01,.02-.02,.03-.02Z"/>
  <path class="cls-55" d="M7.23,11.66s-.03,.02-.04,.03c-.02,0-.05,.01-.07-.01-.02-.03-.01-.05,0-.08,.02-.03,.03-.05,.05-.08,0,0,0-.02,0-.02,0,0-.01,0-.02,0-.04,0-.07,.03-.09,.05-.02,.03-.05,.06-.07,.09-.03,.05-.06,.07-.12,.06-.09,0-.1-.02-.06-.1,.02,0,.04,0,.03,.03,0,.02,0,.03,.03,.02,.04-.02,.07-.05,.1-.08,.01-.01,.02-.03,.03-.04q.07-.09,.17-.08c.05,0,.08,.04,.05,.09-.02,.03-.04,.05-.05,.08,0,0-.01,.02,0,.03,0,0,.02,0,.04,0,.01,0,.02,0,.02,.02Z"/>
  <path class="cls-46" d="M7.92,4.05s-.06,.07-.08,.1c-.03,.04-.06,.06-.1,.08-.01,0-.03,.01-.05,0-.02-.01,0-.03,0-.04,0-.02,.01-.03,.02-.04,.01-.09,.09-.14,.15-.2,0,0,.02-.01,.03-.02,.02-.01,.03-.02,.05-.03,0,0,.02,0,.03,0,.01,0,.03,0,.04,0,0,0,0,.02,0,.03,0,.02,0,.05-.02,.07,0,0,0,.02-.01,.03-.02,.01-.04,0-.05,.02Z"/>
  <path class="cls-86" d="M8.63,11.36c-.14,.02-.14,.02-.23,.14-.02,.03-.04,.07-.06,.1,0,.01,0,.03,0,.04,0,0,.02,0,.03,0,.02,0,.04-.01,.06-.02,0,0,0,.02,0,.03,0,.01-.02,.02-.03,.02-.05,0-.1,.03-.15-.02-.02-.03-.05,.02-.08,.02-.02-.02-.06,0-.05-.05,.02,.01,.05,0,.07,0,.04-.03,.08-.05,.11-.1,.04-.06,.08-.11,.12-.16-.02-.05,.04-.03,.05-.05,0,0,.01-.02,.02-.03,.03,0,.04,0,.03,.04,.02,.02,.04,.01,.06,.01,.03-.01,.03,0,.03,.02Z"/>
  <path class="cls-14" d="M8.24,3.95c-.1,.05-.15,.15-.2,.24,0,.01,0,.03,0,.04,0,0,.02,0,.03,0,.02,0,.04-.01,.06-.02,0,0,0,.01,0,.02,0,0,0,0,0,0-.06,.06-.12,.06-.19,0-.01,0-.02,0-.03,0-.01-.09,.08-.12,.11-.18,.02-.05,.06-.09,.09-.13,.02-.03,.05-.02,.07-.04,0,0,.01-.02,.02-.03,.01-.01,.03-.02,.04,0,.02,.02,0,.03,0,.05,0,.01,0,.03,0,.04Z"/>
  <path class="cls-81" d="M6.84,11.62s-.02-.02-.03-.03c.01-.02,.03-.05,.04-.07,0,0,0-.02,0-.02,0,0-.01,0-.02,0-.05,0-.09,.04-.12,.08-.04,.05-.08,.11-.12,.17,0,0,0-.02,0-.03,0-.03,0-.06,.01-.08,.03-.04,.05-.07,.08-.11q.06-.09,.17-.08c.05,0,.08,.05,.05,.09-.02,.03-.04,.06-.07,.09Z"/>
  <path class="cls-86" d="M7.67,11.71s-.04,0-.06,0c-.08-.05-.08-.05-.14-.05,0-.02,.01-.04,.01-.05,0-.01,.01-.03,.03-.03,.01,0,.02,0,.03,.01,0,.01,.02,.02,.03,.01,.03-.01,.05-.04,.07-.06,.01-.02,.03-.05,.05-.07,.01-.01,.03-.02,.04-.02,.01,0,.01,.04,0,.05-.03,.05-.07,.1-.09,.16,.01,.02,.04,.02,.02,.05Z"/>
  <path class="cls-86" d="M7.35,4.27s-.07,.03-.11,0c-.02-.02-.04-.02-.06-.01,0,0-.01-.02-.01-.03,.02-.07,.09-.1,.12-.17,.01-.01,.03-.02,.05-.01,.01,0,.02,0,.04,0,.03,0,.03,.02,.02,.04-.02,.02-.04,.05-.06,.07,0,0-.01,.02-.02,.03-.01,.02,0,.04,.04,.04,.01,.01,.01,.02,0,.04Z"/>
  <path class="cls-51" d="M6.86,4.27s0-.08,.03-.12c.01-.03-.01-.04-.03-.05-.01-.02,0-.04-.02-.05,0-.01,0-.02,0-.03,0-.04,.02-.07,.04-.06,.03,0,.04,.03,.04,.05,0,.02,0,.04,.01,.04,.06,.05,.05,.09,0,.15,0,.01-.01,.03-.02,.04,0,.04-.02,.05-.05,.03Z"/>
  <path class="cls-14" d="M8.98,11.59c.05-.02,.08-.08,.11-.12,.01-.02,.03-.04,.06-.03,.01,.01,.04,.02,.02,.05-.06,.04-.11,.1-.15,.16-.03,.04-.03,.04-.09,.02-.02,0-.04,0-.06,0,0-.04,.02-.04,.04-.06,.02,0,.04,0,.06-.01Z"/>
  <path class="cls-121" d="M7.23,11.66s-.02-.01-.02-.02c.03-.03,.07-.05,.09-.1,.02-.06,.08-.08,.13-.09,0,0,.01,.02,.02,.03,0,.04,0,.08,0,.13,0,0-.01,.02-.03,.02-.04,0-.06,.02-.07,.05,0,.01-.02,.03-.04,.02-.02-.02-.04-.05-.07-.03Z"/>
  <path class="cls-15" d="M8.65,4.24s-.04,0-.06,0t-.02-.05s.02-.01,.03-.01c.03,0,.05,.04,.08,.01,.05-.04,.08-.09,.12-.14,.01-.02,.03-.03,.05-.02,.02,.01,.06,0,.05,.04-.06,.03-.1,.07-.14,.12-.02,.03-.03,.07-.08,.08,0-.01-.02-.02-.03-.03Z"/>
  <path class="cls-108" d="M8.14,11.63s.03,.03,.05,.05c-.04,.02-.07,.02-.11,0-.01,0-.03-.01-.04-.02,0,0-.01-.02-.01-.03,.01-.05,.05-.08,.09-.12,.02,0,.03-.02,.01-.03,0-.01,0-.02,.02-.02,.02,0,.03,0,.05,0,.04,0,.05,.02,.03,.04-.03,.04-.08,.08-.09,.13Z"/>
  <path class="cls-140" d="M8.43,11.66v-.02c.05-.05,.1-.09,.14-.15,.02-.02,.03-.05,.07-.04h0s.01,0,.02,0c-.02,.06-.08,.11-.1,.17,0,.03,0,.04,.03,.03,0,0,.01,0,.02,0h.01s0,.01,0,.01h0c-.04,.05-.09,.05-.14,.03-.02-.01-.03-.04-.05-.03Z"/>
  <path class="cls-91" d="M8.61,11.64s.07-.07,.1-.12c.02-.04,.05-.06,.1-.05,.02-.01,.03,0,.03,.01,0,.04,0,.08,0,.12,0,.01,0,.02-.02,.02-.03,0-.05-.02-.08,0-.02,.01-.02,.05-.06,.04-.02,0-.03,0-.05,0h0s0-.01,0-.02h0Z"/>
  <path class="cls-59" d="M7.87,3.95c-.06,.06-.12,.12-.17,.2,0,0-.01-.02-.02-.03-.02-.02-.05-.03-.08-.05v-.02s0-.01,0-.01c0,0,0,0,0,0,.01,0,.03,0,.04,0,0,0,.02,0,.03,0,.03,0,.05,0,.07-.02,.02-.03,.04-.06,.07-.08,0,0,0,0,.01,0,.01,0,.03,0,.04,.02,0,0,0,0,0,.01Z"/>
  <path class="cls-121" d="M8.14,4.24s0-.02,0-.02c.07-.05,.11-.12,.17-.17,0,0,.02,.01,.02,.02,0,0,0,.02,0,.02-.04,.03-.06,.07-.08,.11-.02,.04,.02,.03,.04,.04,0,0,.01,.01,0,.02s0,0,0,0c-.03,.03-.06,.02-.08,0-.02-.02-.04-.03-.06-.02Z"/>
  <path class="cls-136" d="M8.29,4.27s0-.02,0-.02c.07-.05,.11-.12,.17-.17,.03-.02,.05,0,.06,.01,.02,.03,.03,.07,.02,.1,0,0-.01,.02-.02,.02-.02,0-.05-.01-.07,0-.02,.01-.03,.04-.06,.03-.02-.01-.03,0-.04,0-.02,0-.03,.02-.06,.02Z"/>
  <path class="cls-49" d="M9.17,11.49s-.02-.03-.02-.05c.02,0,.03,0,.05,0,.02,.01,.03,.01,.05,0,.05,.03,.06,.04,.04,.07-.02,.03-.04,.07-.07,.1-.03,.04,.05,.04,.03,.07,0,0-.02,0-.02,0-.05,0-.07-.02-.06-.07,0-.04,.03-.06,.05-.09,.02-.03,.02-.04-.03-.04,0,0,0,0-.01,0Z"/>
  <path class="cls-29" d="M7.18,4.22s0,.02,0,.03c-.04,.04-.09,.05-.13,0-.01-.01-.03-.01-.04-.01-.03,.01-.03,0-.03-.02,.02-.02,.05-.04,.07-.05,.01,0,.02-.01,.03-.03h0s.02,0,.03,0c.01,.01,.01,.03,0,.05,0,0-.01,.01-.03,.01,.01,0,.02,0,.03,0,.02,0,.04,0,.06,.02Z"/>
  <path class="cls-104" d="M6.62,3.66c.08,0,.15-.02,.23,.02-.01,.02-.03,.04-.05,.05-.04,.02-.09,.01-.14,.01,0,0-.02,0-.03,0,0,0,0,0-.01,0-.02,0-.03,.04-.06,.03,0,0,0-.01,0-.02-.01-.02-.01-.04,0-.06,0-.01,0-.02,.02-.02,.02,0,.04,0,.05-.02Z"/>
  <path class="cls-81" d="M6.91,3.76s.03-.03,.06-.03,.05,0,.06-.02c.05,0,.09,0,.14,0,.01,0,.02-.01,.03-.02,0,0,0,0,.02,0,.01,0,.02,0,.04,0h0s0,.02,0,.03h0s-.02,.01-.03,.02c0,0-.01,0-.02,0-.02,.02-.05,0-.08,.02-.05,.01-.09,0-.14,0-.03,0-.05,0-.08,0Z"/>
  <path class="cls-40" d="M6.87,11.05s-.06,0-.08,.02c-.05,0-.1,0-.14,.04,0,0-.03,0-.03,0,0,0,0-.02,0-.03,.03-.03,.06-.05,.11-.05,.04,0,.09,0,.13,.03Z"/>
  <path class="cls-36" d="M8.04,11.63s0,.02,0,.03c-.08,.05-.09,.05-.15,0,0-.04-.02-.07,.01-.1,.01,0,.02,0,.03,0,.04,.03,.07,.05,.1,.08Z"/>
  <path class="cls-35" d="M8.51,4.1s-.03-.03-.06-.03c.04-.02,.07-.03,.11-.05,.03-.01,.07,0,.09,.03,.02,.03,.04,.06,0,.1,0,0-.02,.01-.03,0-.03-.04-.07-.06-.12-.05Z"/>
  <path class="cls-106" d="M8.83,11.48s-.02-.01-.03-.02c.02-.02,.04-.03,.06-.03,.06,0,.1,.03,.1,.09,0,.02,0,.04-.01,.06,0,0-.02,.01-.03,.01-.01,0-.02,0-.03-.02,0-.05-.03-.08-.07-.1Z"/>
  <path class="cls-101" d="M9,4.24s-.05,.03-.07,.04c-.04,0-.07-.02-.06-.06,0-.02,0-.05,.03-.06,.02,0,.03,.01,.03,.03t.05,.02h.01s.01,.01,.01,.02c0,0,0,.01,0,.01Z"/>
  <path class="cls-8" d="M6.59,4.36s0-.02,0-.03c-.02-.04,.02-.06,.02-.09,.02-.02,.02-.05,.03-.07,.02-.02,.03-.03,.05-.05-.01,.09-.02,.18-.09,.24Z"/>
  <path class="cls-124" d="M8.68,11.66s.02-.06,.05-.08c.03,.02,.04,.06,.08,.06,.01,0,.02,.02,.03,.04-.08,.04-.1,.04-.15-.02Z"/>
  <path class="cls-24" d="M7.92,11.56s-.03,.06-.03,.1c-.03-.02-.01-.06-.04-.07,0,0-.01,0-.01-.02,0,0,0-.01,0-.01,.02-.03,.05-.05,.06-.08,0-.01,.02-.03,.04-.03,.01,.01,.02,.02,.03,.03,.01,.05-.03,.05-.05,.07Z"/>
  <path class="cls-74" d="M8.19,3.9s-.04,.04-.05,.05c-.03,.01-.06,.02-.09,.01-.02,0-.05-.02-.06-.04,0,0,0-.01,.01-.02,.06,0,.13,0,.19,0Z"/>
  <path class="cls-133" d="M9.25,11.68s-.02-.02-.03-.02c-.02-.02-.02-.03,0-.05,0,.03,.02,.03,.04,.01,.02-.01,.04-.03,.06-.04h0s0,.01,.01,.02h0s-.06,.07-.1,.08Z"/>
  <path class="cls-92" d="M7.67,11.71s-.01-.03-.02-.05c.05,.02,.08-.03,.12-.05h0s0,.02,0,.02c-.03,.04-.07,.07-.12,.07Z"/>
  <path class="cls-136" d="M8.83,11.69s-.02-.01-.03-.02c0-.02,0-.04,.02-.05h0s.05-.03,.08-.03c0,0,.02,0,.02,0,0,0,0,0,0,.01,0,0,0,0,0,0-.02,.02-.03,.03-.05,.05-.02,0-.03,.02-.05,.03Z"/>
  <path class="cls-128" d="M8.24,3.95s0-.03,0-.04c.03,.01,.06,0,.09,0,.02,0,.04,0,.05-.01,0,.02,0,.03-.02,.04-.04,.01-.08,.04-.13,.01Z"/>
  <path class="cls-133" d="M6.55,3.78s.03-.03,.04-.05c.04,.03,.07,.07,.05,.13,0,0-.01,.02-.02,.03-.03-.03-.05-.06-.07-.1Z"/>
  <path class="cls-83" d="M6.99,4.22s.02,.01,.03,.02c-.02,.03-.05,.04-.08,.05-.03,0-.05,0-.07-.02,.02,0,.04,0,.05-.03,.03,0,.05,0,.07-.02Z"/>
  <path class="cls-53" d="M7.12,4.15h-.04s.06-.08,.1-.1c.02,0,.03,.01,.03,.03-.02,.04-.05,.06-.09,.06Z"/>
  <path class="cls-3" d="M6.84,4.05s.02,.03,.02,.05c0,0,.01,.01,0,.01,0,0,0,0,0,0-.02,.02-.04,.03-.05,.05,0,0-.02,0-.02,0,0,0,0-.01,0-.02,.02-.03,.06-.06,.06-.1Z"/>
  <path class="cls-47" d="M8.39,4.24s.03-.03,.04-.05c.03,.02,.06,.05,.08,.07,0,.01,0,.02,0,.03-.05,.02-.1,.01-.12-.05Z"/>
  <path class="cls-121" d="M8.2,11.46s-.04,0-.06,0c-.03,.03-.07,.05-.11,.03,0,0-.01-.01,0-.02s0-.01,0-.01h0s.02-.02,.03-.02c.05,0,.1-.02,.15,.02Z"/>
  <path class="cls-37" d="M8.51,4.29s0-.02,0-.03c0-.03-.02-.05,0-.07,0,0,.02,0,.02,0,.02-.01,.03-.01,.05,0,0,.02-.03,.03,0,.05-.02,.02-.05,.04-.08,.04Z"/>
  <path class="cls-99" d="M7.5,11.61s.02,.01,0,.03c0,0-.02,.02-.03,.03-.01,.02-.03,.03-.05,.03,0,0-.01-.02-.02-.03,0-.02,0-.03,.02-.05h0s.04-.02,.07,0Z"/>
  <path class="cls-39" d="M7.34,4.04l-.03,.03s-.04,.02-.07,0c-.01-.01-.03-.02-.03-.04,.04-.04,.09-.04,.13,0Z"/>
  <path class="cls-72" d="M8.97,4.22s.05-.04,.07-.06c0,0,.02,0,.02,0,0,0,0,.02,0,.02-.02,.03-.04,.05-.07,.06h0s0-.01-.01-.02h0Z"/>
  <path class="cls-101" d="M7.35,4.27s0-.02,0-.04c.01-.02,.03-.03,.05-.03,.01,.02,.05,.03,.05,.07-.03-.04-.07,0-.1,0Z"/>
  <path class="cls-16" d="M8.93,4.19s-.02-.02-.03-.03c.02-.02,.03-.05,.05-.07,.01,0,.02,0,.03,.02,0,0,0,.01,0,.02,0,.03-.03,.05-.05,.07Z"/>
  <path class="cls-88" d="M7.94,11.46s-.02,.02-.03,.03c-.03,0-.03,0-.03-.03,0,0,0-.02,0-.02,0-.02,0-.04,.03-.04,.04,0,.02,.03,.02,.05,0,0,0,0,0,.01Z"/>
  <path class="cls-65" d="M7.43,11.49s0-.02,0-.03c.04-.03,.08-.03,.12,.01,0,0,0,.02-.02,.03,0,0,0,0-.01,0-.03,0-.06,.01-.09-.01Z"/>
  <path class="cls-57" d="M8.48,11.31s-.03,.04-.05,.05c-.03-.02-.06-.02-.09-.02,0,0,0-.01,0-.02s0,0,0,0c.05,0,.1,0,.15,0Z"/>
  <path class="cls-87" d="M8.02,11.47s0,.02,0,.03c0,.04-.03,.06-.06,.06-.01,0-.02,0-.04,0,.02-.02,.03-.05,.05-.07h0s.02-.02,.03-.02c0,0,.01,0,.02,0Z"/>
  <path class="cls-85" d="M7.91,4.24s.03,0,.04,0c-.02,.03-.04,.03-.07,.04-.02,0-.05,0-.06-.02,.01-.01,.02-.02,.03-.03,.02,0,.04-.02,.06,0Z"/>
  <path class="cls-5" d="M7.89,11.45s.02,.02,.03,.03c-.01,.03-.03,.06-.06,.08-.01,0-.02,0-.03,0,.02-.04,.04-.07,.07-.11Z"/>
  <path class="cls-73" d="M7.55,11.59s-.02,0-.03,0c-.02-.03-.02-.07,0-.1h0s.01,0,.02,0c.04,.04,.01,.07,0,.1Z"/>
  <path class="cls-128" d="M7.43,11.66s0,.02,0,.03c-.04,.03-.08,.04-.12,0,0,0,.02-.02,.02-.02,.03-.02,.07-.02,.1,0Z"/>
  <path class="cls-16" d="M8.9,4.07s-.03-.02-.05-.04c.02,0,.04,0,.06,0,.02,0,.05,0,.06,.02,0,0,0,0,0,.01,0,.01-.01,.02-.03,.02-.02,0-.03,0-.05-.01Z"/>
  <path class="cls-54" d="M7.96,3.9s-.01,0-.02,0c0,0,0,0,0,0,0,0-.01-.01-.01-.02,0,0-.01-.01-.02-.02,0,0,0-.02,0-.02,.02-.02,.04-.03,.06-.01,.02,.01,.02,.03,.02,.05,0,.01,0,.02-.01,.03Z"/>
  <path class="cls-44" d="M7.89,3.82s.02,.02,.03,.02c0,.04-.03,.06-.06,.06-.01,0-.02,0-.03-.01,.01-.03,.03-.06,.07-.08Z"/>
  <path class="cls-3" d="M8.34,11.32s0,.02,0,.03c-.02,.02-.04,.03-.07,.02,0,0-.01,0-.02-.01,0,0,0,0,0-.01,.02-.02,.05-.03,.08-.03Z"/>
  <path class="cls-46" d="M8.43,11.66s.05-.01,.05,.03c-.03,0-.05,0-.08,0,0,0,.02-.02,.02-.03Z"/>
  <path class="cls-37" d="M8.68,4.19s-.05,0-.08,0c0-.02,0-.03,.02-.03,.01,0,.02,0,.03,.01,0,.01,.01,.02,.03,.02Z"/>
  <path class="cls-112" d="M6.79,3.7s.04-.02,.05-.03c.01,0,.03,0,.04,0-.01,0-.02,.02-.03,.03-.02,.02-.05,.02-.07,0Z"/>
  <path class="cls-138" d="M8.63,11.36s-.02-.01-.03-.02c.01,0,.03-.02,.04-.02,.02,0,.04,0,.04,.03-.02,0-.04,0-.05,.02Z"/>
  <path class="cls-16" d="M8.98,4.05s.02,.05,0,.08h0s-.01-.05,0-.07h0Z"/>
  <path class="cls-76" d="M8.59,11.64s-.03,.03-.05,0c0-.01,0-.03,.01-.04l.03,.03Z"/>
  <path class="cls-82" d="M6.86,4.12s0-.01,0-.02c.06,0,.06,0,.03,.05-.01-.01-.02-.02-.03-.03Z"/>
  <path class="cls-7" d="M9.32,11.59s.01-.01,.02-.02c0,0,.02,0,.02,0,.01,0,0,.02,0,.03,0,0-.01,.01-.02,.02h0s0-.02,0-.02h-.01Z"/>
  <path class="cls-15" d="M8.97,4.05v.06s-.02-.02-.03-.03h0s.02-.03,.03-.04Z"/>
  <path class="cls-60" d="M8.54,11.32s-.02-.03-.03-.04c.01-.02,.03-.03,.04-.01,.02,.02,0,.03,0,.05Z"/>
  <path class="cls-8" d="M7.13,3.75s.05-.02,.08-.02c-.02,.02-.05,.02-.08,.02Z"/>
  <path class="cls-126" d="M8.36,4.02s-.01-.04,.03-.05c0,.02,0,.04-.03,.05Z"/>
  <path class="cls-77" d="M7.2,4.04s.02,.01,.03,.02c0,.01-.01,.01-.02,0,0,0-.02-.01-.02-.02,0,0,.01,0,.02,0Z"/>
  <path class="cls-132" d="M6.62,3.66s-.03,.02-.05,.02c.01-.02,.03-.02,.05-.02Z"/>
  <path class="cls-132" d="M6.54,3.7s0,.04,0,.06c-.02-.02-.02-.04,0-.06Z"/>
  <path class="cls-14" d="M9.25,11.44s-.03,.02-.05,0c.02,0,.03,0,.05,0Z"/>
  <path class="cls-12" d="M7.82,11.56s.02,0,.03,0c0,0,0,.02,0,.02h0s0,0,0,0c0,0-.02,0-.03,0,0,0,.01-.02,.02-.02Z"/>
  <path class="cls-120" d="M7.8,11.59s.02,0,.03,0c0,.01-.01,.02-.02,.02,0,0-.01,0-.02,0h0s0,0,0,0c.01,0,.02-.02,.03-.02Z"/>
  <path class="cls-84" d="M8.93,11.61s0-.01,0-.02c0,0,.02,0,.03,0,0,0,.02,0,.02,0-.01,.02-.03,.02-.05,.02Z"/>
  <path class="cls-120" d="M7.79,11.61s.01,0,.02,0c0,0,0,.02-.01,.02,0,0,0,0-.01-.01,0,0,0,0,0,0Z"/>
  <path class="cls-41" d="M7.56,4.05s-.02,.02-.03,.02c0-.01,.01-.02,.03-.02Z"/>
  <path class="cls-13" d="M8,11.47s-.02,.02-.03,.02c0-.01,.01-.02,.03-.02Z"/>
  <path class="cls-80" d="M7.55,11.49s-.01,0-.02,0c0-.01,0-.02,.01-.02,0,0,0,.01,0,.02Z"/>
  <path class="cls-37" d="M8.65,4.24s.02,.01,.03,.03c-.02,0-.02-.01-.03-.03Z"/>
  <path class="cls-32" d="M7.83,3.9s.01,0,.02,0c0,.02,0,.04-.03,.02h0s0-.02,0-.02Z"/>
  <path class="cls-13" d="M8.05,11.44s-.02,.02-.03,.02c0-.01,.02-.02,.03-.02Z"/>
  <path class="cls-41" d="M7.67,4.02s-.02,0-.03,0c0-.01,.02-.01,.03,0Z"/>
  <path class="cls-8" d="M7.23,3.73s.02-.01,.03-.02c0,.01-.01,.02-.03,.02Z"/>
  <path class="cls-8" d="M7.21,3.68s-.02,.02-.03,.02c.01,0,.02-.01,.03-.02Z"/>
  <path class="cls-53" d="M7.08,4.14s-.01,.02-.03,.03c0,0,.02-.02,.03-.03Z"/>
  <path class="cls-8" d="M7.26,3.71s0-.02,0-.03c.02,.01,.02,.02,0,.03Z"/>
  <path class="cls-8" d="M7.26,3.68s-.02,0-.04,0c.01-.02,.02-.02,.04,0Z"/>
  <path class="cls-41" d="M7.6,4.03s0,.01,0,.02c0,0-.02,0-.03,0,0-.01,.02-.02,.03-.02Z"/>
  <path class="cls-127" d="M8.65,4.17s-.02,0-.03,0c0,0,0-.02,0-.02,0,0,.02,0,.03,0,0,0,0,.02,0,.02Z"/>
  <path class="cls-67" d="M5.39,13.82s-.05-.04-.07-.06c-.05-.12-.02-.23,.04-.34,.04-.08,.11-.14,.21-.15,.02,0,.03,0,.05-.01,0,0,.01,0,.02,.01,.14,.07,.17,.15,.13,.3-.03,.13-.1,.23-.23,.28-.05,0-.1,0-.15-.03Z"/>
  <path class="cls-95" d="M9.01,13.78s.02-.06,.02-.09c0-.01,.02-.03,.02-.02,.07,.07,.12,.15,.17,.24,0,0-.01,.02-.02,.03-.04,0-.08,.02-.12,.03-.01,0-.02,0-.03,0q-.05,0-.06-.05s.02-.09,.03-.14Z"/>
  <path class="cls-6" d="M11.06,12.66s.03-.02,.04-.03c.05-.04,.11-.03,.16,0,.05,.04,.07,.09,.05,.15,0,.02-.01,.03-.02,.04-.02,.02-.04,.03-.06,.05-.02,.02-.04,.03-.06,.02-.03-.05-.07-.1-.1-.15-.03-.04-.02-.07,0-.1Z"/>
  <path class="cls-67" d="M7.11,13.64s.07,.03,.1,.05c.06,.06,.1,.12,.11,.21,0,.17-.06,.3-.23,.33-.06-.01-.12,0-.17-.03,.02-.14,.03-.29,.05-.43,0-.02,0-.05,.01-.07,0-.03,.02-.04,.05-.05,.03,0,.06,0,.08,0Z"/>
  <path class="cls-27" d="M11.01,13.41s-.01,0,0,0h0s0,0,0,0Z"/>
  <path class="cls-113" d="M8.46,9.18s.01-.06,.03-.09c.05-.06,.1-.12,.14-.18,.14-.19,.24-.39,.33-.61,0-.02,.01-.04,.02-.06,.03-.05,.09-.08,.15-.06,.05,.02,.08,.08,.07,.14-.02,.09-.06,.18-.1,.26-.1,.22-.23,.41-.38,.59-.02,.03-.04,.05-.06,.08-.05,.05-.1,.05-.15,.02-.04-.02-.05-.06-.05-.1Z"/>
  <path class="cls-123" d="M6.79,3.7s.04,0,.07,0c0,.02,0,.04,0,.06-.05,.06-.09,.13-.14,.2-.05-.02-.04-.08-.07-.11-.01-.04-.06-.07-.05-.13h0s.02-.02,.03-.02c.06,0,.11,0,.17,0Z"/>
  <path class="cls-137" d="M6.62,4.25s-.02,.06-.03,.09c-.03,0-.03-.02-.02-.04,0-.03,.02-.06,.05-.08,.01,.01,.01,.02,0,.04Z"/>
  <path class="cls-90" d="M6.62,4.25s0-.02,0-.04c0-.02,0-.03,.02-.04,0,.03,0,.05-.02,.07Z"/>
  <path class="cls-26" d="M8.64,11.44h0s0-.03,.01-.04c0,0,0,0,0,0,0,0,0,0,.01,0,0,0,0,.02,0,.02-.01,0-.03,0-.03,.03Z"/>
  <path class="cls-23" d="M8.33,4.07s-.01-.02-.02-.02c0-.01,.02-.01,.02,0,0,0,0,.02,0,.03Z"/>
  <path class="cls-46" d="M7.91,4.24s-.04,0-.06,0c.02-.06,.07-.11,.1-.16,0-.02,0-.04,.02-.05h0s0-.1,.07-.08c.03,0,.06,0,.1,.01-.07,.1-.13,.21-.23,.29Z"/>
  <path class="cls-41" d="M7.6,4.07s.02,0,.02,0c.06-.01,.06,0,.06,.06-.04,.04-.08,.09-.13,.1-.01,0-.02,0-.03,0-.02,0-.01-.03,0-.04,.02-.05,.06-.07,.1-.1Z"/>
  <path class="cls-21" d="M7.97,4.02s0,.04-.02,.05c0-.01-.01-.03-.03-.03,0-.02,.03-.02,.05-.02Z"/>
  <path class="cls-109" d="M8.04,3.94s-.04,0-.04,.04c0,.02-.02,.03-.04,.04,0-.02,0-.04,0-.06,0-.02,0-.04,.03-.04,.02,0,.04,0,.05,.02Z"/>
  <path class="cls-117" d="M7.94,3.9s-.02,.04-.05,.04c0,0-.01-.02-.01-.03,0,0,.01-.02,.02-.02,.01,0,.02,0,.03,0h0Z"/>
  <path class="cls-141" d="M7.9,3.93h0s-.01,.02-.02,.02h0s0-.02,0-.03c0,0,.01,0,.02,0Z"/>
  <path class="cls-114" d="M7.53,11.49s0,.06,0,.1c0,0-.02,.02-.02,.02-.02,0-.05,0-.07,0,0-.01,0-.02,0-.03-.02-.03-.01-.06,0-.09,.03-.02,.07-.02,.1,0Z"/>
  <path class="cls-95" d="M7.21,4.07s.02,0,.02,0c.02,0,.05,0,.07,0,0,.07-.07,.1-.12,.14-.02,0-.05,0-.07,0,0,0,0,0,0-.02,0,0,0,0,0,0,0-.02,.01-.03,.02-.05,.03-.03,.06-.05,.09-.08Z"/>
  <path class="cls-135" d="M7.43,11.66s-.07,.03-.1,0c0-.02,0-.05,0-.07,0-.02,.02-.03,.04-.02,.02,.01,.03,.04,.06,.04,0,.02,0,.03,0,.05Z"/>
  <path class="cls-107" d="M8.63,4.15s0,.01,0,.02c0,0-.01,.02-.02,.02,0,0-.01,0-.02,0-.02,0-.03,0-.05,0-.01-.03-.03-.06-.03-.09,0,0,0,0,0,0,.02-.02,.04-.05,.08-.03,.04,.02,.03,.05,.03,.08Z"/>
  <path class="cls-13" d="M7.96,11.56s.04-.04,.06-.06c.04-.02,.07-.04,.12-.04,0,0,0,.02,.01,.02,0,0,0,.02,0,.02-.02,.05-.07,.08-.11,.12,0,0-.01,0-.02,0-.07,.01-.08,0-.06-.07Z"/>
  <path class="cls-121" d="M8.15,11.51s0-.02,0-.02c0,0,0,.01,0,.02,0,0,0,0,0,0Z"/>
  <path class="cls-139" d="M8.61,11.64h0s0,0,0,0c0,0,0,0,0,0Z"/>
  <path class="cls-64" d="M8.91,11.59s-.05,.02-.08,.02c-.02-.04-.04-.08,0-.13,0,0,.02,0,.02,0,.06,0,.08,.01,.07,.07,0,.02,0,.03-.01,.05Z"/>
  <path class="cls-107" d="M8.82,11.61s0,.04-.02,.05q-.08,0-.08-.08s.02-.02,.04-.01c.02,.01,.03,.04,.06,.04Z"/>
  <path class="cls-30" d="M7.9,3.93s-.02,0-.03,.02c-.02,0-.04-.01-.05-.03,.02,0,.02,0,.03-.02,.02-.02,.05-.03,.07-.05,0,0,.02,.02,.03,.03,0,0-.01,.02-.02,.03-.02,0-.03,.01-.03,.03Z"/>
  <path class="cls-9" d="M8.51,4.19s.02,.05,0,.07q-.07,0-.08-.07s.03-.05,.06-.01c0,0,.01,0,.02,.01Z"/>
  <path class="cls-53" d="M7.1,4.19s0,.02,0,.02c0,0,0,0-.01-.02,0,0,0,0,0,0Z"/>
  <path class="cls-132" d="M6.62,3.71s-.02,.01-.03,.02c.01,0,.02-.01,.03-.02Z"/>
  <path class="cls-80" d="M8.98,4.23h0s0,.01,0,.01c0,0-.01,0-.01-.01Z"/>
  <path class="cls-61" d="M9.33,11.59s0,0,0,0h0s0,0,0,0Z"/>
  <path class="cls-62" d="M7.93,3.9s0-.02,.02-.03c0,0,0,.02-.01,.02,0,0,0,0,0,0Z"/>
</svg>